<?xml version="1.0" encoding="UTF-8" standalone="no"?>
<!-- Created with Inkscape (http://www.inkscape.org/) -->

<svg
   xmlns:osb="http://www.openswatchbook.org/uri/2009/osb"
   xmlns:dc="http://purl.org/dc/elements/1.1/"
   xmlns:cc="http://creativecommons.org/ns#"
   xmlns:rdf="http://www.w3.org/1999/02/22-rdf-syntax-ns#"
   xmlns:svg="http://www.w3.org/2000/svg"
   xmlns="http://www.w3.org/2000/svg"
   xmlns:sodipodi="http://sodipodi.sourceforge.net/DTD/sodipodi-0.dtd"
   xmlns:inkscape="http://www.inkscape.org/namespaces/inkscape"
   id="svg2"
   version="1.1"
   inkscape:version="0.91 r13725"
   width="495.40018"
   height="191.99998"
   viewBox="0 0 495.40017 191.99999"
   sodipodi:docname="Pimail.svg">
  <metadata
     id="metadata8">
    <rdf:RDF>
      <cc:Work
         rdf:about="">
        <dc:format>image/svg+xml</dc:format>
        <dc:type
           rdf:resource="http://purl.org/dc/dcmitype/StillImage" />
        <dc:title></dc:title>
      </cc:Work>
    </rdf:RDF>
  </metadata>
  <defs
     id="defs6">
    <linearGradient
       id="linearGradient6280"
       osb:paint="solid">
      <stop
         style="stop-color:#f6d5ff;stop-opacity:1;"
         offset="0"
         id="stop6282" />
    </linearGradient>
    <linearGradient
       id="linearGradient5986"
       osb:paint="solid">
      <stop
         style="stop-color:#ffffff;stop-opacity:1;"
         offset="0"
         id="stop5988" />
    </linearGradient>
    <linearGradient
       id="linearGradient5965"
       osb:paint="solid">
      <stop
         style="stop-color:#008000;stop-opacity:1;"
         offset="0"
         id="stop5967" />
    </linearGradient>
    <linearGradient
       id="linearGradient5931"
       osb:paint="solid">
      <stop
         style="stop-color:#0000ff;stop-opacity:1;"
         offset="0"
         id="stop5933" />
    </linearGradient>
    <linearGradient
       id="linearGradient5619"
       osb:paint="solid">
      <stop
         style="stop-color:#d40000;stop-opacity:1;"
         offset="0"
         id="stop5621" />
    </linearGradient>
  </defs>
  <sodipodi:namedview
     pagecolor="#ffffff"
     bordercolor="#666666"
     borderopacity="1"
     objecttolerance="10"
     gridtolerance="10"
     guidetolerance="10"
     inkscape:pageopacity="0"
     inkscape:pageshadow="2"
     inkscape:window-width="1719"
     inkscape:window-height="868"
     id="namedview4"
     showgrid="false"
     fit-margin-top="0"
     fit-margin-left="0"
     fit-margin-right="0"
     fit-margin-bottom="0"
     inkscape:zoom="0.96005381"
     inkscape:cx="31.084606"
     inkscape:cy="45.066331"
     inkscape:window-x="0"
     inkscape:window-y="0"
     inkscape:window-maximized="0"
     inkscape:current-layer="layer1"
     inkscape:showpageshadow="false"
     borderlayer="false"
     showborder="true"
     inkscape:snap-text-baseline="true" />
  <g
     inkscape:groupmode="layer"
     id="layer3"
     inkscape:label="Layer 3"
     style="display:inline"
     transform="translate(158.4557,-79.822901)" />
  <path
     style="fill:#000000"
     d=""
     id="path4140"
     inkscape:connector-curvature="0" />
  <path
     style="fill:#000000"
     d=""
     id="path4138"
     inkscape:connector-curvature="0" />
  <g
     inkscape:groupmode="layer"
     id="layer2"
     inkscape:label="Layer 2"
     transform="translate(158.4557,-79.822901)"
     style="display:inline">
    <path
       style="fill:#000080"
       d="m 80.944485,175.8229 0,-95.999999 127.999995,0 128,0 0,95.999999 0,95.99999 -128,0 -127.999995,0 0,-95.99999 z m 193.829805,46.00565 c -17.2314,-17.59689 -31.79107,-31.99689 -32.35484,-32 -0.56376,-0.003 -4.35692,3.34862 -8.42924,7.4483 -8.76082,8.81968 -14.39415,11.65673 -23.4089,11.78916 -10.38776,0.1526 -15.75683,-2.32788 -25.62055,-11.83654 l -8.62343,-8.31301 -26.96211,27.20321 c -14.82916,14.96177 -29.18813,29.56572 -31.90883,32.45322 l -4.94672,5.25 96.79221,0 96.79221,0 -31.3298,-31.99434 z m -137.65196,-19.23491 26.02114,-26.72923 -31.34949,-32.02056 c -17.24222,-17.61131 -31.687,-32.02065 -32.099497,-32.02075 -0.4125,-1.1e-4 -0.75,29.12321 -0.75,64.7185 l 0,64.71868 6.078347,-5.96869 c 3.3431,-3.28279 17.78787,-17.99686 32.0995,-32.69795 z m 181.82215,-26.01479 0,-64.24405 -31.5,31.4881 c -17.325,17.31845 -31.5,31.88597 -31.5,32.37227 0,0.69893 61.79649,64.27179 62.75,64.55378 0.1375,0.0407 0.25,-28.83588 0.25,-64.1701 z m -57.75,-31.59605 c 25.1625,-25.08554 45.75,-45.958783 45.75,-46.384986 0,-0.426203 -43.98567,-0.774914 -97.74592,-0.774914 l -97.74592,0 45.99592,46.02502 c 31.92251,31.9427 46.89615,46.2617 48.93814,46.79858 7.23323,1.90179 6.40008,2.59594 54.80778,-45.6637 z"
       id="path4226"
       inkscape:connector-curvature="0" />
  </g>
  <g
     inkscape:groupmode="layer"
     id="layer1"
     inkscape:label="Layer 1"
     transform="translate(158.4557,-79.822901)"
     style="display:inline">
    <path
       style="fill:#d40000"
       d="m 232.93658,249.96545 c -6.76306,-1.82035 -11.6062,-7.17835 -14.70899,-16.27274 -0.8433,-2.47172 -1.84194,-6.81919 -2.28618,-9.95269 -0.56202,-3.9642 -1.24373,-12.49688 -1.7153,-21.46987 -0.68439,-13.02277 -0.18462,-40.74699 1.15033,-63.81255 0.23148,-3.99976 0.25107,-5.16149 0.0895,-5.30969 -0.11374,-0.10429 -3.93528,-0.16052 -8.49229,-0.12489 l -8.2855,0.0648 0.0173,5.86925 c 0.0324,10.9706 0.69977,49.77249 1.1063,64.31205 0.41393,14.80384 -0.29535,23.1356 -2.64875,31.11454 -2.15363,7.30167 -4.94456,11.74744 -8.78054,13.98679 -1.15184,0.67241 -3.84512,0.92465 -5.19613,0.4866 -2.70207,-0.87608 -5.91993,-4.09078 -7.79647,-7.78883 -1.58187,-3.11739 -2.12866,-5.76266 -2.13435,-10.32598 -0.007,-5.87107 1.08965,-11.09526 4.56862,-21.7575 0.62234,-1.9073 1.55228,-4.76031 2.06655,-6.34001 0.51427,-1.57969 1.18504,-3.99608 1.49059,-5.36975 1.19078,-5.35335 2.2586,-14.75582 2.62366,-23.10237 0.0992,-2.26654 0.255,-5.71109 0.34638,-7.65458 0.35691,-7.59091 0.18857,-21.56762 -0.35584,-29.54278 -0.27407,-4.01496 -0.26213,-3.96705 -1.06886,-4.29029 -0.84787,-0.33973 -4.35794,-0.32251 -6.07377,0.0297 -3.66794,0.75308 -8.78449,3.01659 -14.22786,6.29425 -4.1752,2.51401 -5.58486,3.18961 -6.66109,3.19239 -1.19302,0.003 -1.65466,-0.52598 -1.65466,-1.89628 0,-3.4653 6.89441,-17.78183 12.32565,-25.59474 4.19145,-6.02945 8.13235,-9.69422 12.28217,-11.4216 l 1.61225,-0.67111 36.4026,0 36.40263,0 1.18784,0.59813 c 3.27059,1.64686 5.02688,4.87329 5.79237,10.64086 0.44721,3.36961 0.21663,7.7743 -0.55744,10.64829 -0.95979,3.56356 -3.06925,6.40177 -5.8288,7.84241 -0.87957,0.45918 -1.52287,0.49152 -11.15352,0.56066 l -10.22011,0.0733 -0.16518,0.92737 c -0.69916,3.92531 -2.23449,18.76394 -2.79645,27.02682 -0.49167,7.22947 -0.60412,9.85609 -0.71644,16.73364 -0.31102,19.04682 1.5971,33.13211 5.5218,40.76045 1.86509,3.62516 3.83176,5.5557 6.45085,6.3324 3.91121,1.15987 8.49025,-1.64832 11.42273,-7.00526 1.28549,-2.34826 1.5193,-3.5409 1.63903,-8.35989 0.1021,-4.11191 0.1022,-4.1122 0.54738,-4.47915 0.39667,-0.32696 0.52803,-0.32044 1.20446,0.0598 1.31711,0.74028 2.19755,2.17377 3.26449,5.31522 2.49011,7.33163 1.59208,17.53917 -2.23132,25.36271 -3.62851,7.42478 -9.66785,12.61227 -16.68386,14.3306 -1.76944,0.43338 -5.42874,0.42271 -7.07578,-0.0205 z"
       id="path4290"
       inkscape:connector-curvature="0" />
    <text
       xml:space="preserve"
       style="font-style:normal;font-weight:normal;font-size:58.95855713px;line-height:125%;font-family:sans-serif;letter-spacing:0px;word-spacing:0px;fill:#000000;fill-opacity:1;stroke:none;stroke-width:1px;stroke-linecap:butt;stroke-linejoin:miter;stroke-opacity:1"
       x="-168.27229"
       y="271.45963"
       id="text3351"
       sodipodi:linespacing="125%"><tspan
         sodipodi:role="line"
         id="tspan3353"
         x="-168.27229"
         y="271.45963"
         style="font-style:normal;font-variant:normal;font-weight:500;font-stretch:normal;font-size:265.31350708px;line-height:125%;font-family:'Big Caslon';-inkscape-font-specification:'Big Caslon, Medium';text-align:start;writing-mode:lr-tb;text-anchor:start">Pi</tspan></text>
    <text
       xml:space="preserve"
       style="font-style:normal;font-weight:normal;font-size:40px;line-height:125%;font-family:sans-serif;letter-spacing:0px;word-spacing:0px;fill:#000000;fill-opacity:1;stroke:none;stroke-width:1px;stroke-linecap:butt;stroke-linejoin:miter;stroke-opacity:1"
       x="-401.56079"
       y="134.86745"
       id="text3355"
       sodipodi:linespacing="125%"><tspan
         sodipodi:role="line"
         id="tspan3357"
         x="-401.56079"
         y="134.86745"></tspan></text>
  </g>
</svg>
