<?xml version="1.0" encoding="UTF-8" standalone="no"?>
<!-- Created with Inkscape (http://www.inkscape.org/) -->

<svg
   xmlns:osb="http://www.openswatchbook.org/uri/2009/osb"
   xmlns:dc="http://purl.org/dc/elements/1.1/"
   xmlns:cc="http://creativecommons.org/ns#"
   xmlns:rdf="http://www.w3.org/1999/02/22-rdf-syntax-ns#"
   xmlns:svg="http://www.w3.org/2000/svg"
   xmlns="http://www.w3.org/2000/svg"
   xmlns:xlink="http://www.w3.org/1999/xlink"
   xmlns:sodipodi="http://sodipodi.sourceforge.net/DTD/sodipodi-0.dtd"
   xmlns:inkscape="http://www.inkscape.org/namespaces/inkscape"
   id="svg2"
   version="1.1"
   inkscape:version="0.91 r13725"
   width="427.01782"
   height="427.01782"
   viewBox="0 0 427.01782 427.01783"
   sodipodi:docname="Pimail.svg">
  <metadata
     id="metadata8">
    <rdf:RDF>
      <cc:Work
         rdf:about="">
        <dc:format>image/svg+xml</dc:format>
        <dc:type
           rdf:resource="http://purl.org/dc/dcmitype/StillImage" />
        <dc:title></dc:title>
      </cc:Work>
    </rdf:RDF>
  </metadata>
  <defs
     id="defs6">
    <linearGradient
       id="linearGradient6280"
       osb:paint="solid">
      <stop
         style="stop-color:#f6d5ff;stop-opacity:1;"
         offset="0"
         id="stop6282" />
    </linearGradient>
    <linearGradient
       id="linearGradient5986"
       osb:paint="solid">
      <stop
         style="stop-color:#ffffff;stop-opacity:1;"
         offset="0"
         id="stop5988" />
    </linearGradient>
    <linearGradient
       id="linearGradient5965"
       osb:paint="solid">
      <stop
         style="stop-color:#008000;stop-opacity:1;"
         offset="0"
         id="stop5967" />
    </linearGradient>
    <linearGradient
       id="linearGradient5931"
       osb:paint="solid">
      <stop
         style="stop-color:#0000ff;stop-opacity:1;"
         offset="0"
         id="stop5933" />
    </linearGradient>
    <linearGradient
       id="linearGradient5619"
       osb:paint="solid">
      <stop
         style="stop-color:#d40000;stop-opacity:1;"
         offset="0"
         id="stop5621" />
    </linearGradient>
    <linearGradient
       inkscape:collect="always"
       xlink:href="#linearGradient5986"
       id="linearGradient5990"
       x1="5.157845"
       y1="217.13371"
       x2="419.81836"
       y2="217.13371"
       gradientUnits="userSpaceOnUse"
       gradientTransform="translate(-4.587842e-7,-1.0416083)" />
  </defs>
  <sodipodi:namedview
     pagecolor="#ffffff"
     bordercolor="#666666"
     borderopacity="1"
     objecttolerance="10"
     gridtolerance="10"
     guidetolerance="10"
     inkscape:pageopacity="0"
     inkscape:pageshadow="2"
     inkscape:window-width="1440"
     inkscape:window-height="762"
     id="namedview4"
     showgrid="false"
     fit-margin-top="0"
     fit-margin-left="0"
     fit-margin-right="0"
     fit-margin-bottom="0"
     inkscape:zoom="0.96005381"
     inkscape:cx="93.534161"
     inkscape:cy="202.84443"
     inkscape:window-x="19"
     inkscape:window-y="4"
     inkscape:window-maximized="0"
     inkscape:current-layer="layer4"
     inkscape:showpageshadow="false"
     borderlayer="false"
     showborder="true" />
  <g
     inkscape:groupmode="layer"
     id="layer5"
     inkscape:label="Layer 5"
     transform="translate(1.5416354,-2.5831968)"
     style="display:inline">
    <circle
       style="opacity:1;fill:#11002b;fill-opacity:1;fill-rule:evenodd;stroke:#ffffff;stroke-width:1.13890433;stroke-opacity:0"
       id="path4139"
       cx="211.96727"
       cy="216.0921"
       r="212.93945" />
  </g>
  <g
     inkscape:groupmode="layer"
     id="layer4"
     inkscape:label="Layer 4"
     style="display:inline"
     transform="translate(1.5416354,-2.5831968)">
    <circle
       style="opacity:1;fill:#ffffff;fill-opacity:1;fill-rule:evenodd;stroke:url(#linearGradient5990);stroke-width:11.62834072;stroke-miterlimit:4;stroke-dasharray:279.08018478, 11.62834103;stroke-dashoffset:0;stroke-opacity:0"
       id="path5961"
       cx="212.4881"
       cy="216.0921"
       r="201.51608" />
  </g>
  <g
     inkscape:groupmode="layer"
     id="layer3"
     inkscape:label="Layer 3"
     style="display:inline"
     transform="translate(1.5416354,-2.5831968)">
    <text
       xml:space="preserve"
       style="font-style:normal;font-weight:normal;font-size:95.14273071px;line-height:125%;font-family:sans-serif;letter-spacing:0px;word-spacing:0px;fill:#000080;fill-opacity:1;stroke:none;stroke-width:1px;stroke-linecap:butt;stroke-linejoin:miter;stroke-opacity:1"
       x="71.366096"
       y="358.5076"
       id="text4292"
       sodipodi:linespacing="125%"><tspan
         sodipodi:role="line"
         id="tspan4294"
         x="71.366096"
         y="358.5076">PiMail</tspan></text>
  </g>
  <path
     style="fill:#000000"
     d=""
     id="path4140"
     inkscape:connector-curvature="0" />
  <path
     style="fill:#000000"
     d=""
     id="path4138"
     inkscape:connector-curvature="0" />
  <g
     inkscape:groupmode="layer"
     id="layer2"
     inkscape:label="Layer 2"
     transform="translate(1.5416354,-2.5831968)">
    <path
       style="fill:#000080"
       d="m 80.944485,175.8229 0,-95.999999 127.999995,0 128,0 0,95.999999 0,95.99999 -128,0 -127.999995,0 0,-95.99999 z m 193.829805,46.00565 c -17.2314,-17.59689 -31.79107,-31.99689 -32.35484,-32 -0.56376,-0.003 -4.35692,3.34862 -8.42924,7.4483 -8.76082,8.81968 -14.39415,11.65673 -23.4089,11.78916 -10.38776,0.1526 -15.75683,-2.32788 -25.62055,-11.83654 l -8.62343,-8.31301 -26.96211,27.20321 c -14.82916,14.96177 -29.18813,29.56572 -31.90883,32.45322 l -4.94672,5.25 96.79221,0 96.79221,0 -31.3298,-31.99434 z m -137.65196,-19.23491 26.02114,-26.72923 -31.34949,-32.02056 c -17.24222,-17.61131 -31.687,-32.02065 -32.099497,-32.02075 -0.4125,-1.1e-4 -0.75,29.12321 -0.75,64.7185 l 0,64.71868 6.078347,-5.96869 c 3.3431,-3.28279 17.78787,-17.99686 32.0995,-32.69795 z m 181.82215,-26.01479 0,-64.24405 -31.5,31.4881 c -17.325,17.31845 -31.5,31.88597 -31.5,32.37227 0,0.69893 61.79649,64.27179 62.75,64.55378 0.1375,0.0407 0.25,-28.83588 0.25,-64.1701 z m -57.75,-31.59605 c 25.1625,-25.08554 45.75,-45.958783 45.75,-46.384986 0,-0.426203 -43.98567,-0.774914 -97.74592,-0.774914 l -97.74592,0 45.99592,46.02502 c 31.92251,31.9427 46.89615,46.2617 48.93814,46.79858 7.23323,1.90179 6.40008,2.59594 54.80778,-45.6637 z"
       id="path4226"
       inkscape:connector-curvature="0" />
  </g>
  <g
     inkscape:groupmode="layer"
     id="layer1"
     inkscape:label="Layer 1"
     transform="translate(1.5416354,-2.5831968)">
    <path
       style="fill:#ff00ff"
       d="m 230.62375,249.96545 c -6.56413,-1.82035 -11.2648,-7.17835 -14.27633,-16.27274 -0.81849,-2.47172 -1.78775,-6.81919 -2.21893,-9.95269 -0.54549,-3.9642 -1.20714,-12.49688 -1.66484,-21.46987 -0.66426,-13.02277 -0.17919,-40.74699 1.11649,-63.81255 0.22467,-3.99976 0.24369,-5.16149 0.0869,-5.30969 -0.1104,-0.10429 -3.81953,-0.16052 -8.24249,-0.12489 l -8.04178,0.0648 0.0168,5.86925 c 0.0314,10.9706 0.67919,49.77249 1.07376,64.31205 0.40175,14.80384 -0.28666,23.1356 -2.57084,31.11454 -2.09028,7.30167 -4.79911,11.74744 -8.52226,13.98679 -1.11796,0.67241 -3.73201,0.92465 -5.04328,0.4866 -2.62259,-0.87608 -5.7458,-4.09078 -7.56714,-7.78883 -1.53534,-3.11739 -2.06604,-5.76266 -2.07157,-10.32598 -0.007,-5.87107 1.0576,-11.09526 4.43424,-21.7575 0.60403,-1.9073 1.50662,-4.76031 2.00576,-6.34001 0.49914,-1.57969 1.15018,-3.99608 1.44674,-5.36975 1.15576,-5.35335 2.19217,-14.75582 2.54649,-23.10237 0.0963,-2.26654 0.2475,-5.71109 0.33619,-7.65458 0.34641,-7.59091 0.18302,-21.56762 -0.34537,-29.54278 -0.26601,-4.01496 -0.25442,-3.96705 -1.03742,-4.29029 -0.82293,-0.33973 -4.22975,-0.32251 -5.89511,0.0297 -3.56005,0.75308 -8.5261,3.01659 -13.80935,6.29425 -4.05238,2.51401 -5.42058,3.18961 -6.46515,3.19239 -1.15793,0.003 -1.60599,-0.52598 -1.60599,-1.89628 0,-3.4653 6.69161,-17.78183 11.96309,-25.59474 4.06816,-6.02945 7.89314,-9.69422 11.92089,-11.4216 l 1.56482,-0.67111 35.33182,0 35.33184,0 1.1529,0.59813 c 3.17438,1.64686 4.87901,4.87329 5.62198,10.64086 0.43406,3.36961 0.21026,7.7743 -0.54104,10.64829 -0.93156,3.56356 -2.97897,6.40177 -5.65734,7.84241 -0.8537,0.45918 -1.47808,0.49152 -10.82544,0.56066 l -9.91949,0.0733 -0.16032,0.92737 c -0.67859,3.92531 -2.16876,18.76394 -2.71419,27.02682 -0.47721,7.22947 -0.58635,9.85609 -0.69536,16.73364 -0.30188,19.04682 1.55012,33.13211 5.35937,40.76045 1.81023,3.62516 3.71905,5.5557 6.2611,6.3324 3.79616,1.15987 8.24051,-1.64832 11.08673,-7.00526 1.24767,-2.34826 1.47461,-3.5409 1.59081,-8.35989 0.0991,-4.11191 0.0992,-4.1122 0.53128,-4.47915 0.38501,-0.32696 0.5125,-0.32044 1.16903,0.0598 1.27837,0.74028 2.13291,2.17377 3.16847,5.31522 2.41686,7.33163 1.54525,17.53917 -2.16569,25.36271 -3.52177,7.42478 -9.38347,12.61227 -16.1931,14.3306 -1.71739,0.43338 -5.26905,0.42271 -6.86764,-0.0205 z"
       id="path4290"
       inkscape:connector-curvature="0" />
  </g>
</svg>
