<svg xmlns="http://www.w3.org/2000/svg" width="24" height="24" viewBox="0 0 24 24" version="1.1"><g stroke="none" stroke-width="1" fill="none" fill-rule="evenodd"><path d="M24 12C24 5.4 18.6 0 12 0 5.4 0 0 5.4 0 12 0 18.6 5.4 24 12 24 18.6 24 24 18.6 24 12M16.4 9.6C16.9 9.7 17.5 9.9 18 10 18.9 10.3 20 9.5 20 10 20 10.2 20.6 9.3 20.6 9.1 20.6 8.6 20.1 6.7 19.8 6.3 19.4 6 15.9 5 12.1 5 8.2 5 4.6 6 4.4 6.3 4.1 6.7 3.8 8.4 3.8 9.1 3.8 9.8 3.8 10 4 10 4 10 5.6 10.1 6 10 6.3 9.9 7.2 9.7 7.9 9.5 7.7 9.7 7.6 9.8 7.6 9.8 7.4 9.9 7.1 10.2 6.9 10.6L6 15.6 6 17.6 6 18.1 6 18.5C6 18.6 6.2 19 6.6 19 7.1 19 8 18.6 8 18.5L8 18 16 18 16 18.5C16 18.6 16.5 19 16.9 19 17.4 19 18 18.6 18 18.5L18 18 18 17.6 18 15.5 17.1 10.6C17 10.3 16.8 9.9 16.6 9.8 16.6 9.8 16.6 9.7 16.4 9.6L16.4 9.6 16.4 9.6ZM15.7 9.2C15.7 9 15.7 8.7 15.7 8.3 15.8 7.8 16 7.6 15.9 7.4 15.6 6.9 14.6 6.8 12.3 6.8 9.8 6.8 8.6 6.8 8.3 7.4 8.2 7.7 8.5 7.9 8.5 8.4 8.6 8.7 8.6 9 8.5 9.2 8.6 9.2 8.7 9.2 8.7 9.1L10 8 14.2 8 15.4 9.1C15.5 9.1 15.6 9.2 15.7 9.2L15.7 9.2 15.7 9.2ZM15.4 12C15.4 10.9 13.9 10.1 12 10.1 10.1 10.1 8.6 10.9 8.6 12 8.6 13.1 10.1 13.9 12 13.9 13.9 13.9 15.4 13.1 15.4 12L15.4 12Z" fill="#F1802E"/></g></svg>