<?xml version="1.0" encoding="UTF-8" standalone="no"?>
<svg
   xmlns:dc="http://purl.org/dc/elements/1.1/"
   xmlns:cc="http://creativecommons.org/ns#"
   xmlns:rdf="http://www.w3.org/1999/02/22-rdf-syntax-ns#"
   xmlns:svg="http://www.w3.org/2000/svg"
   xmlns="http://www.w3.org/2000/svg"
   xmlns:sodipodi="http://sodipodi.sourceforge.net/DTD/sodipodi-0.dtd"
   xmlns:inkscape="http://www.inkscape.org/namespaces/inkscape"
   width="160"
   height="160"
   viewBox="0 0 160 160"
   id="svg2"
   version="1.1"
   inkscape:version="0.91 r13725"
   sodipodi:docname="home.svg">
  <metadata
     id="metadata20">
    <rdf:RDF>
      <cc:Work
         rdf:about="">
        <dc:format>image/svg+xml</dc:format>
        <dc:type
           rdf:resource="http://purl.org/dc/dcmitype/StillImage" />
      </cc:Work>
    </rdf:RDF>
  </metadata>
  <defs
     id="defs18" />
  <sodipodi:namedview
     pagecolor="#ffffff"
     bordercolor="#666666"
     borderopacity="1"
     objecttolerance="10"
     gridtolerance="10"
     guidetolerance="10"
     inkscape:pageopacity="0"
     inkscape:pageshadow="2"
     inkscape:window-width="1210"
     inkscape:window-height="856"
     id="namedview16"
     showgrid="false"
     inkscape:zoom="1.475"
     inkscape:cx="-43.896532"
     inkscape:cy="115.20222"
     inkscape:window-x="282"
     inkscape:window-y="6"
     inkscape:window-maximized="0"
     inkscape:current-layer="svg2" />
  <g
     fill="none"
     id="g4"
     style="fill:#daae23;fill-opacity:1">
    <path
       d="M160 80c0-44.183-35.817-80-80-80s-80 35.817-80 80 35.817 80 80 80 80-35.817 80-80"
       fill="#DAAE23"
       id="path6"
       style="fill:#daae23;fill-opacity:1" />
    <path
       d="M135.255 64.654s-2.991-2.838-15.901-2.838c-10.599 0-16.277 2.083-16.277 2.838 0 .757-3.597 9.654-1.893 27.825 0 0 .814 4.164-3.974 2.84-14.386-3.977-22.138-16.091-38.046-23.85-14.32-6.985-25.349-7.383-39.937-6.625 0 0-.893-1.373-2.78-.971-3.156.671-4.81 5.28-2.523 6.551 2.016 1.12 3.789-.091 3.789-.091s22.713-3.028 40.506 18.361c16.258 19.545 30.851 30.662 52.619 30.284 9.512-.165 19.352-5.129 23.117-13.98 3.807-8.952 4.254-32.23 1.3-40.344"
       fill="#1A1918"
       id="path8"
       style="fill:#daae23;fill-opacity:1" />
    <path
       d="M135.515 65.442l-.003-.012c-.075-.243-.151-.472-.23-.694l-.067-.115c-.383-.318-3.774-2.805-15.861-2.805-10.599 0-16.277 2.083-16.277 2.838 0 .134-.115.533-.288 1.175.738 2.226 7.76 3.975 16.326 3.975 9.059 0 16.4-1.955 16.4-4.362"
       fill="#fff"
       id="path10"
       style="fill:#daae23;fill-opacity:1" />
    <path
       d="M51.088 81.537l4.813-11.562c-1.971-.852-3.885-1.578-5.764-2.198l-4.166 10.005c1.703 1.09 3.415 2.337 5.117 3.755"
       fill="#fff"
       id="path12"
       style="fill:#daae23;fill-opacity:1" />
    <path
       d="M108.918 65.812c0 .912 4.669 1.653 10.43 1.653 5.759 0 10.427-.741 10.427-1.653 0-.915-4.668-1.657-10.427-1.657-5.761 0-10.43.742-10.43 1.657"
       fill="#1A1918"
       id="path14"
       style="fill:#daae23;fill-opacity:1" />
  </g>
  <path
     inkscape:connector-curvature="0"
     d="m 123.67576,31.600794 c -33.529002,-3.623 -58.938998,32.868 -61.757998,54.81 10.061,-14.313 27.289996,-34.559 46.097998,-45.602 -16.742002,11.952 -34.024998,30.547 -46.374998,49.72 -0.558,0.867 -1.106,1.736 -1.644,2.604 -0.082,0.131 -0.161,0.263 -0.241,0.394 -0.24,0.392 -0.473,0.783 -0.71,1.175 l -13.54,0 c -0.761,0 -1.382,0.622 -1.382,1.382 l 0,3.574 c 0,0.759996 0.622,1.380996 1.382,1.380996 l 1.641,0 0,5.119 -7.124,0 c -1.9,0 -3.641,1.544 -3.867,3.43 l -1.612,13.371 c -0.227,1.886 1.142,3.43 3.042,3.43 l 40.865,0 c 1.9,0 3.268,-1.544 3.042,-3.43 l -1.611,-13.371 c -0.228,-1.886 -1.968,-3.43 -3.868,-3.43 l -7.123,0 0,-5.119 1.639,0 c 0.761,0 1.382,-0.621 1.382,-1.380996 l 0,-3.574 c 0,-0.76 -0.622,-1.382 -1.382,-1.382 l -8.3,0 c 0.798,-1.361 1.627,-2.737 2.499,-4.132 12.549,0.06 22.305996,-3.002 30.011996,-8.1 -4.937,-2.48 -12.687996,-5.291 -18.217996,-6.404 6.659,0.2 12.625996,0.215 22.198996,3.449 10.196002,-8.455 16.326002,-20.815 20.717002,-33.702 -3.957,-0.662 -8.125,-1.104 -11.434,-1.12 3.994,-0.66 7.729,-1.335 12.29,-1.467 1.246,-3.878 2.354,-7.784 3.381,-11.625 z m -51.764998,76.670996 1.949,16.329 -4.874,0 -1.95,-16.329 4.875,0 z m -7.036,-12.715996 1.949,0 0,4.630996 -1.949,0 0,-4.630996 z m -0.732,7.757996 1.543,0 0,2.845 -1.543,0 0,-2.845 z"
     id="path3"
     style="fill:#ffffff" />
  <path
     style="fill:#ffffff;fill-opacity:0"
     d="m 35.576486,125.15531 c -1.062661,-1.28043 0.318136,-14.86984 1.738123,-17.10611 0.799595,-1.25924 1.669572,-1.52589 5.529883,-1.69491 l 4.58101,-0.20058 0.205497,-2.45984 c 0.18064,-2.1623 -0.0087,-2.51359 -1.564988,-2.9042 -1.56541,-0.39289 -1.746269,-0.7362 -1.561428,-2.963889 l 0.209054,-2.519526 7.265596,-0.338983 7.265597,-0.338984 4.824618,-7.118644 c 2.653539,-3.915254 7.163682,-10.016949 10.022539,-13.559322 6.674396,-8.270157 21.280448,-23.00982 28.248773,-28.507177 6.53285,-5.153815 4.90653,-4.805631 -2.67336,0.572348 -7.060192,5.009248 -24.341757,22.272656 -31.185833,31.153069 -2.944727,3.820879 -5.501099,6.800003 -5.680826,6.620276 -0.76088,-0.760879 3.692978,-12.324827 6.905151,-17.928462 C 81.828789,44.711983 100.03955,31.962878 118.17697,31.926445 l 4.98875,-0.01002 -0.45551,1.864407 c -0.25052,1.025424 -0.90622,3.434485 -1.45711,5.35347 -1.1058,3.852008 -0.7255,3.660602 -9.42082,4.741523 -3.53576,0.439532 -3.80177,0.566739 -2.0339,0.972583 1.11865,0.256801 3.25424,0.50768 4.74577,0.557507 4.30002,0.143651 4.58593,0.607922 2.98533,4.84763 -3.72006,9.853735 -9.61373,19.711277 -15.21563,25.449084 l -3.469584,3.553767 -4.692433,-1.332427 c -2.580838,-0.732835 -7.590738,-1.47997 -11.133111,-1.660303 l -6.440678,-0.327875 6.911015,2.355462 c 3.801058,1.295504 7.76716,2.807406 8.81356,3.359782 l 1.902544,1.004321 -5.084746,2.405727 c -6.337371,2.998377 -11.601864,4.373954 -18.88782,4.93526 -5.412077,0.416944 -5.725279,0.531151 -6.950003,2.534283 -1.266808,2.071964 -1.265898,2.100318 0.07426,2.314308 1.090186,0.174076 1.356781,0.740235 1.356781,2.881356 0,2.257057 0.21833,2.664711 1.427143,2.664711 1.256125,0 1.396152,-0.32497 1.168525,-2.711864 -0.254117,-2.664671 -0.219961,-2.711864 1.962688,-2.711864 2.133202,0 2.221306,0.105748 2.221306,2.666177 0,2.070751 -0.302817,2.762291 -1.355933,3.096531 -1.053116,0.33425 -1.355932,1.02579 -1.355932,3.09654 l 0,2.66618 4.301703,0 c 5.8562,0 6.277151,0.57277 7.321135,9.96154 0.688045,6.18775 0.678868,7.74716 -0.05077,8.62632 -0.778197,0.93767 -3.608686,1.07315 -22.41953,1.07315 -18.131974,0 -21.659628,-0.15753 -22.35749,-0.9984 z m 38.623261,-0.52702 c -0.003,-0.0932 -0.460606,-3.81892 -1.01695,-8.27932 -0.556343,-4.4604 -1.011532,-8.19769 -1.011532,-8.30508 0,-0.1074 -1.220339,-0.19526 -2.711865,-0.19526 -1.491525,0 -2.711864,0.25657 -2.711864,0.57017 0,0.76154 1.312108,11.39615 1.748997,14.17559 0.323183,2.05605 0.525628,2.20339 3.027486,2.20339 1.474629,0 2.678707,-0.0763 2.675728,-0.16949 z M 66.06957,104.79778 c 0,-1.05462 -0.384181,-1.69492 -1.016949,-1.69492 -0.632769,0 -1.01695,0.6403 -1.01695,1.69492 0,1.05462 0.384181,1.69492 1.01695,1.69492 0.632768,0 1.016949,-0.6403 1.016949,-1.69492 z"
     id="path3592"
     inkscape:connector-curvature="0" />
  <path
     style="fill:#ffffff;fill-opacity:0"
     d="m 35.576486,125.15531 c -1.062661,-1.28043 0.318136,-14.86984 1.738123,-17.10611 0.799595,-1.25924 1.669572,-1.52589 5.529883,-1.69491 l 4.58101,-0.20058 0.205497,-2.45984 c 0.18064,-2.1623 -0.0087,-2.51359 -1.564988,-2.9042 -1.56541,-0.39289 -1.746269,-0.7362 -1.561428,-2.963889 l 0.209054,-2.519526 7.265596,-0.338983 7.265597,-0.338984 4.824618,-7.118644 c 2.653539,-3.915254 7.163682,-10.016949 10.022539,-13.559322 6.674396,-8.270157 21.280448,-23.00982 28.248773,-28.507177 6.53285,-5.153815 4.90653,-4.805631 -2.67336,0.572348 -7.060192,5.009248 -24.341757,22.272656 -31.185833,31.153069 -2.944727,3.820879 -5.501099,6.800003 -5.680826,6.620276 -0.76088,-0.760879 3.692978,-12.324827 6.905151,-17.928462 C 81.828789,44.711983 100.03955,31.962878 118.17697,31.926445 l 4.98875,-0.01002 -0.45551,1.864407 c -0.25052,1.025424 -0.90622,3.434485 -1.45711,5.35347 -1.1058,3.852008 -0.7255,3.660602 -9.42082,4.741523 -3.53576,0.439532 -3.80177,0.566739 -2.0339,0.972583 1.11865,0.256801 3.25424,0.50768 4.74577,0.557507 4.30002,0.143651 4.58593,0.607922 2.98533,4.84763 -3.72006,9.853735 -9.61373,19.711277 -15.21563,25.449084 l -3.469584,3.553767 -4.692433,-1.332427 c -2.580838,-0.732835 -7.590738,-1.47997 -11.133111,-1.660303 l -6.440678,-0.327875 6.911015,2.355462 c 3.801058,1.295504 7.76716,2.807406 8.81356,3.359782 l 1.902544,1.004321 -5.084746,2.405727 c -6.337371,2.998377 -11.601864,4.373954 -18.88782,4.93526 -5.412077,0.416944 -5.725279,0.531151 -6.950003,2.534283 -1.266808,2.071964 -1.265898,2.100318 0.07426,2.314308 1.090186,0.174076 1.356781,0.740235 1.356781,2.881356 0,2.257057 0.21833,2.664711 1.427143,2.664711 1.256125,0 1.396152,-0.32497 1.168525,-2.711864 -0.254117,-2.664671 -0.219961,-2.711864 1.962688,-2.711864 2.133202,0 2.221306,0.105748 2.221306,2.666177 0,2.070751 -0.302817,2.762291 -1.355933,3.096531 -1.053116,0.33425 -1.355932,1.02579 -1.355932,3.09654 l 0,2.66618 4.301703,0 c 5.8562,0 6.277151,0.57277 7.321135,9.96154 0.688045,6.18775 0.678868,7.74716 -0.05077,8.62632 -0.778197,0.93767 -3.608686,1.07315 -22.41953,1.07315 -18.131974,0 -21.659628,-0.15753 -22.35749,-0.9984 z m 38.623261,-0.52702 c -0.003,-0.0932 -0.460606,-3.81892 -1.01695,-8.27932 -0.556343,-4.4604 -1.011532,-8.19769 -1.011532,-8.30508 0,-0.1074 -1.220339,-0.19526 -2.711865,-0.19526 -1.491525,0 -2.711864,0.25657 -2.711864,0.57017 0,0.76154 1.312108,11.39615 1.748997,14.17559 0.323183,2.05605 0.525628,2.20339 3.027486,2.20339 1.474629,0 2.678707,-0.0763 2.675728,-0.16949 z M 66.06957,104.79778 c 0,-1.05462 -0.384181,-1.69492 -1.016949,-1.69492 -0.632769,0 -1.01695,0.6403 -1.01695,1.69492 0,1.05462 0.384181,1.69492 1.01695,1.69492 0.632768,0 1.016949,-0.6403 1.016949,-1.69492 z"
     id="path3594"
     inkscape:connector-curvature="0" />
  <path
     style="fill:#ffffff;fill-opacity:0"
     d="M 73.188214,159.24648 C 49.72091,157.63152 26.520571,143.80329 13.33178,123.5699 -3.7494314,97.365007 -4.0227626,64.438732 12.617514,37.527291 16.871511,30.647525 28.341316,18.619156 34.701894,14.367431 50.654047,3.7042213 69.884905,-1.2571039 87.638146,0.71052542 106.0372,2.7497311 120.98936,9.5266444 134.05155,21.746933 c 7.69622,7.200175 13.19138,14.546481 17.46232,23.344814 19.37297,39.90928 3.06642,86.946093 -36.93463,106.539153 -12.7116,6.22631 -26.013772,8.6738 -41.391026,7.61558 z m 7.4092,-33.48018 c 1.274352,-1.27435 1.285518,-1.6958 0.279403,-10.54375 -0.978664,-8.60656 -1.60463,-9.40782 -7.34962,-9.40782 l -4.067797,0 0,-2.29381 c 0,-1.74637 0.333519,-2.38102 1.397485,-2.65926 1.185024,-0.30989 1.365397,-0.8115 1.186441,-3.299412 l -0.211044,-2.93396 -4.237289,-0.201844 c -2.330508,-0.11101 -4.237288,-0.434054 -4.237288,-0.717878 0,-1.742867 2.047469,-2.678657 6.75078,-3.085417 2.780725,-0.240481 7.051912,-0.896942 9.491525,-1.4588 4.599926,-1.059383 14.944136,-5.53604 14.944136,-6.467369 0,-0.777851 -1.014698,-1.299166 -7.430136,-3.817308 l -5.790203,-2.272726 4.508027,0.378488 c 2.47941,0.208177 5.987885,0.827471 7.79661,1.376217 5.146841,1.561498 5.890156,1.355105 9.552886,-2.652502 4.11041,-4.497444 7.4709,-9.49988 10.68807,-15.910307 2.7785,-5.536353 5.95959,-13.671026 5.51855,-14.112058 -0.16185,-0.161851 -2.08063,-0.48983 -4.26395,-0.728843 l -3.96968,-0.434568 4.71981,-0.710254 4.71981,-0.710254 1.54754,-5.084746 c 0.85115,-2.79661 1.54927,-5.509916 1.55138,-6.029568 0.003,-0.770743 -1.27652,-0.876083 -6.94532,-0.571737 -17.780031,0.954573 -34.893441,12.698561 -46.198296,31.703325 -4.807495,8.08196 -9.250193,19.908461 -8.417337,22.407024 0.140836,0.422509 1.922166,-1.475539 3.95851,-4.217878 6.861898,-9.240915 23.029885,-27.01998 24.571519,-27.01998 0.365349,0 -2.348983,3.13135 -6.031844,6.958556 -8.223268,8.545566 -14.422421,16.211512 -20.806596,25.729716 l -4.87257,7.264535 -7.275219,0.0236 c -7.103865,0.02305 -7.284831,0.0619 -7.683309,1.649553 -0.707106,2.817335 -0.09027,4.795755 1.568697,5.031365 1.243371,0.17659 1.525424,0.64668 1.525424,2.54237 l 0,2.32573 -4.357573,0 c -6.014163,0 -6.680406,0.93378 -7.758529,10.87411 -1.198742,11.05245 -3.263196,10.14284 23.02021,10.14284 18.679146,0 21.68297,-0.14156 22.606787,-1.06538 z"
     id="path3596"
     inkscape:connector-curvature="0" />
</svg>
