<?xml version="1.0" encoding="UTF-8" standalone="no"?>
<svg
   xmlns:dc="http://purl.org/dc/elements/1.1/"
   xmlns:cc="http://creativecommons.org/ns#"
   xmlns:rdf="http://www.w3.org/1999/02/22-rdf-syntax-ns#"
   xmlns:svg="http://www.w3.org/2000/svg"
   xmlns="http://www.w3.org/2000/svg"
   xmlns:sodipodi="http://sodipodi.sourceforge.net/DTD/sodipodi-0.dtd"
   xmlns:inkscape="http://www.inkscape.org/namespaces/inkscape"
   width="160"
   height="160"
   viewBox="0 0 160 160"
   id="svg2"
   version="1.1"
   inkscape:version="0.91 r13725"
   sodipodi:docname="Pipe.svg">
  <metadata
     id="metadata20">
    <rdf:RDF>
      <cc:Work
         rdf:about="">
        <dc:format>image/svg+xml</dc:format>
        <dc:type
           rdf:resource="http://purl.org/dc/dcmitype/StillImage" />
      </cc:Work>
    </rdf:RDF>
  </metadata>
  <defs
     id="defs18" />
  <sodipodi:namedview
     pagecolor="#ffffff"
     bordercolor="#666666"
     borderopacity="1"
     objecttolerance="10"
     gridtolerance="10"
     guidetolerance="10"
     inkscape:pageopacity="0"
     inkscape:pageshadow="2"
     inkscape:window-width="1210"
     inkscape:window-height="856"
     id="namedview16"
     showgrid="false"
     inkscape:zoom="1.475"
     inkscape:cx="-43.896532"
     inkscape:cy="115.20222"
     inkscape:window-x="282"
     inkscape:window-y="6"
     inkscape:window-maximized="0"
     inkscape:current-layer="svg2" />
  <g
     fill="none"
     id="g4"
     style="fill:#daae23;fill-opacity:1">
    <path
       d="M160 80c0-44.183-35.817-80-80-80s-80 35.817-80 80 35.817 80 80 80 80-35.817 80-80"
       fill="#DAAE23"
       id="path6"
       style="fill:#daae23;fill-opacity:1" />
    <path
       d="M135.255 64.654s-2.991-2.838-15.901-2.838c-10.599 0-16.277 2.083-16.277 2.838 0 .757-3.597 9.654-1.893 27.825 0 0 .814 4.164-3.974 2.84-14.386-3.977-22.138-16.091-38.046-23.85-14.32-6.985-25.349-7.383-39.937-6.625 0 0-.893-1.373-2.78-.971-3.156.671-4.81 5.28-2.523 6.551 2.016 1.12 3.789-.091 3.789-.091s22.713-3.028 40.506 18.361c16.258 19.545 30.851 30.662 52.619 30.284 9.512-.165 19.352-5.129 23.117-13.98 3.807-8.952 4.254-32.23 1.3-40.344"
       fill="#1A1918"
       id="path8"
       style="fill:#daae23;fill-opacity:1" />
    <path
       d="M135.515 65.442l-.003-.012c-.075-.243-.151-.472-.23-.694l-.067-.115c-.383-.318-3.774-2.805-15.861-2.805-10.599 0-16.277 2.083-16.277 2.838 0 .134-.115.533-.288 1.175.738 2.226 7.76 3.975 16.326 3.975 9.059 0 16.4-1.955 16.4-4.362"
       fill="#fff"
       id="path10"
       style="fill:#daae23;fill-opacity:1" />
    <path
       d="M51.088 81.537l4.813-11.562c-1.971-.852-3.885-1.578-5.764-2.198l-4.166 10.005c1.703 1.09 3.415 2.337 5.117 3.755"
       fill="#fff"
       id="path12"
       style="fill:#daae23;fill-opacity:1" />
    <path
       d="M108.918 65.812c0 .912 4.669 1.653 10.43 1.653 5.759 0 10.427-.741 10.427-1.653 0-.915-4.668-1.657-10.427-1.657-5.761 0-10.43.742-10.43 1.657"
       fill="#1A1918"
       id="path14"
       style="fill:#daae23;fill-opacity:1" />
  </g>
  <path
     inkscape:connector-curvature="0"
     d="m 123.67576,31.600794 c -33.529002,-3.623 -58.938998,32.868 -61.757998,54.81 10.061,-14.313 27.289996,-34.559 46.097998,-45.602 -16.742002,11.952 -34.024998,30.547 -46.374998,49.72 -0.558,0.867 -1.106,1.736 -1.644,2.604 -0.082,0.131 -0.161,0.263 -0.241,0.394 -0.24,0.392 -0.473,0.783 -0.71,1.175 l -13.54,0 c -0.761,0 -1.382,0.622 -1.382,1.382 l 0,3.574 c 0,0.759996 0.622,1.380996 1.382,1.380996 l 1.641,0 0,5.119 -7.124,0 c -1.9,0 -3.641,1.544 -3.867,3.43 l -1.612,13.371 c -0.227,1.886 1.142,3.43 3.042,3.43 l 40.865,0 c 1.9,0 3.268,-1.544 3.042,-3.43 l -1.611,-13.371 c -0.228,-1.886 -1.968,-3.43 -3.868,-3.43 l -7.123,0 0,-5.119 1.639,0 c 0.761,0 1.382,-0.621 1.382,-1.380996 l 0,-3.574 c 0,-0.76 -0.622,-1.382 -1.382,-1.382 l -8.3,0 c 0.798,-1.361 1.627,-2.737 2.499,-4.132 12.549,0.06 22.305996,-3.002 30.011996,-8.1 -4.937,-2.48 -12.687996,-5.291 -18.217996,-6.404 6.659,0.2 12.625996,0.215 22.198996,3.449 10.196002,-8.455 16.326002,-20.815 20.717002,-33.702 -3.957,-0.662 -8.125,-1.104 -11.434,-1.12 3.994,-0.66 7.729,-1.335 12.29,-1.467 1.246,-3.878 2.354,-7.784 3.381,-11.625 z m -51.764998,76.670996 1.949,16.329 -4.874,0 -1.95,-16.329 4.875,0 z m -7.036,-12.715996 1.949,0 0,4.630996 -1.949,0 0,-4.630996 z m -0.732,7.757996 1.543,0 0,2.845 -1.543,0 0,-2.845 z"
     id="path3" />
</svg>
