<svg width="24" height="24" viewBox="0 0 24 24" xmlns="http://www.w3.org/2000/svg"><g transform="translate(0 -192) translate(0 192)" fill="none"><rect fill="#F3ECE3" x="1" y="1" width="22" height="22" rx="5"/><path d="M2 5.992v12.016c0 2.208 1.786 3.992 3.992 3.992h12.016c2.208 0 3.992-1.786 3.992-3.992v-12.016c0-2.208-1.786-3.992-3.992-3.992h-12.016c-2.208 0-3.992 1.786-3.992 3.992zm-1 0c0-2.757 2.231-4.992 4.992-4.992h12.016c2.757 0 4.992 2.231 4.992 4.992v12.016c0 2.757-2.231 4.992-4.992 4.992h-12.016c-2.757 0-4.992-2.231-4.992-4.992v-12.016z" fill="#9F8979"/><path d="M1.034 4h-.034v3.983h22v-3.983h-.034c-.239-1.693-1.693-3-3.452-3h-15.028c-1.755 0-3.212 1.304-3.452 3z" fill="#9E785A"/><path d="M20 3.45c0-.317-.254-.574-.567-.574h-1.911c-.313 0-.567.257-.567.574v1.976c0 .317.254.574.567.574h1.911c.313 0 .567-.257.567-.574v-1.976z" fill="#000"/><circle fill="#000" cx="12" cy="13" r="6"/><path fill="#FB2F4C" d="M3 1h1v6h-1z"/><path fill="#FCC840" d="M4 1h1v6h-1z"/><path fill="#73C796" d="M5 1h1v6h-1z"/><path fill="#418DFE" d="M6 1h1v6h-1z"/><circle fill="#6E838B" cx="12.5" cy="11.5" r="2.5"/><ellipse fill="#6E838B" cx="12" cy="17" rx="3" ry="1"/></g></svg>