<?xml version="1.0" encoding="UTF-8" standalone="no"?>
<svg
   xmlns:dc="http://purl.org/dc/elements/1.1/"
   xmlns:cc="http://creativecommons.org/ns#"
   xmlns:rdf="http://www.w3.org/1999/02/22-rdf-syntax-ns#"
   xmlns:svg="http://www.w3.org/2000/svg"
   xmlns="http://www.w3.org/2000/svg"
   xmlns:sodipodi="http://sodipodi.sourceforge.net/DTD/sodipodi-0.dtd"
   xmlns:inkscape="http://www.inkscape.org/namespaces/inkscape"
   width="160"
   height="160"
   viewBox="0 0 160 160"
   id="svg2"
   version="1.1"
   inkscape:version="0.91 r13725"
   sodipodi:docname="home.svg">
  <metadata
     id="metadata20">
    <rdf:RDF>
      <cc:Work
         rdf:about="">
        <dc:format>image/svg+xml</dc:format>
        <dc:type
           rdf:resource="http://purl.org/dc/dcmitype/StillImage" />
      </cc:Work>
    </rdf:RDF>
  </metadata>
  <defs
     id="defs18" />
  <sodipodi:namedview
     pagecolor="#ffffff"
     bordercolor="#666666"
     borderopacity="1"
     objecttolerance="10"
     gridtolerance="10"
     guidetolerance="10"
     inkscape:pageopacity="0"
     inkscape:pageshadow="2"
     inkscape:window-width="1210"
     inkscape:window-height="856"
     id="namedview16"
     showgrid="false"
     inkscape:zoom="1.475"
     inkscape:cx="-43.896532"
     inkscape:cy="115.20222"
     inkscape:window-x="282"
     inkscape:window-y="6"
     inkscape:window-maximized="0"
     inkscape:current-layer="svg2" />
  <g
     fill="none"
     id="g4"
     style="fill:#0000ff;fill-opacity:1">
    <path
       d="M160 80c0-44.183-35.817-80-80-80s-80 35.817-80 80 35.817 80 80 80 80-35.817 80-80"
       fill="#DAAE23"
       id="path6"
       style="fill:#0000ff;fill-opacity:1" />
    <path
       d="M135.255 64.654s-2.991-2.838-15.901-2.838c-10.599 0-16.277 2.083-16.277 2.838 0 .757-3.597 9.654-1.893 27.825 0 0 .814 4.164-3.974 2.84-14.386-3.977-22.138-16.091-38.046-23.85-14.32-6.985-25.349-7.383-39.937-6.625 0 0-.893-1.373-2.78-.971-3.156.671-4.81 5.28-2.523 6.551 2.016 1.12 3.789-.091 3.789-.091s22.713-3.028 40.506 18.361c16.258 19.545 30.851 30.662 52.619 30.284 9.512-.165 19.352-5.129 23.117-13.98 3.807-8.952 4.254-32.23 1.3-40.344"
       fill="#1A1918"
       id="path8"
       style="fill:#0000ff;fill-opacity:1" />
    <path
       d="M135.515 65.442l-.003-.012c-.075-.243-.151-.472-.23-.694l-.067-.115c-.383-.318-3.774-2.805-15.861-2.805-10.599 0-16.277 2.083-16.277 2.838 0 .134-.115.533-.288 1.175.738 2.226 7.76 3.975 16.326 3.975 9.059 0 16.4-1.955 16.4-4.362"
       fill="#fff"
       id="path10"
       style="fill:#0000ff;fill-opacity:1" />
    <path
       d="M51.088 81.537l4.813-11.562c-1.971-.852-3.885-1.578-5.764-2.198l-4.166 10.005c1.703 1.09 3.415 2.337 5.117 3.755"
       fill="#fff"
       id="path12"
       style="fill:#0000ff;fill-opacity:1" />
    <path
       d="M108.918 65.812c0 .912 4.669 1.653 10.43 1.653 5.759 0 10.427-.741 10.427-1.653 0-.915-4.668-1.657-10.427-1.657-5.761 0-10.43.742-10.43 1.657"
       fill="#1A1918"
       id="path14"
       style="fill:#0000ff;fill-opacity:1" />
  </g>
  <g
     transform="matrix(4.2485876,0,0,4.2541966,12.36158,2.9957377)"
     id="g11">
    <path
       inkscape:connector-curvature="0"
       d="m 27,14 -3,0 0,-2.667 c 0,-4.411 -3.589,-8 -8,-8 -4.411,0 -8,3.589 -8,8 L 8,14 5,14 c -0.552,0 -1,0.448 -1,1 0,0.552 0.448,1 1,1 l 21,0 0,12 -20,0 0,-9 C 6,18.447 5.552,18 5,18 4.448,18 4,18.447 4,19 l 0,10 c 0,0.553 0.448,1 1,1 l 22,0 c 0.553,0 1,-0.447 1,-1 l 0,-14 c 0,-0.552 -0.447,-1 -1,-1 z M 10,11.333 c 0,-3.309 2.691,-6 6,-6 3.309,0 6,2.691 6,6 L 22,14 10,14 10,11.333 Z"
       id="path13" />
    <path
       inkscape:connector-curvature="0"
       d="m 20,22 c 0,-2.206 -1.794,-4 -4,-4 -2.206,0 -4,1.794 -4,4 0,2.206 1.794,4 4,4 2.206,0 4,-1.794 4,-4 z m -6,0 c 0,-1.103 0.897,-2 2,-2 1.103,0 2,0.897 2,2 0,1.103 -0.897,2 -2,2 -1.103,0 -2,-0.897 -2,-2 z"
       id="path15" />
  </g>
</svg>
