<?xml version="1.0" encoding="UTF-8" standalone="no"?>
<svg
   xmlns:dc="http://purl.org/dc/elements/1.1/"
   xmlns:cc="http://creativecommons.org/ns#"
   xmlns:rdf="http://www.w3.org/1999/02/22-rdf-syntax-ns#"
   xmlns:svg="http://www.w3.org/2000/svg"
   xmlns="http://www.w3.org/2000/svg"
   version="1.1"
   id="svg2"
   viewBox="0 0 160 160"
   height="160"
   width="160">
  <metadata
     id="metadata20">
    <rdf:RDF>
      <cc:Work
         rdf:about="">
        <dc:format>image/svg+xml</dc:format>
        <dc:type
           rdf:resource="http://purl.org/dc/dcmitype/StillImage" />
        <dc:title></dc:title>
      </cc:Work>
    </rdf:RDF>
  </metadata>
  <defs
     id="defs18">
    <linearGradient
       id="linearGradient3684">
      <stop
         id="stop3686"
         offset="0"
         style="stop-color:#000000;stop-opacity:1;" />
      <stop
         style="stop-color:#000000;stop-opacity:0.86666667;"
         offset="0.89795917"
         id="stop3692" />
      <stop
         id="stop3688"
         offset="1"
         style="stop-color:#000000;stop-opacity:0;" />
    </linearGradient>
  </defs>
  <path
     id="path3430"
     d="M 71.91206,158.48924 C 39.41716,155.78274 10.87432,130.63108 3.07033,97.82662 1.34039,90.55471 1.08988,87.23713 1.47756,76.73326 2.01604,62.14351 3.48702,56.07866 9.38416,44.13444 17.23323,28.23673 29.06107,16.37813 44.83965,8.58673 57.2205,2.47312 66.24911,0.38054 80.31484,0.36456 c 21.31975,-0.0242 39.57264,7.16728 55.00651,21.67215 24.45994,22.98763 31.42384,60.78852 16.86125,91.52483 -14.70067,31.02771 -44.81187,47.88105 -80.27054,44.9277 z m -22.18899,-40.42363 19.82042,-17.15377 4.90628,1.14537 c 8.90348,2.07852 19.65357,2.32334 29.16436,0.66417 20.1236,-3.51057 34.31093,-13.15749 41.07333,-27.92851 7.75746,-16.94453 -1.61239,-36.81841 -22.08808,-46.84981 -10.68422,-5.2344 -17.54978,-6.71328 -31.25847,-6.7333 -9.6159,-0.014 -13.49434,0.41271 -19.62151,2.15899 -15.67186,4.46657 -27.69351,13.44926 -33.3346,24.90794 -2.76894,5.62451 -3.12791,7.25784 -3.08887,14.05458 0.0551,9.5906 3.09553,16.55441 10.61932,24.32229 l 5.08027,5.2451 -3.18871,5.84034 c -8.82032,16.155 -19.81537,38.14124 -18.91897,37.83128 0.55815,-0.19299 9.934,-8.07009 20.83523,-17.50467 z"
     style="fill:#aa0000;fill-opacity:0" />
  <path
     id="path3432"
     d="M 71.91206,158.48924 C 39.41716,155.78274 10.87432,130.63108 3.07033,97.82662 1.34039,90.55471 1.08988,87.23713 1.47756,76.73326 2.01604,62.14351 3.48702,56.07866 9.38416,44.13444 17.23323,28.23673 29.06107,16.37813 44.83965,8.58673 57.2205,2.47312 66.24911,0.38054 80.31484,0.36456 c 21.31975,-0.0242 39.57264,7.16728 55.00651,21.67215 24.45994,22.98763 31.42384,60.78852 16.86125,91.52483 -14.70067,31.02771 -44.81187,47.88105 -80.27054,44.9277 z m -22.18899,-40.42363 19.82042,-17.15377 4.90628,1.14537 c 8.90348,2.07852 19.65357,2.32334 29.16436,0.66417 20.1236,-3.51057 34.31093,-13.15749 41.07333,-27.92851 7.75746,-16.94453 -1.61239,-36.81841 -22.08808,-46.84981 -10.68422,-5.2344 -17.54978,-6.71328 -31.25847,-6.7333 -9.6159,-0.014 -13.49434,0.41271 -19.62151,2.15899 -15.67186,4.46657 -27.69351,13.44926 -33.3346,24.90794 -2.76894,5.62451 -3.12791,7.25784 -3.08887,14.05458 0.0551,9.5906 3.09553,16.55441 10.61932,24.32229 l 5.08027,5.2451 -3.18871,5.84034 c -8.82032,16.155 -19.81537,38.14124 -18.91897,37.83128 0.55815,-0.19299 9.934,-8.07009 20.83523,-17.50467 z"
     style="fill:#aa0000;fill-opacity:0" />
  <g
     transform="matrix(1,0,0,-1,0,160)"
     style="fill:#ff5555;fill-opacity:1"
     id="g4">
    <path
       style="fill:#ff5555;fill-opacity:1"
       id="path6"
       d="M 160,80 C 160,35.817 124.183,0 80,0 35.817,0 0,35.817 0,80 c 0,44.183 35.817,80 80,80 44.183,0 80,-35.817 80,-80" />
    <path
       style="fill:#ff5555;fill-opacity:1"
       id="path8"
       d="m 135.255,64.654 c 0,0 -2.991,-2.838 -15.901,-2.838 -10.599,0 -16.277,2.083 -16.277,2.838 0,0.757 -3.597,9.654 -1.893,27.825 0,0 0.814,4.164 -3.974,2.84 C 82.824,91.342 75.072,79.228 59.164,71.469 44.844,64.484 33.815,64.086 19.227,64.844 c 0,0 -0.893,-1.373 -2.78,-0.971 -3.156,0.671 -4.81,5.28 -2.523,6.551 2.016,1.12 3.789,-0.091 3.789,-0.091 0,0 22.713,-3.028 40.506,18.361 16.258,19.545 30.851,30.662 52.619,30.284 9.512,-0.165 19.352,-5.129 23.117,-13.98 3.807,-8.952 4.254,-32.23 1.3,-40.344" />
    <path
       style="fill:#ff5555;fill-opacity:1"
       id="path10"
       d="m 135.515,65.442 -0.003,-0.012 c -0.075,-0.243 -0.151,-0.472 -0.23,-0.694 l -0.067,-0.115 c -0.383,-0.318 -3.774,-2.805 -15.861,-2.805 -10.599,0 -16.277,2.083 -16.277,2.838 0,0.134 -0.115,0.533 -0.288,1.175 0.738,2.226 7.76,3.975 16.326,3.975 9.059,0 16.4,-1.955 16.4,-4.362" />
    <path
       style="fill:#ff5555;fill-opacity:1"
       id="path12"
       d="M 51.088,81.537 55.901,69.975 C 53.93,69.123 52.016,68.397 50.137,67.777 l -4.166,10.005 c 1.703,1.09 3.415,2.337 5.117,3.755" />
    <path
       style="fill:#ff5555;fill-opacity:1"
       id="path14"
       d="m 108.918,65.812 c 0,0.912 4.669,1.653 10.43,1.653 5.759,0 10.427,-0.741 10.427,-1.653 0,-0.915 -4.668,-1.657 -10.427,-1.657 -5.761,0 -10.43,0.742 -10.43,1.657" />
  </g>
  <path
     id="path3500"
     d="m 50.04242,140.48631 c -9.01239,-1.86341 -17.37815,-8.78885 -20.4121,-16.89783 -1.80493,-4.82412 -1.95299,-7.39407 -1.95299,-33.89969 l 0,-28.67985 5.51303,-0.28754 5.51304,-0.28755 0.5217,-12.46425 c 0.60331,-14.41434 1.79165,-17.599 9.67878,-25.93848 19.80745,-20.94345 58.68386,-15.37896 70.69281,10.11846 2.15619,4.57804 2.53076,6.82196 2.84079,17.0185 l 0.35712,11.74517 5.7166,0 5.71658,0 -0.30214,29.48275 c -0.28285,27.60023 -0.43105,29.76137 -2.32103,33.84603 -2.93498,6.34317 -7.16289,10.69946 -13.49605,13.90582 l -5.57842,2.82427 -29.24306,0.17078 c -16.08368,0.094 -31.04378,-0.20154 -33.24466,-0.65659 z m 43.19572,-18.02253 c 0.26199,-0.4239 -0.53012,-5.92495 -1.76024,-12.22456 -1.76191,-9.02294 -1.97942,-11.60161 -1.02488,-12.15019 2.06027,-1.18404 3.63558,-6.27371 2.99637,-9.68098 -1.3635,-7.2681 -11.53614,-11.6057 -18.59932,-7.93073 -7.08016,3.6838 -9.22739,10.37942 -5.11318,15.94419 l 2.16975,2.93475 -1.98009,10.3496 c -1.08905,5.69228 -1.98009,11.06489 -1.98009,11.93914 0,1.39828 1.49276,1.58952 12.40767,1.58952 6.82422,0 12.62203,-0.34683 12.88401,-0.77074 z M 110.76666,49.38282 C 110.05937,36.22866 108.75933,32.67879 102.61712,27.12967 98.05099,23.00444 96.11893,21.91396 90.18653,20.11366 77.44579,16.24723 61.97806,21.12551 54.98573,31.21544 50.56889,37.58895 49.62601,41.77502 50.33511,51.86278 l 0.63619,9.05047 30.20767,0 30.20767,0 -0.61998,-11.53043 z"
     style="fill:#000000;fill-opacity:0" />
  <path
     id="path3502"
     d="m 50.04242,140.48631 c -9.01239,-1.86341 -17.37815,-8.78885 -20.4121,-16.89783 -1.80493,-4.82412 -1.95299,-7.39407 -1.95299,-33.89969 l 0,-28.67985 5.51303,-0.28754 5.51304,-0.28755 0.5217,-12.46425 c 0.60331,-14.41434 1.79165,-17.599 9.67878,-25.93848 19.80745,-20.94345 58.68386,-15.37896 70.69281,10.11846 2.15619,4.57804 2.53076,6.82196 2.84079,17.0185 l 0.35712,11.74517 5.7166,0 5.71658,0 -0.30214,29.48275 c -0.28285,27.60023 -0.43105,29.76137 -2.32103,33.84603 -2.93498,6.34317 -7.16289,10.69946 -13.49605,13.90582 l -5.57842,2.82427 -29.24306,0.17078 c -16.08368,0.094 -31.04378,-0.20154 -33.24466,-0.65659 z m 43.19572,-18.02253 c 0.26199,-0.4239 -0.53012,-5.92495 -1.76024,-12.22456 -1.76191,-9.02294 -1.97942,-11.60161 -1.02488,-12.15019 2.06027,-1.18404 3.63558,-6.27371 2.99637,-9.68098 -1.3635,-7.2681 -11.53614,-11.6057 -18.59932,-7.93073 -7.08016,3.6838 -9.22739,10.37942 -5.11318,15.94419 l 2.16975,2.93475 -1.98009,10.3496 c -1.08905,5.69228 -1.98009,11.06489 -1.98009,11.93914 0,1.39828 1.49276,1.58952 12.40767,1.58952 6.82422,0 12.62203,-0.34683 12.88401,-0.77074 z M 110.76666,49.38282 C 110.05937,36.22866 108.75933,32.67879 102.61712,27.12967 98.05099,23.00444 96.11893,21.91396 90.18653,20.11366 77.44579,16.24723 61.97806,21.12551 54.98573,31.21544 50.56889,37.58895 49.62601,41.77502 50.33511,51.86278 l 0.63619,9.05047 30.20767,0 30.20767,0 -0.61998,-11.53043 z"
     style="fill:#000000;fill-opacity:0" />
  <path
     id="path3504"
     d="m 50.04242,140.48631 c -9.01239,-1.86341 -17.37815,-8.78885 -20.4121,-16.89783 -1.80493,-4.82412 -1.95299,-7.39407 -1.95299,-33.89969 l 0,-28.67985 5.51303,-0.28754 5.51304,-0.28755 0.5217,-12.46425 c 0.60331,-14.41434 1.79165,-17.599 9.67878,-25.93848 19.80745,-20.94345 58.68386,-15.37896 70.69281,10.11846 2.15619,4.57804 2.53076,6.82196 2.84079,17.0185 l 0.35712,11.74517 5.7166,0 5.71658,0 -0.30214,29.48275 c -0.28285,27.60023 -0.43105,29.76137 -2.32103,33.84603 -2.93498,6.34317 -7.16289,10.69946 -13.49605,13.90582 l -5.57842,2.82427 -29.24306,0.17078 c -16.08368,0.094 -31.04378,-0.20154 -33.24466,-0.65659 z m 43.19572,-18.02253 c 0.26199,-0.4239 -0.53012,-5.92495 -1.76024,-12.22456 -1.76191,-9.02294 -1.97942,-11.60161 -1.02488,-12.15019 2.06027,-1.18404 3.63558,-6.27371 2.99637,-9.68098 -1.3635,-7.2681 -11.53614,-11.6057 -18.59932,-7.93073 -7.08016,3.6838 -9.22739,10.37942 -5.11318,15.94419 l 2.16975,2.93475 -1.98009,10.3496 c -1.08905,5.69228 -1.98009,11.06489 -1.98009,11.93914 0,1.39828 1.49276,1.58952 12.40767,1.58952 6.82422,0 12.62203,-0.34683 12.88401,-0.77074 z M 110.76666,49.38282 C 110.05937,36.22866 108.75933,32.67879 102.61712,27.12967 98.05099,23.00444 96.11893,21.91396 90.18653,20.11366 77.44579,16.24723 61.97806,21.12551 54.98573,31.21544 50.56889,37.58895 49.62601,41.77502 50.33511,51.86278 l 0.63619,9.05047 30.20767,0 30.20767,0 -0.61998,-11.53043 z"
     style="fill:#000000;fill-opacity:0" />
  <path
     id="path3506"
     d="m 39.66219,145.3719 c -9.91066,-1.85332 -18.37126,-8.52737 -21.53734,-16.98948 -1.80493,-4.82411 -1.95299,-7.39407 -1.95299,-33.89968 l 0,-28.67986 5.51304,-0.28754 5.51303,-0.28754 0.49986,-12.46426 c 0.46122,-11.50073 0.71749,-12.85999 3.31508,-17.58357 3.47777,-6.32415 11.32687,-13.63019 17.99975,-16.7544 22.0591,-10.32795 49.67109,-1.76789 59.00372,18.29188 2.23752,4.80939 2.60336,6.97309 2.91567,17.24458 l 0.35712,11.74516 5.72728,0 5.72729,0 -0.31284,29.48276 -0.31283,29.48276 -2.7244,5.54821 c -2.89669,5.89909 -9.43935,11.69385 -15.97198,14.1462 -3.79699,1.42539 -57.02475,2.26421 -63.75946,1.00478 z m 42.07049,-18.11417 c 0.26199,-0.4239 -0.48457,-5.70954 -1.65903,-11.74585 l -2.13536,-10.97511 2.27752,-3.35508 c 4.01593,-5.91597 1.66483,-13.00912 -5.28733,-15.95166 -6.06512,-2.56709 -11.72697,-1.22972 -16.52197,3.9026 -3.03268,3.24603 -3.10418,8.12101 -0.17718,12.07999 l 2.17184,2.93758 -1.98009,10.3496 c -1.08905,5.69229 -1.98009,11.0649 -1.98009,11.93914 0,1.39829 1.49276,1.58953 12.40767,1.58953 6.82422,0 12.62203,-0.34683 12.88402,-0.77074 z M 99.30379,54.26216 C 98.64147,41.08939 97.31274,37.52592 90.90449,31.73645 77.10187,19.26662 53.91115,21.43899 43.31462,36.1944 39.08278,42.08713 38.12951,46.49397 38.84898,56.83839 l 0.61685,8.8688 30.2067,0 30.20671,0 -0.57545,-11.44503 z"
     style="fill:#000000;fill-opacity:0" />
  <path
     id="path4417"
     d="M 56.11411,131.02085 C 49.29135,129.49587 42.95813,123.82821 40.66129,117.19199 39.29488,113.24401 39.1828,111.14082 39.1828,89.44913 l 0,-23.47104 4.1736,-0.23532 4.17359,-0.23533 0.39495,-10.2005 c 0.45674,-11.79642 1.35636,-14.40269 7.32725,-21.22756 14.99506,-17.13972 44.42614,-12.58585 53.51742,8.28075 1.63233,3.74658 1.91589,5.58297 2.15059,13.92762 l 0.27036,9.61202 4.3277,0 4.3277,0 -0.22874,24.12812 c -0.21413,22.58751 -0.32632,24.35615 -1.75711,27.69895 -2.22191,5.19112 -5.4226,8.75624 -10.21707,11.38026 l -4.22311,2.31133 -22.13822,0.13976 c -12.17603,0.077 -23.50144,-0.16494 -25.1676,-0.53734 z m 32.70097,-14.74929 c 0.19834,-0.34692 -0.40132,-4.84887 -1.33258,-10.00435 -1.33384,-7.38421 -1.49851,-9.49454 -0.77588,-9.94348 1.55971,-0.969 2.75229,-5.13429 2.26838,-7.92274 -1.03223,-5.94807 -8.73334,-9.49788 -14.08047,-6.49035 -5.35997,3.01475 -6.98552,8.49431 -3.87089,13.04842 l 1.64259,2.40175 -1.49901,8.46991 c -0.82445,4.65845 -1.499,9.05529 -1.499,9.77075 0,1.14434 1.13007,1.30084 9.39313,1.30084 5.16621,0 9.55539,-0.28384 9.75373,-0.63075 z M 102.0849,56.46349 C 101.54945,45.69837 100.56527,42.79323 95.91536,38.25194 92.4586,34.87593 90.99595,33.9835 86.50488,32.51017 c -9.64528,-3.16422 -21.355,0.82808 -26.64848,9.08548 -3.34373,5.21596 -4.05753,8.64176 -3.52072,16.89739 l 0.48163,7.40673 22.86847,0 22.86848,0 -0.46936,-9.43628 z"
     style="fill:#ffffff;fill-opacity:0.98039216" />
</svg>
