<?xml version="1.0" encoding="UTF-8" standalone="no"?>
<svg
   xmlns:dc="http://purl.org/dc/elements/1.1/"
   xmlns:cc="http://creativecommons.org/ns#"
   xmlns:rdf="http://www.w3.org/1999/02/22-rdf-syntax-ns#"
   xmlns:svg="http://www.w3.org/2000/svg"
   xmlns="http://www.w3.org/2000/svg"
   xmlns:sodipodi="http://sodipodi.sourceforge.net/DTD/sodipodi-0.dtd"
   xmlns:inkscape="http://www.inkscape.org/namespaces/inkscape"
   version="1.1"
   id="svg2"
   viewBox="0 0 160 160"
   height="160"
   width="160"
   inkscape:version="0.91 r13725"
   sodipodi:docname="members.svg">
  <sodipodi:namedview
     pagecolor="#ffffff"
     bordercolor="#666666"
     borderopacity="1"
     objecttolerance="10"
     gridtolerance="10"
     guidetolerance="10"
     inkscape:pageopacity="0"
     inkscape:pageshadow="2"
     inkscape:window-width="1317"
     inkscape:window-height="792"
     id="namedview23"
     showgrid="false"
     inkscape:zoom="2.085965"
     inkscape:cx="27.0766"
     inkscape:cy="38.208125"
     inkscape:window-x="65"
     inkscape:window-y="51"
     inkscape:window-maximized="0"
     inkscape:current-layer="svg2" />
  <metadata
     id="metadata20">
    <rdf:RDF>
      <cc:Work
         rdf:about="">
        <dc:format>image/svg+xml</dc:format>
        <dc:type
           rdf:resource="http://purl.org/dc/dcmitype/StillImage" />
        <dc:title />
      </cc:Work>
    </rdf:RDF>
  </metadata>
  <defs
     id="defs18">
    <linearGradient
       id="linearGradient3684">
      <stop
         id="stop3686"
         offset="0"
         style="stop-color:#000000;stop-opacity:1;" />
      <stop
         style="stop-color:#000000;stop-opacity:0.86666667;"
         offset="0.89795917"
         id="stop3692" />
      <stop
         id="stop3688"
         offset="1"
         style="stop-color:#000000;stop-opacity:0;" />
    </linearGradient>
  </defs>
  <g
     transform="matrix(1,0,0,-1,0.68025881,160.47939)"
     style="fill:#800080;fill-opacity:1"
     id="g4">
    <path
       style="fill:#800080;fill-opacity:1"
       id="path6"
       d="M 160,80 C 160,35.817 124.183,0 80,0 35.817,0 0,35.817 0,80 c 0,44.183 35.817,80 80,80 44.183,0 80,-35.817 80,-80"
       inkscape:connector-curvature="0" />
    <path
       style="fill:#800080;fill-opacity:1"
       id="path8"
       d="m 135.255,64.654 c 0,0 -2.991,-2.838 -15.901,-2.838 -10.599,0 -16.277,2.083 -16.277,2.838 0,0.757 -3.597,9.654 -1.893,27.825 0,0 0.814,4.164 -3.974,2.84 C 82.824,91.342 75.072,79.228 59.164,71.469 44.844,64.484 33.815,64.086 19.227,64.844 c 0,0 -0.893,-1.373 -2.78,-0.971 -3.156,0.671 -4.81,5.28 -2.523,6.551 2.016,1.12 3.789,-0.091 3.789,-0.091 0,0 22.713,-3.028 40.506,18.361 16.258,19.545 30.851,30.662 52.619,30.284 9.512,-0.165 19.352,-5.129 23.117,-13.98 3.807,-8.952 4.254,-32.23 1.3,-40.344"
       inkscape:connector-curvature="0" />
    <path
       style="fill:#800080;fill-opacity:1"
       id="path10"
       d="m 135.515,65.442 -0.003,-0.012 c -0.075,-0.243 -0.151,-0.472 -0.23,-0.694 l -0.067,-0.115 c -0.383,-0.318 -3.774,-2.805 -15.861,-2.805 -10.599,0 -16.277,2.083 -16.277,2.838 0,0.134 -0.115,0.533 -0.288,1.175 0.738,2.226 7.76,3.975 16.326,3.975 9.059,0 16.4,-1.955 16.4,-4.362"
       inkscape:connector-curvature="0" />
    <path
       style="fill:#800080;fill-opacity:1"
       id="path12"
       d="M 51.088,81.537 55.901,69.975 C 53.93,69.123 52.016,68.397 50.137,67.777 l -4.166,10.005 c 1.703,1.09 3.415,2.337 5.117,3.755"
       inkscape:connector-curvature="0" />
    <path
       style="fill:#800080;fill-opacity:1"
       id="path14"
       d="m 108.918,65.812 c 0,0.912 4.669,1.653 10.43,1.653 5.759,0 10.427,-0.741 10.427,-1.653 0,-0.915 -4.668,-1.657 -10.427,-1.657 -5.761,0 -10.43,0.742 -10.43,1.657"
       inkscape:connector-curvature="0" />
  </g>
  <path
     style="fill:#ffffff"
     d="m 49.719373,141.37914 c -0.584536,-0.21449 -2.400356,-0.98642 -4.035162,-1.71537 -1.634804,-0.72896 -3.26966,-1.32537 -3.633011,-1.32537 -0.363355,0 -1.030443,-0.44557 -1.482409,-0.99017 -1.066346,-1.28487 1.516504,-6.49484 3.47353,-7.00662 1.045237,-0.27334 3.551468,-4.44115 3.551468,-5.90603 0,-0.14726 -2.486097,-0.26773 -5.524666,-0.26773 l -5.524666,0 0.289724,4.55008 c 0.256935,4.0351 0.120405,4.65582 -1.206344,5.48438 -0.822838,0.51387 -1.49607,1.32466 -1.49607,1.80174 0,1.81107 -4.559352,2.98728 -7.381593,1.90428 -1.57275,-0.60352 -1.396949,-2.43072 0.58059,-6.03458 0.935732,-1.70526 1.917576,-4.1367 2.18188,-5.40319 l 0.480551,-2.30271 -3.91246,0 -3.912461,0 -0.271213,3.01124 c -0.21881,2.42937 -0.295139,2.17152 -0.395007,-1.33443 -0.108893,-3.82292 -0.31555,-4.40903 -1.71797,-4.8725 l -1.594186,-0.52685 1.661628,-0.32243 c 1.307022,-0.25363 1.573696,-0.65024 1.249592,-1.85851 -0.226615,-0.84484 -0.454104,-2.81141 -0.505531,-4.37017 -0.09042,-2.74065 -0.111341,-2.76401 -0.63437,-0.70853 -0.761537,2.99279 -0.767591,0.11815 -0.0089,-4.25117 0.338308,-1.94844 0.430263,-6.81072 0.204356,-10.805039 l -0.410747,-7.262406 -2.017909,0 c -2.778063,0 -2.55041,-1.267511 0.284806,-1.585713 l 2.302714,-0.258443 -1.771319,-0.804337 -1.771318,-0.804327 1.771318,-0.05578 c 1.417248,-0.04467 1.558879,-0.195213 0.708528,-0.75343 -0.706119,-0.463542 -0.810918,-0.876019 -0.312274,-1.229075 0.510894,-0.361734 0.584371,-3.811583 0.230142,-10.805045 -0.286207,-5.650507 -0.54423,-11.78813 -0.573387,-13.639155 -0.03832,-2.433424 -0.335768,-3.365505 -1.073985,-3.365505 -1.34138,0 -1.923132,-1.01451 -1.385365,-2.415909 0.319778,-0.833325 1.407663,-1.126729 4.17766,-1.126729 2.761608,0 3.85825,-0.29436 4.175358,-1.120744 0.987313,-2.572882 0.496049,-3.130423 -2.758303,-3.130423 -2.542889,0 -3.199699,0.251024 -3.244308,1.239923 -0.0445,0.986632 -0.138106,1.022816 -0.458163,0.177132 -0.221219,-0.584535 -0.83372,-1.317762 -1.361114,-1.629394 -1.312863,-0.775752 -1.209406,-3.082562 0.161838,-3.608757 0.616409,-0.236541 3.27711,-0.430069 5.912674,-0.430069 3.837918,0 5.038866,-0.272861 6.032267,-1.370558 0.682187,-0.753806 3.60114,-2.491697 6.486564,-3.861977 2.885419,-1.370281 5.246221,-2.801649 5.246221,-3.180818 0,-0.379169 -0.357568,-2.238474 -0.7946,-4.131792 -0.70652,-3.060824 -0.616662,-3.856018 0.810675,-7.173956 1.042409,-2.423146 2.302426,-4.092072 3.593522,-4.759726 2.043682,-1.056827 6.720434,-1.369887 8.761866,-0.586514 1.268842,0.486899 3.92467,5.227089 3.92467,7.004848 0,0.619412 0.486441,2.066882 1.080987,3.216601 0.59454,1.149718 0.813633,2.090397 0.486872,2.090397 -0.326768,0 -0.574083,1.514478 -0.549591,3.365505 0.0428,3.232482 -0.03951,3.373711 -2.081059,3.573102 -3.962183,0.386966 -4.132625,0.726797 -1.582794,3.155864 2.236385,2.130468 2.486093,2.813781 3.301988,9.035771 0.48546,3.702059 1.214456,8.096262 1.619994,9.764889 0.723537,2.977091 0.768351,3.013566 2.393917,1.948451 2.213122,-1.45009 3.602295,-1.453281 2.400751,-0.0057 -1.44479,1.740864 -0.346548,1.962679 3.681442,0.743553 3.140987,-0.950658 4.301181,-1.805822 6.932486,-5.109828 1.738097,-2.182451 3.282718,-3.60047 3.432489,-3.15115 0.149773,0.449314 -0.126922,1.297988 -0.614876,1.88593 -1.160497,1.398316 0.207231,3.034159 1.608851,1.924224 0.503629,-0.398816 1.778626,-0.880456 2.833332,-1.070319 3.202304,-0.576457 1.24382,1.719892 -3.725986,4.36877 -2.401445,1.279958 -5.02721,3.087349 -5.835031,4.016428 -0.807824,0.92923 -1.834554,1.689384 -2.281629,1.689384 -0.447076,0 -2.849698,0.827634 -5.339163,1.839202 -2.814403,1.143591 -5.339351,1.715395 -6.676036,1.51185 -2.688874,-0.409438 -3.747981,-0.0386 -4.637591,1.623605 -0.602322,1.125442 0.490641,2.264465 7.812265,8.141491 8.804951,7.067681 10.617461,9.314422 10.617461,13.161123 0,2.5296 -4.524844,17.442005 -8.291325,27.325485 l -2.471617,6.48567 -3.297992,-0.10892 -3.297991,-0.10892 -0.65307,3.38115 c -0.576532,2.98489 -0.46663,3.63333 0.93775,5.53286 1.267533,1.71442 1.418614,2.35919 0.743444,3.17272 -0.841147,1.01352 -3.594848,1.26728 -5.633553,0.51913 z M 29.172074,122.39653 c 0,-0.80301 -0.865979,-1.06279 -3.542637,-1.06279 -2.676658,0 -3.542638,0.25978 -3.542638,1.06279 0,0.80299 0.86598,1.06279 3.542638,1.06279 2.676658,0 3.542637,-0.2598 3.542637,-1.06279 z m 18.421715,0.31244 c 0,-0.41269 0.300235,-0.56478 0.667196,-0.33798 0.366955,0.22678 1.223406,-1.35218 1.903223,-3.50879 1.068233,-3.38883 1.114939,-4.39363 0.344039,-7.40151 -0.534207,-2.08437 -0.696942,-4.78102 -0.40572,-6.72304 l 0.486271,-3.24268 -6.12047,0 c -7.3448,0 -7.080503,-0.36455 -7.833718,10.80505 l -0.513626,7.61666 6.090666,0 6.090667,0 0.05594,-1.94845 c 0.03078,-1.07165 0.221317,-1.53622 0.423445,-1.03239 0.202128,0.50383 0.174105,1.68663 -0.06226,2.62842 -0.404841,1.61301 -0.765243,1.72431 -6.211767,1.91805 -3.841614,0.13667 -5.880388,0.50291 -6.075194,1.09135 -0.21839,0.65966 1.168221,0.88566 5.434061,0.88566 3.558594,0 5.727255,-0.28412 5.727255,-0.75035 z m 1.581434,-9.87757 c 0,-1.36391 0.145815,-1.92188 0.32403,-1.23991 0.178214,0.68195 0.178214,1.79788 0,2.47984 -0.178215,0.68196 -0.32403,0.124 -0.32403,-1.23993 z m -20.711676,6.42288 c 0,-0.36433 -0.342491,-1.55997 -0.761083,-2.65698 -0.418598,-1.09702 -1.14489,-4.86411 -1.613986,-8.37133 -0.825004,-6.16814 -0.915996,-6.38408 -2.781555,-6.60093 -1.889359,-0.21963 -1.928651,-0.14603 -1.928651,3.61287 0,2.11038 0.206203,6.27644 0.45823,9.25791 l 0.45823,5.42086 3.084407,0 c 1.696425,0 3.084408,-0.29808 3.084408,-0.6624 z m 29.758955,-19.02591 c 1.920858,-2.598109 1.510683,-3.422259 -2.200613,-4.421619 -1.566679,-0.42186 -3.306823,-0.94289 -3.866984,-1.157843 -1.177148,-0.451711 -1.297031,2.095513 -0.550187,11.690412 l 0.459801,5.90715 2.287416,-4.93839 c 1.258079,-2.71612 2.999838,-5.902 3.870567,-7.07971 z M 24.759507,96.213491 c -0.174768,-4.143895 -0.350274,-4.612453 -1.870655,-4.994173 -0.922786,-0.231672 -1.793153,-0.305869 -1.934155,-0.164866 -0.140997,0.140997 -0.05727,2.388373 0.186065,4.994179 0.410152,4.392209 0.565303,4.737809 2.127017,4.737809 1.619682,0 1.677158,-0.1762 1.491728,-4.572949 z m 25.243276,2.27024 c -0.182863,-5.028669 -0.29409,-5.323598 -2.324974,-6.164819 -1.122863,-0.465105 -3.096661,-0.742916 -4.386221,-0.617354 -2.164761,0.210774 -2.41478,0.50009 -3.258722,3.770923 -1.44038,5.582439 -1.602383,5.398479 4.549682,5.166629 5.48745,-0.2068 5.491042,-0.20822 5.420235,-2.155379 z M 24.03525,88.961586 c -0.68196,-0.178208 -1.797892,-0.178208 -2.479847,0 -0.68196,0.17822 -0.123992,0.324036 1.239923,0.324036 1.363916,0 1.921878,-0.145816 1.239924,-0.324036 z m 1.971236,-9.045329 c 0.365929,-3.417024 0.111358,-6.454572 -1.006398,-12.008232 -0.822929,-4.088799 -1.496234,-8.088386 -1.496234,-8.887974 0,-1.156236 -0.453679,-1.45379 -2.21662,-1.45379 l -2.21662,0 0.463167,8.679463 c 0.883733,16.560362 1.036531,17.417664 3.162726,17.744652 1.028577,0.158183 2.083887,0.335383 2.345141,0.393771 0.261248,0.05839 0.695428,-1.952164 0.964838,-4.46789 z M 105.64794,135.8042 c -0.71135,-0.85712 -0.75445,-1.76417 -0.1852,-3.89691 0.58028,-2.17397 0.54408,-2.77975 -0.1661,-2.77975 -0.49943,0 -1.10323,-0.88865 -1.34178,-1.97478 -0.32683,-1.488 -1.45442,-2.5359 -4.574493,-4.25116 -2.27741,-1.25202 -4.33124,-2.27639 -4.56406,-2.27639 -0.23282,0 -0.91794,0.95652 -1.522491,2.12558 -0.604552,1.16907 -1.538058,2.12559 -2.07447,2.12559 -0.536405,0 -1.312002,0.96592 -1.723557,2.14649 -0.622817,1.78662 -1.029335,2.07596 -2.424602,1.72577 -1.069253,-0.26836 -2.003801,-0.0261 -2.580607,0.66886 -0.49735,0.59928 -1.937404,1.28341 -3.200113,1.5203 -2.550679,0.47851 -7.862321,-0.70736 -8.613675,-1.92308 -0.266275,-0.43084 0.628707,-1.77617 1.99043,-2.99199 3.016936,-2.69368 7.698477,-12.71524 12.572771,-26.913909 1.890571,-5.507201 4.29795,-11.86682 5.349723,-14.132493 1.051774,-2.265672 1.730401,-4.301323 1.508058,-4.523664 -0.222342,-0.222347 -1.371284,-0.0034 -2.5532,0.485857 -1.734312,0.718373 -2.360346,0.714672 -3.244631,-0.01922 -1.293983,-1.073913 -0.232432,-2.068391 2.227079,-2.08637 2.034275,-0.01491 4.483955,-2.711166 3.189841,-3.510975 -0.592435,-0.366145 -0.657868,-0.676298 -0.17772,-0.842405 0.539665,-0.186695 0.533322,-1.783931 -0.02189,-5.510565 -0.577946,-3.879307 -0.570442,-6.394779 0.02877,-9.646812 0.445819,-2.419531 0.810575,-7.29663 0.810575,-10.837993 0,-7.490618 0.77891,-9.684631 3.81743,-10.752814 l 2.205062,-0.77518 -1.678322,-1.275044 c -1.46728,-1.114709 -1.56969,-1.478035 -0.81441,-2.889283 0.47515,-0.887832 0.67797,-2.543933 0.45071,-3.680226 -0.29154,-1.457709 -0.10378,-2.184723 0.63773,-2.469265 0.57801,-0.221803 1.666712,-1.795352 2.419332,-3.496775 1.76832,-3.997576 5.1001,-6.139497 8.55008,-5.496614 3.36319,0.626712 7.14154,2.234561 8.8566,3.768854 0.77937,0.697239 2.05472,1.463291 2.8341,1.702339 0.77938,0.239048 2.16576,1.536778 3.08086,2.883846 2.15938,3.17875 1.41462,6.058834 -1.84586,7.138231 -2.05767,0.681198 -5.13349,3.709428 -5.13064,5.051257 5.7e-4,0.328225 1.4458,1.509388 3.21133,2.624808 4.00789,2.532077 5.47837,5.244227 5.17,9.53558 l -0.23452,3.263925 8.14806,1.95637 c 4.48144,1.075998 8.86545,2.129891 9.74225,2.341984 1.76521,0.426976 2.155,2.313468 0.60122,2.909708 -1.24518,0.477819 -2.02894,3.271696 -1.08197,3.856946 0.38824,0.239947 0.50225,0.966907 0.25337,1.615471 -0.24888,0.648557 -0.69647,1.028425 -0.99467,0.844128 -0.29819,-0.184296 -1.89843,5.317482 -3.55608,12.226164 -2.71998,11.336265 -3.45448,13.385043 -7.53165,21.008589 -2.48474,4.64602 -4.51773,8.82889 -4.51773,9.29527 0,0.46637 2.2339,3.91862 4.96424,7.67165 2.73034,3.75306 4.81848,6.82374 4.64029,6.82374 -0.17817,0 -2.60261,-3.07177 -5.38763,-6.82615 l -5.0637,-6.82613 -5.99304,11.10593 c -3.29616,6.10826 -5.93845,11.65101 -5.87175,12.31722 0.27598,2.75652 -0.016,2.98262 -3.85205,2.98262 -2.60483,0 -4.10345,-0.35341 -4.7373,-1.11714 z m 10.67302,-8.99671 c 0,-1.42865 -1.78661,0.0837 -1.96928,1.66702 -0.1917,1.66159 -0.16371,1.67236 0.88566,0.34048 0.59599,-0.75645 1.08362,-1.65982 1.08362,-2.0075 z m 5.23557,-9.79831 c 3.94035,-7.48515 3.94911,-7.51576 2.37094,-8.27725 -0.8712,-0.42037 -1.18874,-0.78589 -0.70563,-0.81226 0.48313,-0.0263 -1.03136,-2.65513 -3.3655,-5.84167 -2.33414,-3.186529 -4.24391,-6.175629 -4.24391,-6.642439 0,-0.7703 -4.13941,-2.082322 -4.72431,-1.497419 -0.61808,0.618079 1.51844,15.122148 2.37659,16.133818 0.53066,0.6256 0.76348,1.6622 0.51738,2.30354 -0.3685,0.96026 0.99277,8.43372 2.2663,12.44222 0.4656,1.46549 1.0981,0.56882 5.50814,-7.80854 z m -6.12123,-2.38487 c -1.60926,-2.21313 -1.56907,-2.719 0.13164,-1.65688 1.31887,0.82364 2.53063,3.43017 1.57335,3.38435 -0.25578,-0.0122 -1.02303,-0.78961 -1.70499,-1.72747 z m -1.94844,-10.29524 c -0.58454,-0.37775 -0.74396,-0.68682 -0.35427,-0.68682 0.38969,0 1.18678,0.30907 1.77133,0.68682 0.58453,0.37777 0.74394,0.68683 0.35425,0.68683 -0.38968,0 -1.18678,-0.30906 -1.77131,-0.68683 z m -10.1409,18.24459 c -0.20631,-0.87681 -0.76288,-4.06518 -1.23681,-7.08527 -0.47392,-3.0201 -1.05707,-5.48897 -1.29587,-5.48635 -0.2388,0.003 -1.635723,2.21108 -3.104263,4.90771 l -2.67008,4.90297 3.73287,2.09876 c 4.615873,2.59524 5.043593,2.65715 4.574153,0.66218 z m -6.503593,-8.3969 c 3.184733,-5.62468 3.806893,-7.25695 3.448703,-9.04786 -0.24035,-1.2018 -0.871573,-2.54574 -1.402683,-2.98652 -0.75823,-0.62929 -1.10839,-0.42602 -1.63015,0.94633 -0.52734,1.387 -4.666161,14.42763 -6.240333,19.66208 -0.617609,2.05369 1.932523,-1.70029 5.824463,-8.57403 z m 33.587343,-13.74159 c 2.37324,-4.479779 4.26391,-8.385543 4.20148,-8.679463 -0.0624,-0.293914 0.0969,-1.012645 0.35402,-1.59718 1.18422,-2.692149 6.0352,-23.045419 5.58205,-23.420604 -0.92686,-0.767381 -15.07639,-4.407194 -15.49713,-3.986459 -0.22659,0.226598 0.31051,4.741596 1.19359,10.033334 1.60668,9.627954 1.56943,10.919298 -0.45264,15.689332 -0.18546,0.437491 0.2338,0.974498 0.93169,1.193348 0.69789,0.21885 2.54425,0.883126 4.10301,1.476169 2.8205,1.073085 2.8239,1.078945 0.70853,1.22026 -5.15655,0.344486 -5.93006,0.441657 -7.10488,0.892473 -0.99177,0.380576 -1.08086,0.281115 -0.43994,-0.491152 0.64621,-0.778643 0.21953,-1.143393 -2.1778,-1.861653 -1.98609,-0.59505 -3.06285,-0.64913 -3.22523,-0.161981 -0.13497,0.404892 -1.41094,0.593293 -2.85882,0.422107 l -2.61505,-0.30919 2.12558,1.037109 c 2.46201,1.201243 6.3726,1.534523 4.60543,0.39249 -1.28001,-0.827204 -0.19991,-0.839305 1.77132,-0.01984 1.16795,0.485522 0.88771,0.679517 -1.59419,1.103546 -2.34741,0.401054 -3.01124,0.821626 -3.01124,1.907824 0,1.15731 8.07292,13.3046 8.84206,13.3046 0.13375,0 2.18493,-3.66528 4.55816,-8.14506 z m -15.88006,-7.822383 c -2.82658,-1.29427 -4.75391,-1.274386 -2.47985,0.02557 0.97422,0.55692 2.409,0.997987 3.18837,0.980144 1.09706,-0.02505 0.93708,-0.252219 -0.70852,-1.005724 z m 14.52481,-0.91833 c 0,-0.816372 -5.02656,-2.286764 -5.92312,-1.732662 -0.40129,0.248007 0.36871,0.847733 1.7111,1.332711 2.95218,1.06659 4.21202,1.186212 4.21202,0.399951 z m 13.12471,-29.221898 c 0.25668,-0.808753 0.35788,-1.548625 0.22488,-1.644169 -0.55034,-0.395342 -14.76181,-3.970656 -15.78291,-3.970656 -0.62337,0 -1.10932,0.598733 -1.10932,1.366777 0,1.04293 0.88137,1.615937 3.71977,2.418324 2.04588,0.578352 5.31396,1.524292 7.26241,2.102088 4.81918,1.429094 5.15018,1.413234 5.68517,-0.272364 z m -4.71275,63.289481 c -0.88132,-1.12378 -0.85626,-1.14884 0.2675,-0.26751 0.68196,0.53483 1.23993,1.09279 1.23993,1.23992 0,0.58314 -0.58184,0.20781 -1.50743,-0.97241 z M 18.600096,118.08632 c 0.03401,-0.82539 0.20189,-0.99328 0.428069,-0.42807 0.204674,0.51147 0.179501,1.12256 -0.05594,1.35802 -0.235436,0.23543 -0.402897,-0.18305 -0.37213,-0.92995 z"
     id="path4209"
     inkscape:connector-curvature="0" />
</svg>
