<svg width="160" height="160" viewBox="0 0 160 160" xmlns="http://www.w3.org/2000/svg"><g fill="none"><path d="M160 80c0-44.183-35.817-80-80-80s-80 35.817-80 80 35.817 80 80 80 80-35.817 80-80" fill="#DAAE23"/><path d="M135.255 64.654s-2.991-2.838-15.901-2.838c-10.599 0-16.277 2.083-16.277 2.838 0 .757-3.597 9.654-1.893 27.825 0 0 .814 4.164-3.974 2.84-14.386-3.977-22.138-16.091-38.046-23.85-14.32-6.985-25.349-7.383-39.937-6.625 0 0-.893-1.373-2.78-.971-3.156.671-4.81 5.28-2.523 6.551 2.016 1.12 3.789-.091 3.789-.091s22.713-3.028 40.506 18.361c16.258 19.545 30.851 30.662 52.619 30.284 9.512-.165 19.352-5.129 23.117-13.98 3.807-8.952 4.254-32.23 1.3-40.344" fill="#1A1918"/><path d="M135.515 65.442l-.003-.012c-.075-.243-.151-.472-.23-.694l-.067-.115c-.383-.318-3.774-2.805-15.861-2.805-10.599 0-16.277 2.083-16.277 2.838 0 .134-.115.533-.288 1.175.738 2.226 7.76 3.975 16.326 3.975 9.059 0 16.4-1.955 16.4-4.362" fill="#fff"/><path d="M51.088 81.537l4.813-11.562c-1.971-.852-3.885-1.578-5.764-2.198l-4.166 10.005c1.703 1.09 3.415 2.337 5.117 3.755" fill="#fff"/><path d="M108.918 65.812c0 .912 4.669 1.653 10.43 1.653 5.759 0 10.427-.741 10.427-1.653 0-.915-4.668-1.657-10.427-1.657-5.761 0-10.43.742-10.43 1.657" fill="#1A1918"/></g></svg>