<?xml version="1.0" encoding="UTF-8" standalone="no"?>
<svg
   xmlns:dc="http://purl.org/dc/elements/1.1/"
   xmlns:cc="http://creativecommons.org/ns#"
   xmlns:rdf="http://www.w3.org/1999/02/22-rdf-syntax-ns#"
   xmlns:svg="http://www.w3.org/2000/svg"
   xmlns="http://www.w3.org/2000/svg"
   xmlns:sodipodi="http://sodipodi.sourceforge.net/DTD/sodipodi-0.dtd"
   xmlns:inkscape="http://www.inkscape.org/namespaces/inkscape"
   version="1.1"
   id="svg2"
   viewBox="0 0 160 160"
   height="160"
   width="160"
   inkscape:version="0.91 r13725"
   sodipodi:docname="essay.svg">
  <sodipodi:namedview
     pagecolor="#ffffff"
     bordercolor="#666666"
     borderopacity="1"
     objecttolerance="10"
     gridtolerance="10"
     guidetolerance="10"
     inkscape:pageopacity="0"
     inkscape:pageshadow="2"
     inkscape:window-width="1317"
     inkscape:window-height="792"
     id="namedview23"
     showgrid="false"
     inkscape:zoom="2.085965"
     inkscape:cx="28.754481"
     inkscape:cy="53.627998"
     inkscape:window-x="2"
     inkscape:window-y="0"
     inkscape:window-maximized="0"
     inkscape:current-layer="svg2" />
  <metadata
     id="metadata20">
    <rdf:RDF>
      <cc:Work
         rdf:about="">
        <dc:format>image/svg+xml</dc:format>
        <dc:type
           rdf:resource="http://purl.org/dc/dcmitype/StillImage" />
        <dc:title />
      </cc:Work>
    </rdf:RDF>
  </metadata>
  <defs
     id="defs18">
    <linearGradient
       id="linearGradient3684">
      <stop
         id="stop3686"
         offset="0"
         style="stop-color:#000000;stop-opacity:1;" />
      <stop
         style="stop-color:#000000;stop-opacity:0.86666667;"
         offset="0.89795917"
         id="stop3692" />
      <stop
         id="stop3688"
         offset="1"
         style="stop-color:#000000;stop-opacity:0;" />
    </linearGradient>
  </defs>
  <path
     id="path3430"
     d="m 73.267992,158.48924 c -32.4949,-2.7065 -61.03774,-27.85816 -68.8417298,-60.66262 -1.72994,-7.27191 -1.98045,-10.58949 -1.59277,-21.09336 0.53848,-14.58975 2.00946,-20.6546 7.9065998,-32.59882 7.84907,-15.89771 19.67691,-27.75631 35.45549,-35.54771 12.38085,-6.11361 21.40946,-8.20619 35.47519,-8.22217 21.319748,-0.0242 39.572638,7.16728 55.006508,21.67215 24.45994,22.98763 31.42384,60.78852 16.86125,91.52483 -14.70067,31.02771 -44.81187,47.88105 -80.270538,44.9277 z m -22.18899,-40.42363 19.82042,-17.15377 4.90628,1.14537 c 8.90348,2.07852 19.65357,2.32334 29.164358,0.66417 20.1236,-3.51057 34.31093,-13.15749 41.07333,-27.92851 7.75746,-16.94453 -1.61239,-36.81841 -22.08808,-46.84981 -10.68422,-5.2344 -17.54978,-6.71328 -31.258468,-6.7333 -9.6159,-0.014 -13.49434,0.41271 -19.62151,2.15899 -15.67186,4.46657 -27.69351,13.44926 -33.3346,24.90794 -2.76894,5.62451 -3.12791,7.25784 -3.08887,14.05458 0.0551,9.5906 3.09553,16.55441 10.61932,24.32229 l 5.08027,5.2451 -3.18871,5.84034 c -8.82032,16.155 -19.81537,38.14124 -18.91897,37.83128 0.55815,-0.19299 9.934,-8.07009 20.83523,-17.50467 z"
     style="fill:#aa0000;fill-opacity:0" />
  <path
     id="path3432"
     d="m 73.267992,158.48924 c -32.4949,-2.7065 -61.03774,-27.85816 -68.8417298,-60.66262 -1.72994,-7.27191 -1.98045,-10.58949 -1.59277,-21.09336 0.53848,-14.58975 2.00946,-20.6546 7.9065998,-32.59882 7.84907,-15.89771 19.67691,-27.75631 35.45549,-35.54771 12.38085,-6.11361 21.40946,-8.20619 35.47519,-8.22217 21.319748,-0.0242 39.572638,7.16728 55.006508,21.67215 24.45994,22.98763 31.42384,60.78852 16.86125,91.52483 -14.70067,31.02771 -44.81187,47.88105 -80.270538,44.9277 z m -22.18899,-40.42363 19.82042,-17.15377 4.90628,1.14537 c 8.90348,2.07852 19.65357,2.32334 29.164358,0.66417 20.1236,-3.51057 34.31093,-13.15749 41.07333,-27.92851 7.75746,-16.94453 -1.61239,-36.81841 -22.08808,-46.84981 -10.68422,-5.2344 -17.54978,-6.71328 -31.258468,-6.7333 -9.6159,-0.014 -13.49434,0.41271 -19.62151,2.15899 -15.67186,4.46657 -27.69351,13.44926 -33.3346,24.90794 -2.76894,5.62451 -3.12791,7.25784 -3.08887,14.05458 0.0551,9.5906 3.09553,16.55441 10.61932,24.32229 l 5.08027,5.2451 -3.18871,5.84034 c -8.82032,16.155 -19.81537,38.14124 -18.91897,37.83128 0.55815,-0.19299 9.934,-8.07009 20.83523,-17.50467 z"
     style="fill:#aa0000;fill-opacity:0" />
  <g
     transform="matrix(1,0,0,-1,0.68025652,160)"
     style="fill:#d45500;fill-opacity:1"
     id="g4">
    <path
       style="fill:#d45500;fill-opacity:1"
       id="path6"
       d="M 160,80 C 160,35.817 124.183,0 80,0 35.817,0 0,35.817 0,80 c 0,44.183 35.817,80 80,80 44.183,0 80,-35.817 80,-80" />
    <path
       style="fill:#d45500;fill-opacity:1"
       id="path8"
       d="m 135.255,64.654 c 0,0 -2.991,-2.838 -15.901,-2.838 -10.599,0 -16.277,2.083 -16.277,2.838 0,0.757 -3.597,9.654 -1.893,27.825 0,0 0.814,4.164 -3.974,2.84 C 82.824,91.342 75.072,79.228 59.164,71.469 44.844,64.484 33.815,64.086 19.227,64.844 c 0,0 -0.893,-1.373 -2.78,-0.971 -3.156,0.671 -4.81,5.28 -2.523,6.551 2.016,1.12 3.789,-0.091 3.789,-0.091 0,0 22.713,-3.028 40.506,18.361 16.258,19.545 30.851,30.662 52.619,30.284 9.512,-0.165 19.352,-5.129 23.117,-13.98 3.807,-8.952 4.254,-32.23 1.3,-40.344" />
    <path
       style="fill:#d45500;fill-opacity:1"
       id="path10"
       d="m 135.515,65.442 -0.003,-0.012 c -0.075,-0.243 -0.151,-0.472 -0.23,-0.694 l -0.067,-0.115 c -0.383,-0.318 -3.774,-2.805 -15.861,-2.805 -10.599,0 -16.277,2.083 -16.277,2.838 0,0.134 -0.115,0.533 -0.288,1.175 0.738,2.226 7.76,3.975 16.326,3.975 9.059,0 16.4,-1.955 16.4,-4.362" />
    <path
       style="fill:#d45500;fill-opacity:1"
       id="path12"
       d="M 51.088,81.537 55.901,69.975 C 53.93,69.123 52.016,68.397 50.137,67.777 l -4.166,10.005 c 1.703,1.09 3.415,2.337 5.117,3.755" />
    <path
       style="fill:#d45500;fill-opacity:1"
       id="path14"
       d="m 108.918,65.812 c 0,0.912 4.669,1.653 10.43,1.653 5.759,0 10.427,-0.741 10.427,-1.653 0,-0.915 -4.668,-1.657 -10.427,-1.657 -5.761,0 -10.43,0.742 -10.43,1.657" />
  </g>
  <path
     id="path3500"
     d="m 47.321394,140.48402 c -9.01239,-1.86341 -17.37815,-8.78885 -20.4121,-16.89783 -1.80493,-4.82412 -1.95299,-7.39407 -1.95299,-33.89969 l 0,-28.67985 5.51303,-0.28754 5.51304,-0.28755 0.5217,-12.46425 c 0.60331,-14.41434 1.79165,-17.599 9.67878,-25.93848 19.80745,-20.9434504 58.683856,-15.3789604 70.692806,10.11846 2.15619,4.57804 2.53076,6.82196 2.84079,17.0185 l 0.35712,11.74517 5.7166,0 5.71658,0 -0.30214,29.48275 c -0.28285,27.60023 -0.43105,29.76137 -2.32103,33.84603 -2.93498,6.34317 -7.16289,10.69946 -13.49605,13.90582 l -5.57842,2.82427 -29.243056,0.17078 c -16.08368,0.094 -31.04378,-0.20154 -33.24466,-0.65659 z m 43.19572,-18.02253 c 0.26199,-0.4239 -0.53012,-5.92495 -1.76024,-12.22456 -1.76191,-9.02294 -1.97942,-11.60161 -1.02488,-12.15019 2.06027,-1.18404 3.63558,-6.27371 2.99637,-9.68098 -1.3635,-7.2681 -11.53614,-11.6057 -18.59932,-7.93073 -7.08016,3.6838 -9.22739,10.37942 -5.11318,15.94419 l 2.16975,2.93475 -1.98009,10.3496 c -1.08905,5.69228 -1.98009,11.06489 -1.98009,11.93914 0,1.39828 1.49276,1.58952 12.40767,1.58952 6.82422,0 12.62203,-0.34683 12.88401,-0.77074 z M 108.04563,49.38053 C 107.33834,36.22637 106.0383,32.6765 99.896094,27.12738 c -4.56613,-4.12523 -6.49819,-5.21571 -12.43059,-7.01601 -12.74074,-3.86643 -28.20847,1.01185 -35.2008,11.10178 -4.41684,6.37351 -5.35972,10.55958 -4.65062,20.64734 l 0.63619,9.05047 30.20767,0 30.207666,0 -0.61998,-11.53043 z"
     style="fill:#000000;fill-opacity:0" />
  <path
     id="path3502"
     d="m 47.321394,140.48402 c -9.01239,-1.86341 -17.37815,-8.78885 -20.4121,-16.89783 -1.80493,-4.82412 -1.95299,-7.39407 -1.95299,-33.89969 l 0,-28.67985 5.51303,-0.28754 5.51304,-0.28755 0.5217,-12.46425 c 0.60331,-14.41434 1.79165,-17.599 9.67878,-25.93848 19.80745,-20.9434504 58.683856,-15.3789604 70.692806,10.11846 2.15619,4.57804 2.53076,6.82196 2.84079,17.0185 l 0.35712,11.74517 5.7166,0 5.71658,0 -0.30214,29.48275 c -0.28285,27.60023 -0.43105,29.76137 -2.32103,33.84603 -2.93498,6.34317 -7.16289,10.69946 -13.49605,13.90582 l -5.57842,2.82427 -29.243056,0.17078 c -16.08368,0.094 -31.04378,-0.20154 -33.24466,-0.65659 z m 43.19572,-18.02253 c 0.26199,-0.4239 -0.53012,-5.92495 -1.76024,-12.22456 -1.76191,-9.02294 -1.97942,-11.60161 -1.02488,-12.15019 2.06027,-1.18404 3.63558,-6.27371 2.99637,-9.68098 -1.3635,-7.2681 -11.53614,-11.6057 -18.59932,-7.93073 -7.08016,3.6838 -9.22739,10.37942 -5.11318,15.94419 l 2.16975,2.93475 -1.98009,10.3496 c -1.08905,5.69228 -1.98009,11.06489 -1.98009,11.93914 0,1.39828 1.49276,1.58952 12.40767,1.58952 6.82422,0 12.62203,-0.34683 12.88401,-0.77074 z M 108.04563,49.38053 C 107.33834,36.22637 106.0383,32.6765 99.896094,27.12738 c -4.56613,-4.12523 -6.49819,-5.21571 -12.43059,-7.01601 -12.74074,-3.86643 -28.20847,1.01185 -35.2008,11.10178 -4.41684,6.37351 -5.35972,10.55958 -4.65062,20.64734 l 0.63619,9.05047 30.20767,0 30.207666,0 -0.61998,-11.53043 z"
     style="fill:#000000;fill-opacity:0" />
  <path
     id="path3504"
     d="m 47.321394,140.48402 c -9.01239,-1.86341 -17.37815,-8.78885 -20.4121,-16.89783 -1.80493,-4.82412 -1.95299,-7.39407 -1.95299,-33.89969 l 0,-28.67985 5.51303,-0.28754 5.51304,-0.28755 0.5217,-12.46425 c 0.60331,-14.41434 1.79165,-17.599 9.67878,-25.93848 19.80745,-20.9434504 58.683856,-15.3789604 70.692806,10.11846 2.15619,4.57804 2.53076,6.82196 2.84079,17.0185 l 0.35712,11.74517 5.7166,0 5.71658,0 -0.30214,29.48275 c -0.28285,27.60023 -0.43105,29.76137 -2.32103,33.84603 -2.93498,6.34317 -7.16289,10.69946 -13.49605,13.90582 l -5.57842,2.82427 -29.243056,0.17078 c -16.08368,0.094 -31.04378,-0.20154 -33.24466,-0.65659 z m 43.19572,-18.02253 c 0.26199,-0.4239 -0.53012,-5.92495 -1.76024,-12.22456 -1.76191,-9.02294 -1.97942,-11.60161 -1.02488,-12.15019 2.06027,-1.18404 3.63558,-6.27371 2.99637,-9.68098 -1.3635,-7.2681 -11.53614,-11.6057 -18.59932,-7.93073 -7.08016,3.6838 -9.22739,10.37942 -5.11318,15.94419 l 2.16975,2.93475 -1.98009,10.3496 c -1.08905,5.69228 -1.98009,11.06489 -1.98009,11.93914 0,1.39828 1.49276,1.58952 12.40767,1.58952 6.82422,0 12.62203,-0.34683 12.88401,-0.77074 z M 108.04563,49.38053 C 107.33834,36.22637 106.0383,32.6765 99.896094,27.12738 c -4.56613,-4.12523 -6.49819,-5.21571 -12.43059,-7.01601 -12.74074,-3.86643 -28.20847,1.01185 -35.2008,11.10178 -4.41684,6.37351 -5.35972,10.55958 -4.65062,20.64734 l 0.63619,9.05047 30.20767,0 30.207666,0 -0.61998,-11.53043 z"
     style="fill:#000000;fill-opacity:0" />
  <path
     id="path3506"
     d="m 36.941164,145.36961 c -9.91066,-1.85332 -18.37126,-8.52737 -21.53734,-16.98948 -1.80493,-4.82411 -1.95299,-7.39407 -1.95299,-33.89968 l 0,-28.67986 5.51304,-0.28754 5.51303,-0.28754 0.49986,-12.46426 c 0.46122,-11.50073 0.71749,-12.85999 3.31508,-17.58357 3.47777,-6.32415 11.32687,-13.63019 17.99975,-16.7544 22.0591,-10.3279504 49.67109,-1.76789 59.003716,18.29188 2.23752,4.80939 2.60336,6.97309 2.91567,17.24458 l 0.35712,11.74516 5.72728,0 5.72729,0 -0.31284,29.48276 -0.31283,29.48276 -2.7244,5.54821 c -2.89669,5.89909 -9.43935,11.69385 -15.97198,14.1462 -3.796986,1.42539 -57.024746,2.26421 -63.759456,1.00478 z m 42.07049,-18.11417 c 0.26199,-0.4239 -0.48457,-5.70954 -1.65903,-11.74585 l -2.13536,-10.97511 2.27752,-3.35508 c 4.01593,-5.91597 1.66483,-13.00912 -5.28733,-15.95166 -6.06512,-2.56709 -11.72697,-1.22972 -16.52197,3.9026 -3.03268,3.24603 -3.10418,8.12101 -0.17718,12.07999 l 2.17184,2.93758 -1.98009,10.3496 c -1.08905,5.69229 -1.98009,11.0649 -1.98009,11.93914 0,1.39829 1.49276,1.58953 12.40767,1.58953 6.82422,0 12.62203,-0.34683 12.88402,-0.77074 z m 17.57111,-72.99557 c -0.66232,-13.17277 -1.99105,-16.73624 -8.3993,-22.52571 -13.80262,-12.46983 -36.99334,-10.29746 -47.58987,4.45795 -4.23184,5.89273 -5.18511,10.29957 -4.46564,20.64399 l 0.61685,8.8688 30.2067,0 30.20671,0 -0.57545,-11.44503 z"
     style="fill:#000000;fill-opacity:0" />
  <path
     style="fill:#ffffff"
     d="m 20.558553,120.1523 c -0.26672,-0.69506 -0.36649,-17.01119 -0.22171,-36.258064 l 0.26324,-34.994313 3.25,-0.313359 c 2.95455,-0.284872 3.25,-0.616618 3.25,-3.649306 l 0,-3.335949 12.75,-0.74228 c 14.7721,-0.860003 26.227657,0.356253 34,3.609839 l 5.25,2.197705 5.25,-2.197705 c 7.772343,-3.253586 19.227897,-4.469842 33.999997,-3.609839 l 12.75,0.74228 0,3.335949 c 0,3.032688 0.29545,3.364434 3.25,3.649306 l 3.25,0.313359 0,35.999999 0,35.999998 -58.278285,0.25807 c -46.228122,0.20471 -58.378562,-0.003 -58.763242,-1.00569 z m 91.636987,-2.75238 21.93187,0 -0.26367,-32.749998 c -0.16899,-20.99089 -0.62272,-32.75 -1.26366,-32.75 -0.63919,0 -1.09538,11.067467 -1.26434,30.673719 l -0.26434,30.673719 -19.23566,0.40864 c -19.113541,0.40605 -28.758404,1.84446 -25.646681,3.82488 0.776063,0.49392 2.010328,0.67776 2.742811,0.40854 0.732484,-0.26922 11.20113,-0.4895 23.26367,-0.4895 z M 72.550083,116.5067 c -2.107142,-1.98119 -12.42717,-3.10678 -28.48477,-3.10678 l -16.93633,0 -0.26445,-30.749998 c -0.16905,-19.657032 -0.6252,-30.75 -1.26445,-30.75 -0.64094,0 -1.09467,11.75911 -1.26366,32.75 l -0.26367,32.749998 24.71367,0 c 14.548505,0 24.322909,-0.36739 23.76366,-0.89322 z M 77.43548,82.149938 77.270878,49.899923 72.93548,47.704595 C 66.818286,44.607014 54.745253,43.189062 41.350083,43.994958 l -11.25,0.676837 0,32.807388 0,32.807387 16.75,-0.0698 c 14.30485,-0.0596 17.625874,0.22606 22.75,1.95683 3.3,1.11463 6.45,2.07154 7,2.12647 0.651114,0.065 0.942572,-11.15171 0.835397,-32.150153 z m -8.835397,19.992822 c -1.65,-0.53524 -9.87636,-0.99749 -18.28079,-1.02721 -9.48518,-0.0336 -14.92597,-0.40887 -14.34526,-0.98958 1.29049,-1.290486 33.131237,-0.481489 35.504466,0.90209 2.639275,1.53867 0.719923,2.28197 -2.878416,1.1147 z m -2,-7.800206 c -2.2,-0.455056 -9.9625,-0.853306 -17.25,-0.885002 -8.12825,-0.03535 -13.25,-0.444176 -13.25,-1.05763 0,-1.36515 24.49771,-1.30107 30.941782,0.08093 2.772124,0.594513 5.295831,1.494513 5.608238,2 0.648917,1.049967 -0.423761,1.025447 -6.05002,-0.138305 z m -1,-7.942632 c -1.65,-0.419854 -9.21406,-0.816611 -16.80902,-0.881684 -8.92274,-0.07645 -13.59032,-0.472163 -13.19098,-1.118316 1.4973,-2.422677 33.98489,-0.540287 36.95,2.14095 1.133939,1.02538 -2.669538,0.948244 -6.95,-0.14095 z m 3.5,-7.177274 c -1.375,-0.577776 -9.7,-1.353246 -18.5,-1.723265 -14.31614,-0.601962 -15.37547,-0.762387 -10.06574,-1.524356 10.79453,-1.549066 31.56574,0.768992 31.56574,3.52272 0,1.049806 0.195743,1.067755 -3,-0.275099 z m -5.5,-8.503253 c -4.49969,-0.930216 -10.67591,-1.303671 -17.29127,-1.045548 -5.66019,0.220855 -10.49921,0.06509 -10.75336,-0.346136 -0.69436,-1.123508 15.54921,-2.240465 21.68396,-1.491056 7.709312,0.941753 14.778337,2.621032 15.42277,3.663747 0.689578,1.11576 -0.299135,1.030549 -9.0621,-0.781007 z m 3,-7.51055 c -1.65,-0.560546 -9.4125,-1.040232 -17.25,-1.065971 -15.35524,-0.05043 -19.52386,-1.382166 -6,-1.916804 11.11447,-0.439389 22.490476,0.614849 26.75,2.478975 4.042628,1.769204 1.361012,2.155204 -3.5,0.5038 z m 0,-7.458536 c -3.132262,-0.877905 -9.96363,-1.404683 -18.28781,-1.410201 -8.28694,-0.0055 -13.0632,-0.372246 -12.69099,-0.974497 1.00129,-1.620115 25.41752,-1.173056 31.297299,0.573052 2.849825,0.846307 5.181501,1.971307 5.181501,2.500001 0,0.528691 -0.1125,0.905408 -0.25,0.837149 -0.1375,-0.06826 -2.5,-0.754737 -5.25,-1.525504 z m 24,55.927921 c 4.565576,-1.26699 9.765367,-1.63014 21.749997,-1.519 l 15.75,0.14605 0,-32.816742 0,-32.816743 -11.25,-0.668086 C 103.31521,43.199936 91.771072,44.53437 85.536156,47.623413 l -4.594903,2.27651 -0.170585,32.301271 c -0.168294,31.867526 -0.143728,32.293486 1.829415,31.721676 1.1,-0.31877 4.7,-1.32886 8,-2.24464 z m -5.5,-9.08845 c 0,-1.87484 9.938633,-3.189858 24.108237,-3.189858 10.08149,0 13.81581,0.313878 13.31796,1.119408 -0.48032,0.77718 -3.63201,0.91559 -10.30901,0.45275 -8.71247,-0.60394 -21.234769,0.38452 -25.472524,2.0107 -0.904565,0.34712 -1.644663,0.17026 -1.644663,-0.393 z m 0.535137,-8.038951 c 1.76661,-1.913456 11.208714,-3.150907 24.04234,-3.150907 18.53235,0 16.00345,1.725261 -3.33074,2.272282 -9.210704,0.260599 -17.871737,0.817163 -19.246737,1.236811 -1.824048,0.556696 -2.220119,0.45985 -1.464863,-0.358186 z m -0.03514,-7.893637 c 1.858696,-1.812913 12.770412,-3.25727 24.60777,-3.25727 17.50098,0 15.40765,1.704 -2.86343,2.330867 -8.659389,0.297098 -17.31934,0.846536 -19.24434,1.220975 -2.280758,0.443637 -3.151645,0.341021 -2.5,-0.294572 z m -0.0078,-7.2699 c -1.566384,-2.534453 27.55508,-5.228819 34.5078,-3.19272 2.87505,0.841958 1.26805,1.044798 -9,1.136002 -6.875,0.06106 -15.330749,0.704152 -18.790553,1.429081 -3.459803,0.724929 -6.482567,1.007366 -6.717253,0.627637 z m -0.4922,-7.335555 c 0,-2.633152 17.86739,-5.149314 29.61604,-4.170656 11.59382,0.965759 9.6868,2.325404 -2.44238,1.741344 -8.69968,-0.41892 -17.733142,0.451216 -24.92366,2.400733 -1.2375,0.335515 -2.25,0.348376 -2.25,0.02858 z m 3,-9.263694 c 1.925,-0.896673 7.1,-1.913321 11.5,-2.259218 9.79901,-0.770329 24.54039,0.02212 22.68622,1.219532 -0.72258,0.466639 -4.77258,0.553467 -9,0.19295 -6.78196,-0.57837 -11.05347,-0.250076 -25.18622,1.935731 l -3.5,0.541319 3.5,-1.630313 z M 85.644027,56.47103 c -0.278149,-0.450055 2.102696,-1.550167 5.290768,-2.444695 6.539744,-1.834959 31.165285,-2.350789 31.165285,-0.652818 0,0.58165 -5.33412,0.980196 -13.25,0.98999 -8.71881,0.01079 -14.865896,0.513871 -17.975164,1.471099 -2.59884,0.800088 -4.95274,1.086478 -5.230889,0.636425 z"
     id="path4378"
     inkscape:connector-curvature="0" />
</svg>
