<?xml version="1.0" encoding="UTF-8" standalone="no"?>
<svg
   xmlns:dc="http://purl.org/dc/elements/1.1/"
   xmlns:cc="http://creativecommons.org/ns#"
   xmlns:rdf="http://www.w3.org/1999/02/22-rdf-syntax-ns#"
   xmlns:svg="http://www.w3.org/2000/svg"
   xmlns="http://www.w3.org/2000/svg"
   xmlns:sodipodi="http://sodipodi.sourceforge.net/DTD/sodipodi-0.dtd"
   xmlns:inkscape="http://www.inkscape.org/namespaces/inkscape"
   version="1.1"
   id="svg2"
   viewBox="0 0 160 160"
   height="160"
   width="160"
   inkscape:version="0.91 r13725"
   sodipodi:docname="poetry.svg">
  <sodipodi:namedview
     pagecolor="#ffffff"
     bordercolor="#666666"
     borderopacity="1"
     objecttolerance="10"
     gridtolerance="10"
     guidetolerance="10"
     inkscape:pageopacity="0"
     inkscape:pageshadow="2"
     inkscape:window-width="1317"
     inkscape:window-height="792"
     id="namedview23"
     showgrid="false"
     inkscape:zoom="2.085965"
     inkscape:cx="107.13547"
     inkscape:cy="53.627998"
     inkscape:window-x="54"
     inkscape:window-y="27"
     inkscape:window-maximized="0"
     inkscape:current-layer="svg2" />
  <metadata
     id="metadata20">
    <rdf:RDF>
      <cc:Work
         rdf:about="">
        <dc:format>image/svg+xml</dc:format>
        <dc:type
           rdf:resource="http://purl.org/dc/dcmitype/StillImage" />
        <dc:title></dc:title>
      </cc:Work>
    </rdf:RDF>
  </metadata>
  <defs
     id="defs18">
    <linearGradient
       id="linearGradient3684">
      <stop
         id="stop3686"
         offset="0"
         style="stop-color:#000000;stop-opacity:1;" />
      <stop
         style="stop-color:#000000;stop-opacity:0.86666667;"
         offset="0.89795917"
         id="stop3692" />
      <stop
         id="stop3688"
         offset="1"
         style="stop-color:#000000;stop-opacity:0;" />
    </linearGradient>
  </defs>
  <path
     id="path3430"
     d="m 73.267992,158.48924 c -32.4949,-2.7065 -61.03774,-27.85816 -68.8417298,-60.66262 -1.72994,-7.27191 -1.98045,-10.58949 -1.59277,-21.09336 0.53848,-14.58975 2.00946,-20.6546 7.9065998,-32.59882 7.84907,-15.89771 19.67691,-27.75631 35.45549,-35.54771 12.38085,-6.11361 21.40946,-8.20619 35.47519,-8.22217 21.319748,-0.0242 39.572638,7.16728 55.006508,21.67215 24.45994,22.98763 31.42384,60.78852 16.86125,91.52483 -14.70067,31.02771 -44.81187,47.88105 -80.270538,44.9277 z m -22.18899,-40.42363 19.82042,-17.15377 4.90628,1.14537 c 8.90348,2.07852 19.65357,2.32334 29.164358,0.66417 20.1236,-3.51057 34.31093,-13.15749 41.07333,-27.92851 7.75746,-16.94453 -1.61239,-36.81841 -22.08808,-46.84981 -10.68422,-5.2344 -17.54978,-6.71328 -31.258468,-6.7333 -9.6159,-0.014 -13.49434,0.41271 -19.62151,2.15899 -15.67186,4.46657 -27.69351,13.44926 -33.3346,24.90794 -2.76894,5.62451 -3.12791,7.25784 -3.08887,14.05458 0.0551,9.5906 3.09553,16.55441 10.61932,24.32229 l 5.08027,5.2451 -3.18871,5.84034 c -8.82032,16.155 -19.81537,38.14124 -18.91897,37.83128 0.55815,-0.19299 9.934,-8.07009 20.83523,-17.50467 z"
     style="fill:#aa0000;fill-opacity:0" />
  <path
     id="path3432"
     d="m 73.267992,158.48924 c -32.4949,-2.7065 -61.03774,-27.85816 -68.8417298,-60.66262 -1.72994,-7.27191 -1.98045,-10.58949 -1.59277,-21.09336 0.53848,-14.58975 2.00946,-20.6546 7.9065998,-32.59882 7.84907,-15.89771 19.67691,-27.75631 35.45549,-35.54771 12.38085,-6.11361 21.40946,-8.20619 35.47519,-8.22217 21.319748,-0.0242 39.572638,7.16728 55.006508,21.67215 24.45994,22.98763 31.42384,60.78852 16.86125,91.52483 -14.70067,31.02771 -44.81187,47.88105 -80.270538,44.9277 z m -22.18899,-40.42363 19.82042,-17.15377 4.90628,1.14537 c 8.90348,2.07852 19.65357,2.32334 29.164358,0.66417 20.1236,-3.51057 34.31093,-13.15749 41.07333,-27.92851 7.75746,-16.94453 -1.61239,-36.81841 -22.08808,-46.84981 -10.68422,-5.2344 -17.54978,-6.71328 -31.258468,-6.7333 -9.6159,-0.014 -13.49434,0.41271 -19.62151,2.15899 -15.67186,4.46657 -27.69351,13.44926 -33.3346,24.90794 -2.76894,5.62451 -3.12791,7.25784 -3.08887,14.05458 0.0551,9.5906 3.09553,16.55441 10.61932,24.32229 l 5.08027,5.2451 -3.18871,5.84034 c -8.82032,16.155 -19.81537,38.14124 -18.91897,37.83128 0.55815,-0.19299 9.934,-8.07009 20.83523,-17.50467 z"
     style="fill:#aa0000;fill-opacity:0" />
  <g
     transform="matrix(1,0,0,-1,0.68025652,160)"
     style="fill:#800080;fill-opacity:1"
     id="g4">
    <path
       style="fill:#800080;fill-opacity:1"
       id="path6"
       d="M 160,80 C 160,35.817 124.183,0 80,0 35.817,0 0,35.817 0,80 c 0,44.183 35.817,80 80,80 44.183,0 80,-35.817 80,-80" />
    <path
       style="fill:#800080;fill-opacity:1"
       id="path8"
       d="m 135.255,64.654 c 0,0 -2.991,-2.838 -15.901,-2.838 -10.599,0 -16.277,2.083 -16.277,2.838 0,0.757 -3.597,9.654 -1.893,27.825 0,0 0.814,4.164 -3.974,2.84 C 82.824,91.342 75.072,79.228 59.164,71.469 44.844,64.484 33.815,64.086 19.227,64.844 c 0,0 -0.893,-1.373 -2.78,-0.971 -3.156,0.671 -4.81,5.28 -2.523,6.551 2.016,1.12 3.789,-0.091 3.789,-0.091 0,0 22.713,-3.028 40.506,18.361 16.258,19.545 30.851,30.662 52.619,30.284 9.512,-0.165 19.352,-5.129 23.117,-13.98 3.807,-8.952 4.254,-32.23 1.3,-40.344" />
    <path
       style="fill:#800080;fill-opacity:1"
       id="path10"
       d="m 135.515,65.442 -0.003,-0.012 c -0.075,-0.243 -0.151,-0.472 -0.23,-0.694 l -0.067,-0.115 c -0.383,-0.318 -3.774,-2.805 -15.861,-2.805 -10.599,0 -16.277,2.083 -16.277,2.838 0,0.134 -0.115,0.533 -0.288,1.175 0.738,2.226 7.76,3.975 16.326,3.975 9.059,0 16.4,-1.955 16.4,-4.362" />
    <path
       style="fill:#800080;fill-opacity:1"
       id="path12"
       d="M 51.088,81.537 55.901,69.975 C 53.93,69.123 52.016,68.397 50.137,67.777 l -4.166,10.005 c 1.703,1.09 3.415,2.337 5.117,3.755" />
    <path
       style="fill:#800080;fill-opacity:1"
       id="path14"
       d="m 108.918,65.812 c 0,0.912 4.669,1.653 10.43,1.653 5.759,0 10.427,-0.741 10.427,-1.653 0,-0.915 -4.668,-1.657 -10.427,-1.657 -5.761,0 -10.43,0.742 -10.43,1.657" />
  </g>
  <path
     id="path3500"
     d="m 47.321394,140.48402 c -9.01239,-1.86341 -17.37815,-8.78885 -20.4121,-16.89783 -1.80493,-4.82412 -1.95299,-7.39407 -1.95299,-33.89969 l 0,-28.67985 5.51303,-0.28754 5.51304,-0.28755 0.5217,-12.46425 c 0.60331,-14.41434 1.79165,-17.599 9.67878,-25.93848 19.80745,-20.9434504 58.683856,-15.3789604 70.692806,10.11846 2.15619,4.57804 2.53076,6.82196 2.84079,17.0185 l 0.35712,11.74517 5.7166,0 5.71658,0 -0.30214,29.48275 c -0.28285,27.60023 -0.43105,29.76137 -2.32103,33.84603 -2.93498,6.34317 -7.16289,10.69946 -13.49605,13.90582 l -5.57842,2.82427 -29.243056,0.17078 c -16.08368,0.094 -31.04378,-0.20154 -33.24466,-0.65659 z m 43.19572,-18.02253 c 0.26199,-0.4239 -0.53012,-5.92495 -1.76024,-12.22456 -1.76191,-9.02294 -1.97942,-11.60161 -1.02488,-12.15019 2.06027,-1.18404 3.63558,-6.27371 2.99637,-9.68098 -1.3635,-7.2681 -11.53614,-11.6057 -18.59932,-7.93073 -7.08016,3.6838 -9.22739,10.37942 -5.11318,15.94419 l 2.16975,2.93475 -1.98009,10.3496 c -1.08905,5.69228 -1.98009,11.06489 -1.98009,11.93914 0,1.39828 1.49276,1.58952 12.40767,1.58952 6.82422,0 12.62203,-0.34683 12.88401,-0.77074 z M 108.04563,49.38053 C 107.33834,36.22637 106.0383,32.6765 99.896094,27.12738 c -4.56613,-4.12523 -6.49819,-5.21571 -12.43059,-7.01601 -12.74074,-3.86643 -28.20847,1.01185 -35.2008,11.10178 -4.41684,6.37351 -5.35972,10.55958 -4.65062,20.64734 l 0.63619,9.05047 30.20767,0 30.207666,0 -0.61998,-11.53043 z"
     style="fill:#000000;fill-opacity:0" />
  <path
     id="path3502"
     d="m 47.321394,140.48402 c -9.01239,-1.86341 -17.37815,-8.78885 -20.4121,-16.89783 -1.80493,-4.82412 -1.95299,-7.39407 -1.95299,-33.89969 l 0,-28.67985 5.51303,-0.28754 5.51304,-0.28755 0.5217,-12.46425 c 0.60331,-14.41434 1.79165,-17.599 9.67878,-25.93848 19.80745,-20.9434504 58.683856,-15.3789604 70.692806,10.11846 2.15619,4.57804 2.53076,6.82196 2.84079,17.0185 l 0.35712,11.74517 5.7166,0 5.71658,0 -0.30214,29.48275 c -0.28285,27.60023 -0.43105,29.76137 -2.32103,33.84603 -2.93498,6.34317 -7.16289,10.69946 -13.49605,13.90582 l -5.57842,2.82427 -29.243056,0.17078 c -16.08368,0.094 -31.04378,-0.20154 -33.24466,-0.65659 z m 43.19572,-18.02253 c 0.26199,-0.4239 -0.53012,-5.92495 -1.76024,-12.22456 -1.76191,-9.02294 -1.97942,-11.60161 -1.02488,-12.15019 2.06027,-1.18404 3.63558,-6.27371 2.99637,-9.68098 -1.3635,-7.2681 -11.53614,-11.6057 -18.59932,-7.93073 -7.08016,3.6838 -9.22739,10.37942 -5.11318,15.94419 l 2.16975,2.93475 -1.98009,10.3496 c -1.08905,5.69228 -1.98009,11.06489 -1.98009,11.93914 0,1.39828 1.49276,1.58952 12.40767,1.58952 6.82422,0 12.62203,-0.34683 12.88401,-0.77074 z M 108.04563,49.38053 C 107.33834,36.22637 106.0383,32.6765 99.896094,27.12738 c -4.56613,-4.12523 -6.49819,-5.21571 -12.43059,-7.01601 -12.74074,-3.86643 -28.20847,1.01185 -35.2008,11.10178 -4.41684,6.37351 -5.35972,10.55958 -4.65062,20.64734 l 0.63619,9.05047 30.20767,0 30.207666,0 -0.61998,-11.53043 z"
     style="fill:#000000;fill-opacity:0" />
  <path
     id="path3504"
     d="m 47.321394,140.48402 c -9.01239,-1.86341 -17.37815,-8.78885 -20.4121,-16.89783 -1.80493,-4.82412 -1.95299,-7.39407 -1.95299,-33.89969 l 0,-28.67985 5.51303,-0.28754 5.51304,-0.28755 0.5217,-12.46425 c 0.60331,-14.41434 1.79165,-17.599 9.67878,-25.93848 19.80745,-20.9434504 58.683856,-15.3789604 70.692806,10.11846 2.15619,4.57804 2.53076,6.82196 2.84079,17.0185 l 0.35712,11.74517 5.7166,0 5.71658,0 -0.30214,29.48275 c -0.28285,27.60023 -0.43105,29.76137 -2.32103,33.84603 -2.93498,6.34317 -7.16289,10.69946 -13.49605,13.90582 l -5.57842,2.82427 -29.243056,0.17078 c -16.08368,0.094 -31.04378,-0.20154 -33.24466,-0.65659 z m 43.19572,-18.02253 c 0.26199,-0.4239 -0.53012,-5.92495 -1.76024,-12.22456 -1.76191,-9.02294 -1.97942,-11.60161 -1.02488,-12.15019 2.06027,-1.18404 3.63558,-6.27371 2.99637,-9.68098 -1.3635,-7.2681 -11.53614,-11.6057 -18.59932,-7.93073 -7.08016,3.6838 -9.22739,10.37942 -5.11318,15.94419 l 2.16975,2.93475 -1.98009,10.3496 c -1.08905,5.69228 -1.98009,11.06489 -1.98009,11.93914 0,1.39828 1.49276,1.58952 12.40767,1.58952 6.82422,0 12.62203,-0.34683 12.88401,-0.77074 z M 108.04563,49.38053 C 107.33834,36.22637 106.0383,32.6765 99.896094,27.12738 c -4.56613,-4.12523 -6.49819,-5.21571 -12.43059,-7.01601 -12.74074,-3.86643 -28.20847,1.01185 -35.2008,11.10178 -4.41684,6.37351 -5.35972,10.55958 -4.65062,20.64734 l 0.63619,9.05047 30.20767,0 30.207666,0 -0.61998,-11.53043 z"
     style="fill:#000000;fill-opacity:0" />
  <path
     id="path3506"
     d="m 36.941164,145.36961 c -9.91066,-1.85332 -18.37126,-8.52737 -21.53734,-16.98948 -1.80493,-4.82411 -1.95299,-7.39407 -1.95299,-33.89968 l 0,-28.67986 5.51304,-0.28754 5.51303,-0.28754 0.49986,-12.46426 c 0.46122,-11.50073 0.71749,-12.85999 3.31508,-17.58357 3.47777,-6.32415 11.32687,-13.63019 17.99975,-16.7544 22.0591,-10.3279504 49.67109,-1.76789 59.003716,18.29188 2.23752,4.80939 2.60336,6.97309 2.91567,17.24458 l 0.35712,11.74516 5.72728,0 5.72729,0 -0.31284,29.48276 -0.31283,29.48276 -2.7244,5.54821 c -2.89669,5.89909 -9.43935,11.69385 -15.97198,14.1462 -3.796986,1.42539 -57.024746,2.26421 -63.759456,1.00478 z m 42.07049,-18.11417 c 0.26199,-0.4239 -0.48457,-5.70954 -1.65903,-11.74585 l -2.13536,-10.97511 2.27752,-3.35508 c 4.01593,-5.91597 1.66483,-13.00912 -5.28733,-15.95166 -6.06512,-2.56709 -11.72697,-1.22972 -16.52197,3.9026 -3.03268,3.24603 -3.10418,8.12101 -0.17718,12.07999 l 2.17184,2.93758 -1.98009,10.3496 c -1.08905,5.69229 -1.98009,11.0649 -1.98009,11.93914 0,1.39829 1.49276,1.58953 12.40767,1.58953 6.82422,0 12.62203,-0.34683 12.88402,-0.77074 z m 17.57111,-72.99557 c -0.66232,-13.17277 -1.99105,-16.73624 -8.3993,-22.52571 -13.80262,-12.46983 -36.99334,-10.29746 -47.58987,4.45795 -4.23184,5.89273 -5.18511,10.29957 -4.46564,20.64399 l 0.61685,8.8688 30.2067,0 30.20671,0 -0.57545,-11.44503 z"
     style="fill:#000000;fill-opacity:0" />
  <path
     style="opacity:0.953;fill:#ffffff;fill-opacity:1;fill-rule:evenodd;stroke:#ffffff;stroke-width:0.95878887;stroke-opacity:0"
     d="m 45.97983,129.02757 -8.96197,-0.31762 0.33287,-12.82768 c 0.18308,-7.05522 0.64698,-13.14128 1.03088,-13.52456 0.38391,-0.38328 2.86477,-0.90507 5.51304,-1.15954 4.75759,-0.45714 4.81502,-0.50198 4.81502,-3.759463 0,-3.96737 1.47006,-7.00589 3.3895,-7.00589 2.14716,0 1.73267,-1.56804 -2.37653,-8.990465 C 43.37847,69.982893 44.44867,70.380386 36.38584,76.488805 28.938,82.131302 27.20701,82.632913 22.88897,80.399966 13.96158,75.783435 11.3599,63.104542 18.05638,56.849092 21.15851,53.951265 35.38406,47.79889 50.5566,42.793143 c 9.2636,-3.056264 10.88214,-3.30905 18.76703,-2.931085 l 8.6291,0.413639 5.4149,-5.731257 c 4.61502,-4.884651 5.77384,-5.64117 7.8448,-5.121392 1.91418,0.480429 2.56289,0.190825 3.05654,-1.364536 0.5728,-1.804729 3.913363,-3.782131 6.38942,-3.782131 0.63918,0 0.86697,2.215795 0.62249,6.055255 -0.48795,7.663131 -4.94623,17.275487 -8.2287,17.741648 -1.73702,0.246683 -2.04889,0.744346 -1.59636,2.547367 0.30932,1.232435 0.0827,3.137077 -0.50355,4.232538 -0.91017,1.700669 -0.0666,3.780481 5.77257,14.231438 9.19073,16.449738 14.59556,23.8423 19.88318,27.19561 6.80581,4.316103 9.31779,3.818183 18.06618,-3.58103 2.72077,-2.30119 5.15943,-4.18397 5.41924,-4.18397 0.97934,0 2.57741,6.19039 2.57396,9.970655 -0.006,6.535408 -2.40039,9.118738 -14.47266,15.614438 -6.01241,3.23508 -15.93121,8.07816 -22.04175,10.7624 l -11.1101,4.88043 -20.05055,-0.19899 c -11.02779,-0.10944 -24.08343,-0.34192 -29.01251,-0.5166 z m 48.98815,-2.21029 c 5.29256,-1.46983 10.31024,-7.02334 10.31024,-11.41127 0,-4.32834 -1.38487,-5.79742 -5.465097,-5.79742 -3.578673,0 -4.292503,-1.6487 -1.00672,-2.32519 13.617817,-2.80369 17.009857,-3.70409 18.561527,-4.92702 1.75511,-1.38326 1.73654,-1.47959 -0.58424,-3.030918 -7.0795,-4.732275 -12.43695,-12.177345 -25.60757,-35.58603 l -2.88106,-5.120629 -7.67007,10.873362 c -4.21854,5.980351 -8.43769,12.073331 -9.37589,13.539955 -0.9382,1.466626 -1.92219,2.450229 -2.18663,2.185786 -0.26444,-0.264443 0.07,-5.262473 0.74312,-11.106733 1.2182,-10.576262 1.23683,-10.62851 3.98639,-11.178422 3.70581,-0.741162 4.11169,-1.718522 1.25432,-3.020425 -2.86435,-1.305086 -2.86163,-1.233392 -0.35427,-9.351307 1.9526,-6.321764 1.95975,-6.556075 0.2397,-7.85372 -4.36412,-3.292397 -22.70868,0.48222 -39.75377,8.179823 l -6.12346,2.765368 4.13386,2.61942 c 4.81226,3.049295 10.95754,11.149439 18.45048,24.319766 l 5.32614,9.361741 7.89471,0.4794 c 8.9381,0.54275 10.08993,1.38915 9.29888,6.83311 l -0.50528,3.477353 5.26468,0.43659 c 2.89557,0.24012 5.58876,0.75951 5.98487,1.15418 0.39611,0.39468 0.85552,5.75242 1.0209,11.90609 0.37157,13.82534 1.06707,14.79252 9.04424,12.57714 z m 33.49289,-15.2689 c 9.28199,-5.18808 12.29254,-8.49203 12.29254,-13.490473 0,-5.08701 -1.87818,-5.69619 -6.4531,-2.09302 -4.67353,3.680825 -11.35272,7.013193 -20.68098,10.318143 -5.48055,1.94172 -7.33791,3.01715 -6.95122,4.02485 0.29023,0.75632 0.52769,3.68829 0.52769,6.5155 l 0,5.14037 7.12294,-3.24603 c 3.91762,-1.78531 10.28158,-5.01152 14.14213,-7.16934 z M 30.49466,78.445573 c 1.53729,-1.852319 0.61421,-6.58212 -1.91114,-9.79258 -2.56078,-3.255511 -2.47931,-3.591605 1.42977,-5.898017 1.84567,-1.088972 3.35576,-2.410773 3.35576,-2.937338 0,-1.310182 -2.6909,-2.640881 -6.95975,-3.441723 -3.21808,-0.603715 -3.89929,-0.3389 -6.93357,2.695386 -4.20289,4.202884 -4.451,8.209277 -0.85211,13.759581 3.99272,6.157698 9.32664,8.6805 11.87104,5.614691 z m 10.54467,-9.685202 c 4e-5,-1.536198 -4.4844,-6.137777 -5.94662,-6.101943 -1.52705,0.03742 -4.60003,2.28733 -4.60003,3.367952 0,0.43454 0.8971,2.643229 1.99355,4.908198 l 1.99355,4.118124 3.27976,-2.616925 c 1.80387,-1.439309 3.27978,-3.093242 3.27979,-3.675406 z"
     id="path4839"
     inkscape:connector-curvature="0" />
  <path
     style="opacity:0.953;fill:#ffffff;fill-opacity:1;fill-rule:evenodd;stroke:#ffffff;stroke-width:0.71195912;stroke-opacity:0"
     id="path4855"
     d="m 70.146443,84.299519 c -0.221666,0.651823 -0.448067,1.292515 -0.637043,1.99385 -0.163902,0.634606 -0.337083,1.25678 -0.50472,1.886615 -0.16098,0.657291 -0.324975,1.313413 -0.461952,1.997285 -0.06592,0.29223 -0.11443,0.600501 -0.16891,0.90339 0,0 -1.188092,-0.307769 -1.188092,-0.307769 l 0,0 c 0.05739,-0.309201 0.110236,-0.620741 0.180176,-0.917808 0.158821,-0.671948 0.332641,-1.326009 0.481327,-2.009788 0.161161,-0.644333 0.333239,-1.270128 0.512567,-1.890587 0.186989,-0.677117 0.402023,-1.310963 0.589948,-1.986715 0,0 1.196699,0.331527 1.196699,0.331527 z"
     inkscape:connector-curvature="0" />
</svg>
