<?xml version="1.0" encoding="UTF-8" standalone="no"?>
<svg
   xmlns:dc="http://purl.org/dc/elements/1.1/"
   xmlns:cc="http://creativecommons.org/ns#"
   xmlns:rdf="http://www.w3.org/1999/02/22-rdf-syntax-ns#"
   xmlns:svg="http://www.w3.org/2000/svg"
   xmlns="http://www.w3.org/2000/svg"
   xmlns:sodipodi="http://sodipodi.sourceforge.net/DTD/sodipodi-0.dtd"
   xmlns:inkscape="http://www.inkscape.org/namespaces/inkscape"
   version="1.1"
   id="svg2"
   viewBox="0 0 160 160"
   height="160"
   width="160"
   inkscape:version="0.91 r13725"
   sodipodi:docname="portfolio.svg">
  <sodipodi:namedview
     pagecolor="#ffffff"
     bordercolor="#666666"
     borderopacity="1"
     objecttolerance="10"
     gridtolerance="10"
     guidetolerance="10"
     inkscape:pageopacity="0"
     inkscape:pageshadow="2"
     inkscape:window-width="1330"
     inkscape:window-height="658"
     id="namedview22"
     showgrid="false"
     fit-margin-top="0"
     fit-margin-left="0"
     fit-margin-right="0"
     fit-margin-bottom="0"
     inkscape:zoom="1.475"
     inkscape:cx="79.322034"
     inkscape:cy="80.67797"
     inkscape:window-x="112"
     inkscape:window-y="0"
     inkscape:window-maximized="0"
     inkscape:current-layer="svg2" />
  <metadata
     id="metadata20">
    <rdf:RDF>
      <cc:Work
         rdf:about="">
        <dc:format>image/svg+xml</dc:format>
        <dc:type
           rdf:resource="http://purl.org/dc/dcmitype/StillImage" />
        <dc:title></dc:title>
      </cc:Work>
    </rdf:RDF>
  </metadata>
  <defs
     id="defs18">
    <linearGradient
       id="linearGradient3684">
      <stop
         id="stop3686"
         offset="0"
         style="stop-color:#000000;stop-opacity:1;" />
      <stop
         style="stop-color:#000000;stop-opacity:0.86666667;"
         offset="0.89795917"
         id="stop3692" />
      <stop
         id="stop3688"
         offset="1"
         style="stop-color:#000000;stop-opacity:0;" />
    </linearGradient>
  </defs>
  <g
     transform="matrix(1,0,0,-1,0,160)"
     style="fill:#d45500;fill-opacity:1"
     id="g4">
    <path
       style="fill:#d45500;fill-opacity:1"
       id="path6"
       d="M 160,80 C 160,35.817 124.183,0 80,0 35.817,0 0,35.817 0,80 c 0,44.183 35.817,80 80,80 44.183,0 80,-35.817 80,-80"
       inkscape:connector-curvature="0" />
    <path
       style="fill:#d45500;fill-opacity:1"
       id="path8"
       d="m 135.255,64.654 c 0,0 -2.991,-2.838 -15.901,-2.838 -10.599,0 -16.277,2.083 -16.277,2.838 0,0.757 -3.597,9.654 -1.893,27.825 0,0 0.814,4.164 -3.974,2.84 C 82.824,91.342 75.072,79.228 59.164,71.469 44.844,64.484 33.815,64.086 19.227,64.844 c 0,0 -0.893,-1.373 -2.78,-0.971 -3.156,0.671 -4.81,5.28 -2.523,6.551 2.016,1.12 3.789,-0.091 3.789,-0.091 0,0 22.713,-3.028 40.506,18.361 16.258,19.545 30.851,30.662 52.619,30.284 9.512,-0.165 19.352,-5.129 23.117,-13.98 3.807,-8.952 4.254,-32.23 1.3,-40.344"
       inkscape:connector-curvature="0" />
    <path
       style="fill:#d45500;fill-opacity:1"
       id="path10"
       d="m 135.515,65.442 -0.003,-0.012 c -0.075,-0.243 -0.151,-0.472 -0.23,-0.694 l -0.067,-0.115 c -0.383,-0.318 -3.774,-2.805 -15.861,-2.805 -10.599,0 -16.277,2.083 -16.277,2.838 0,0.134 -0.115,0.533 -0.288,1.175 0.738,2.226 7.76,3.975 16.326,3.975 9.059,0 16.4,-1.955 16.4,-4.362"
       inkscape:connector-curvature="0" />
    <path
       style="fill:#d45500;fill-opacity:1"
       id="path12"
       d="M 51.088,81.537 55.901,69.975 C 53.93,69.123 52.016,68.397 50.137,67.777 l -4.166,10.005 c 1.703,1.09 3.415,2.337 5.117,3.755"
       inkscape:connector-curvature="0" />
    <path
       style="fill:#d45500;fill-opacity:1"
       id="path14"
       d="m 108.918,65.812 c 0,0.912 4.669,1.653 10.43,1.653 5.759,0 10.427,-0.741 10.427,-1.653 0,-0.915 -4.668,-1.657 -10.427,-1.657 -5.761,0 -10.43,0.742 -10.43,1.657"
       inkscape:connector-curvature="0" />
  </g>
  <path
     style="fill:#ffffff"
     d="m 29.262027,126.08371 c -1.79938,-0.56775 -3.50632,-2.02534 -4.38207,-3.74194 -0.84055,-1.64762 -0.87998,-2.69507 -0.87998,-23.376844 l 0,-20.035379 1.66453,1.676264 c 2.79306,2.812752 6.03972,4.677636 10.04085,5.767473 l 2.14778,0.585015 16.37678,0.06949 16.37679,0.06949 0.001,3.050608 c 0.002,3.759902 0.18498,4.47779 1.47281,5.761872 1.29092,1.287263 2.17719,1.476897 6.90223,1.476897 4.69544,0 5.54568,-0.182119 6.8761,-1.472834 1.32097,-1.281551 1.49753,-1.960687 1.49903,-5.765935 l 0.001,-3.050608 16.376783,-0.06949 16.37679,-0.06949 2.14778,-0.585015 c 4.00114,-1.089837 7.24779,-2.954721 10.04085,-5.767473 l 1.66453,-1.676264 0,20.035379 c 0,13.553624 -0.0758,20.445464 -0.23433,21.302984 -0.44376,2.40052 -1.84671,4.28683 -3.99884,5.37659 l -1.24375,0.62974 -49.184063,0.0403 c -39.09192,0.032 -49.36035,-0.0153 -50.04317,-0.2308 z m 45.34105,-33.117558 c -0.0717,-0.186852 -0.13037,-3.791894 -0.13037,-8.011203 0,-5.68033 0.0669,-7.738365 0.25773,-7.929203 0.18215,-0.182147 1.43972,-0.257733 4.288,-0.257733 3.76478,0 4.0449,0.02736 4.25259,0.415435 0.2393,0.447129 0.32512,15.175124 0.092,15.782704 -0.1128,0.293953 -0.70302,0.339733 -4.37996,0.339733 -3.67694,0 -4.26716,-0.04578 -4.37996,-0.339733 z m -35.13911,-9.900863 c -4.30584,-0.442812 -7.93786,-2.1701 -10.95366,-5.209252 -2.05022,-2.066095 -3.16942,-3.828601 -3.98357,-6.273285 l -0.55347,-1.661908 0.0744,-10.161096 c 0.0653,-8.912964 0.11895,-10.274503 0.43707,-11.084352 0.55188,-1.404922 1.61405,-2.749948 2.82547,-3.577872 2.20496,-1.506935 -1.53392,-1.405255 51.67283,-1.405255 53.206743,0 49.467863,-0.10168 51.672813,1.405255 1.19159,0.814368 2.14931,2.02823 2.78879,3.534629 0.38097,0.897443 0.41518,1.69625 0.47888,11.180265 l 0.0686,10.213768 -0.64318,1.76234 c -2.01314,5.516132 -6.35764,9.31692 -12.4843,10.921884 -1.24042,0.324947 -3.18368,0.374507 -17.432,0.44458 l -16.035953,0.07887 -0.0724,-3.501394 c -0.0675,-3.265467 -0.10854,-3.565875 -0.60931,-4.458357 -0.29532,-0.526327 -0.95603,-1.251202 -1.46825,-1.610832 l -0.9313,-0.653869 -5.33244,0 -5.33244,0 -0.9313,0.653869 c -0.51222,0.35963 -1.17293,1.084505 -1.46825,1.610832 -0.50056,0.892106 -0.54184,1.193504 -0.60912,4.447098 l -0.0722,3.490136 -15.17703,-0.03437 c -8.34736,-0.01891 -15.5153,-0.06917 -15.92874,-0.111684 z m 20.23832,-45.97743 c 0.0796,-2.179482 0.19359,-2.94843 0.55846,-3.767361 0.63309,-1.42095 2.39433,-3.221312 3.75191,-3.835248 l 1.11723,-0.505244 13.85315,0 13.85315,0 1.2221,0.600139 c 0.73236,0.359637 1.65563,1.074483 2.3039,1.783796 1.45774,1.594993 1.95083,3.16964 1.95083,6.229791 l 0,2.232541 -3.11428,0 -3.11427,0 0,-2.10482 c 0,-1.350713 -0.0923,-2.19716 -0.25773,-2.362554 -0.37217,-0.372169 -25.31523,-0.372169 -25.6874,0 -0.16539,0.165394 -0.25773,1.011841 -0.25773,2.362554 l 0,2.10482 -3.13967,0 -3.13967,0 0.10002,-2.738414 z"
     id="path4215"
     inkscape:connector-curvature="0" />
</svg>
