<?xml version="1.0" encoding="UTF-8" standalone="no"?>
<svg
   xmlns:dc="http://purl.org/dc/elements/1.1/"
   xmlns:cc="http://creativecommons.org/ns#"
   xmlns:rdf="http://www.w3.org/1999/02/22-rdf-syntax-ns#"
   xmlns:svg="http://www.w3.org/2000/svg"
   xmlns="http://www.w3.org/2000/svg"
   xmlns:sodipodi="http://sodipodi.sourceforge.net/DTD/sodipodi-0.dtd"
   xmlns:inkscape="http://www.inkscape.org/namespaces/inkscape"
   width="160"
   height="160"
   viewBox="0 0 160 160"
   id="svg2"
   version="1.1"
   inkscape:version="0.91 r13725"
   sodipodi:docname="profile.svg">
  <metadata
     id="metadata20">
    <rdf:RDF>
      <cc:Work
         rdf:about="">
        <dc:format>image/svg+xml</dc:format>
        <dc:type
           rdf:resource="http://purl.org/dc/dcmitype/StillImage" />
      </cc:Work>
    </rdf:RDF>
  </metadata>
  <defs
     id="defs18" />
  <sodipodi:namedview
     pagecolor="#ffffff"
     bordercolor="#666666"
     borderopacity="1"
     objecttolerance="10"
     gridtolerance="10"
     guidetolerance="10"
     inkscape:pageopacity="0"
     inkscape:pageshadow="2"
     inkscape:window-width="1210"
     inkscape:window-height="856"
     id="namedview16"
     showgrid="false"
     inkscape:zoom="1.475"
     inkscape:cx="-96.610169"
     inkscape:cy="115.20222"
     inkscape:window-x="282"
     inkscape:window-y="21"
     inkscape:window-maximized="0"
     inkscape:current-layer="svg2" />
  <g
     fill="none"
     id="g4"
     style="fill:#008000;fill-opacity:1">
    <path
       d="M160 80c0-44.183-35.817-80-80-80s-80 35.817-80 80 35.817 80 80 80 80-35.817 80-80"
       fill="#DAAE23"
       id="path6"
       style="fill:#008000;fill-opacity:1" />
    <path
       d="M135.255 64.654s-2.991-2.838-15.901-2.838c-10.599 0-16.277 2.083-16.277 2.838 0 .757-3.597 9.654-1.893 27.825 0 0 .814 4.164-3.974 2.84-14.386-3.977-22.138-16.091-38.046-23.85-14.32-6.985-25.349-7.383-39.937-6.625 0 0-.893-1.373-2.78-.971-3.156.671-4.81 5.28-2.523 6.551 2.016 1.12 3.789-.091 3.789-.091s22.713-3.028 40.506 18.361c16.258 19.545 30.851 30.662 52.619 30.284 9.512-.165 19.352-5.129 23.117-13.98 3.807-8.952 4.254-32.23 1.3-40.344"
       fill="#1A1918"
       id="path8"
       style="fill:#008000;fill-opacity:1" />
    <path
       d="M135.515 65.442l-.003-.012c-.075-.243-.151-.472-.23-.694l-.067-.115c-.383-.318-3.774-2.805-15.861-2.805-10.599 0-16.277 2.083-16.277 2.838 0 .134-.115.533-.288 1.175.738 2.226 7.76 3.975 16.326 3.975 9.059 0 16.4-1.955 16.4-4.362"
       fill="#fff"
       id="path10"
       style="fill:#008000;fill-opacity:1" />
    <path
       d="M51.088 81.537l4.813-11.562c-1.971-.852-3.885-1.578-5.764-2.198l-4.166 10.005c1.703 1.09 3.415 2.337 5.117 3.755"
       fill="#fff"
       id="path12"
       style="fill:#008000;fill-opacity:1" />
    <path
       d="M108.918 65.812c0 .912 4.669 1.653 10.43 1.653 5.759 0 10.427-.741 10.427-1.653 0-.915-4.668-1.657-10.427-1.657-5.761 0-10.43.742-10.43 1.657"
       fill="#1A1918"
       id="path14"
       style="fill:#008000;fill-opacity:1" />
  </g>
  <path
     style="fill:#ffffff"
     d="m 56.154526,128.78568 c -6.760135,-0.93274 -11.753965,-4.36513 -11.760282,-8.08316 -0.0046,-2.40243 4.987448,-6.78981 6.885891,-6.05247 0.424192,0.16475 0.771248,0.71164 0.771248,1.21532 0,0.68968 -0.175981,0.76794 -0.712834,0.31698 -0.525011,-0.44101 -1.173694,-0.31512 -2.461883,0.47778 -2.064566,1.27078 -2.382092,3.6637 -0.691614,5.21213 2.053057,1.88054 6.466578,-0.0517 12.619697,-5.52477 6.061328,-5.39147 11.22936,-6.81033 15.505191,-4.25692 l 2.001522,1.19526 1.930768,-1.153 c 2.405756,-1.43666 6.398665,-1.55843 9.050118,-0.27601 1.074688,0.51979 3.598347,2.42247 5.608124,4.22816 6.591578,5.92223 10.935558,7.61676 13.501238,5.26668 1.52741,-1.39906 1.22153,-3.46495 -0.72971,-4.92823 l -1.54976,-1.16222 -0.9934,1.23787 c -0.75435,0.93999 -1.06353,1.05288 -1.28485,0.46911 -0.16031,-0.42281 0.0125,-1.18951 0.38406,-1.7038 0.58066,-0.80373 0.99386,-0.84829 2.94207,-0.31733 3.01894,0.82277 4.51353,2.80931 4.51353,5.99912 0,5.3474 -5.82139,8.08036 -17.233177,8.09045 -7.180365,0.006 -11.170653,-1.05981 -14.464007,-3.86461 l -1.590444,-1.35451 -1.472831,1.38154 c -3.458665,3.24428 -12.248459,4.76223 -20.768665,3.58663 z M 49.441259,95.188721 c -0.105107,-10.335529 -9.2e-5,-12.320365 0.651865,-12.320365 0.427429,0 0.940672,-0.753497 1.140512,-1.674434 0.50439,-2.324319 2.820237,-4.937449 5.445338,-6.14434 9.355817,-4.30133 18.703113,6.098525 13.354305,14.858087 -3.190138,5.224412 -11.489025,6.223382 -15.979166,1.923478 -1.931035,-1.849218 -3.096899,-4.054208 -3.096899,-5.857129 0,-0.758525 -0.241258,-1.530045 -0.536134,-1.714496 -0.341873,-0.213854 -0.593809,3.937428 -0.69532,11.457099 L 49.566554,107.50908 49.441259,95.188721 Z m 16.544617,-2.509302 c 7.203233,-4.129288 6.560858,-14.363064 -1.087124,-17.319303 -6.506188,-2.514888 -13.391129,2.141606 -13.393601,9.05848 -9.22e-4,2.752651 0.903765,4.757997 3.096042,6.862304 3.076057,2.952607 7.685867,3.518891 11.384683,1.398519 z M 61.078284,66.806013 C 48.210285,66.234077 42.734236,64.762759 38.080158,60.626836 34.885114,57.787504 33.51811,54.038165 35.410042,53.303354 c 1.964254,-0.762903 7.553351,0.395493 12.865897,2.666583 0.761998,0.32575 0.915219,-0.432678 1.188394,-5.882584 0.517145,-10.317102 2.824037,-19.066893 6.212502,-23.563305 6.191004,-8.215327 36.107616,-9.118907 44.643515,-1.348379 4.16987,3.795981 7.00904,12.991853 7.83835,25.387933 l 0.37634,5.625351 3.53725,-1.347573 c 4.66347,-1.776626 9.51006,-2.315534 10.45546,-1.162574 1.69015,2.061218 -1.41274,6.483992 -6.45875,9.206125 -5.64686,3.04627 -10.68627,3.753813 -29.029991,4.07587 -8.862258,0.155596 -20.544575,0.08594 -25.960725,-0.154788 z"
     id="path4220"
     inkscape:connector-curvature="0" />
</svg>
