<?xml version="1.0" encoding="UTF-8" standalone="no"?>
<svg
   xmlns:dc="http://purl.org/dc/elements/1.1/"
   xmlns:cc="http://creativecommons.org/ns#"
   xmlns:rdf="http://www.w3.org/1999/02/22-rdf-syntax-ns#"
   xmlns:svg="http://www.w3.org/2000/svg"
   xmlns="http://www.w3.org/2000/svg"
   xmlns:sodipodi="http://sodipodi.sourceforge.net/DTD/sodipodi-0.dtd"
   xmlns:inkscape="http://www.inkscape.org/namespaces/inkscape"
   version="1.1"
   id="svg2"
   viewBox="0 0 160 160"
   height="160"
   width="160"
   inkscape:version="0.91 r13725"
   sodipodi:docname="signup.svg">
  <sodipodi:namedview
     pagecolor="#ffffff"
     bordercolor="#666666"
     borderopacity="1"
     objecttolerance="10"
     gridtolerance="10"
     guidetolerance="10"
     inkscape:pageopacity="0"
     inkscape:pageshadow="2"
     inkscape:window-width="1623"
     inkscape:window-height="804"
     id="namedview23"
     showgrid="false"
     fit-margin-top="0"
     fit-margin-left="0"
     fit-margin-right="0"
     fit-margin-bottom="0"
     inkscape:zoom="1.475"
     inkscape:cx="87.45534"
     inkscape:cy="-27.118652"
     inkscape:window-x="0"
     inkscape:window-y="0"
     inkscape:window-maximized="0"
     inkscape:current-layer="svg2" />
  <metadata
     id="metadata20">
    <rdf:RDF>
      <cc:Work
         rdf:about="">
        <dc:format>image/svg+xml</dc:format>
        <dc:type
           rdf:resource="http://purl.org/dc/dcmitype/StillImage" />
        <dc:title></dc:title>
      </cc:Work>
    </rdf:RDF>
  </metadata>
  <defs
     id="defs18">
    <linearGradient
       id="linearGradient3684">
      <stop
         id="stop3686"
         offset="0"
         style="stop-color:#000000;stop-opacity:1;" />
      <stop
         style="stop-color:#000000;stop-opacity:0.86666667;"
         offset="0.89795917"
         id="stop3692" />
      <stop
         id="stop3688"
         offset="1"
         style="stop-color:#000000;stop-opacity:0;" />
    </linearGradient>
  </defs>
  <g
     transform="matrix(1,0,0,-1,0,160)"
     style="fill:#00ff00;fill-opacity:1"
     id="g4">
    <path
       style="fill:#00ff00;fill-opacity:1"
       id="path6"
       d="M 160,80 C 160,35.817 124.183,0 80,0 35.817,0 0,35.817 0,80 c 0,44.183 35.817,80 80,80 44.183,0 80,-35.817 80,-80"
       inkscape:connector-curvature="0" />
    <path
       style="fill:#00ff00;fill-opacity:1"
       id="path8"
       d="m 135.255,64.654 c 0,0 -2.991,-2.838 -15.901,-2.838 -10.599,0 -16.277,2.083 -16.277,2.838 0,0.757 -3.597,9.654 -1.893,27.825 0,0 0.814,4.164 -3.974,2.84 C 82.824,91.342 75.072,79.228 59.164,71.469 44.844,64.484 33.815,64.086 19.227,64.844 c 0,0 -0.893,-1.373 -2.78,-0.971 -3.156,0.671 -4.81,5.28 -2.523,6.551 2.016,1.12 3.789,-0.091 3.789,-0.091 0,0 22.713,-3.028 40.506,18.361 16.258,19.545 30.851,30.662 52.619,30.284 9.512,-0.165 19.352,-5.129 23.117,-13.98 3.807,-8.952 4.254,-32.23 1.3,-40.344"
       inkscape:connector-curvature="0" />
    <path
       style="fill:#00ff00;fill-opacity:1"
       id="path10"
       d="m 135.515,65.442 -0.003,-0.012 c -0.075,-0.243 -0.151,-0.472 -0.23,-0.694 l -0.067,-0.115 c -0.383,-0.318 -3.774,-2.805 -15.861,-2.805 -10.599,0 -16.277,2.083 -16.277,2.838 0,0.134 -0.115,0.533 -0.288,1.175 0.738,2.226 7.76,3.975 16.326,3.975 9.059,0 16.4,-1.955 16.4,-4.362"
       inkscape:connector-curvature="0" />
    <path
       style="fill:#00ff00;fill-opacity:1"
       id="path12"
       d="M 51.088,81.537 55.901,69.975 C 53.93,69.123 52.016,68.397 50.137,67.777 l -4.166,10.005 c 1.703,1.09 3.415,2.337 5.117,3.755"
       inkscape:connector-curvature="0" />
    <path
       style="fill:#00ff00;fill-opacity:1"
       id="path14"
       d="m 108.918,65.812 c 0,0.912 4.669,1.653 10.43,1.653 5.759,0 10.427,-0.741 10.427,-1.653 0,-0.915 -4.668,-1.657 -10.427,-1.657 -5.761,0 -10.43,0.742 -10.43,1.657"
       inkscape:connector-curvature="0" />
  </g>
  <path
     style="fill:#ffffff"
     d="m 48.855774,140.79287 c -5.04094,-0.92057 -9.24186,-4.44871 -10.92018,-9.17133 -0.92168,-2.59351 -0.86693,0.67171 -0.82316,-49.089741 l 0.04,-45.46306 0.34424,-1.21844 c 0.43089,-1.52517 1.36952,-3.5039 2.23451,-4.71055 0.77688,-1.08375 2.28321,-2.59863 3.36115,-3.380243 1.09959,-0.797312 3.31528,-1.820969 4.80424,-2.219579 l 1.28796,-0.344801 26.1584,-0.04412 c 14.38711,-0.02426 26.158386,-0.01261 26.158386,0.02589 0,0.03851 -1.2406,2.027414 -2.756896,4.419793 l -2.7569,4.34979 -21.26923,0.002 c -18.41761,0.002 -21.39984,0.033 -22.24349,0.23191 -3.19707,0.75362 -5.80566,3.44572 -6.488,6.69572 -0.33773,1.60858 -0.33773,82.768431 0,84.377011 0.71832,3.42134 3.45961,6.14817 6.89508,6.8587 0.96683,0.19996 4.56027,0.22397 28.17644,0.18826 25.847156,-0.0391 27.106056,-0.0536 27.905946,-0.32199 2.96287,-0.99411 5.13192,-3.21273 6.05469,-6.19306 0.23902,-0.77199 0.26243,-2.95146 0.30348,-28.251431 l 0.0445,-27.41491 4.27674,-5.7876 c 2.35221,-3.18317 4.30535,-5.81729 4.34031,-5.85358 0.035,-0.0363 0.0452,15.83008 0.0228,35.25862 l -0.0408,35.324611 -0.34862,1.21844 c -1.47163,5.14337 -5.13308,8.80297 -10.31235,10.30716 l -1.21845,0.35387 -31.070226,0.0258 c -25.01218,0.0207 -31.28281,-0.0131 -32.1605,-0.17335 z m 22.03432,-42.546071 c 0.004,-0.19523 3.6456,-18.49966 3.68752,-18.53505 0.023,-0.0194 1.82382,0.58469 4.00178,1.34248 l 3.95993,1.3778 2.27726,3.37987 c 1.25248,1.85892 2.26945,3.43441 2.25991,3.50109 -0.01,0.0667 -2.64493,1.56958 -5.85642,3.3398 -3.2115,1.77022 -6.85001,3.77639 -8.08559,4.45816 -1.23557,0.68177 -2.24555,1.1929 -2.24439,1.13585 z m 16.10919,-13.54506 c -1.21462,-1.9055 -2.1579,-3.53307 -2.09617,-3.61684 0.0617,-0.0838 7.3584,-10.02167 16.214806,-22.08423 8.8564,-12.06256 16.15858,-21.99167 16.22706,-22.0647 0.10517,-0.11214 6.10956,3.98597 6.30616,4.30409 0.0489,0.0791 -25.708896,35.18142 -33.741546,45.98241 l -0.7019,0.9438 -2.20841,-3.46453 z m -7.62148,-5.73464 c -2.0739,-0.6781 -3.77276,-1.30145 -3.77523,-1.38522 -0.005,-0.15297 33.592666,-46.46572 33.802016,-46.5951 0.12651,-0.0782 6.54544,4.49634 6.55774,4.67346 0.008,0.11268 -32.314556,44.04774 -32.644566,44.373 -0.12292,0.12115 -1.20086,-0.17054 -3.93996,-1.06614 z m 39.176966,-45.32521 c -3.80885,-2.76433 -6.98553,-5.116439 -7.05929,-5.226913 -0.17291,-0.258983 2.14724,-3.503575 2.42825,-3.395744 0.38042,0.145982 14.07865,10.175897 14.07865,10.308467 0,0.16851 -2.31062,3.34024 -2.43338,3.34024 -0.049,0 -3.20539,-2.26172 -7.01423,-5.02605 z m 4.0686,-5.747058 c -3.9051,-2.828523 -7.09997,-5.211306 -7.09971,-5.295074 3.1e-4,-0.08377 0.54428,-0.886239 1.20893,-1.783268 l 1.20844,-1.630963 0.47586,0.165885 c 1.05199,0.366725 5.02219,2.445581 6.28469,3.290758 0.73948,0.495039 1.96439,1.407654 2.72203,2.028033 1.32337,1.083622 3.92187,3.68856 4.5266,4.537817 l 0.29028,0.40767 -1.1871,1.6396 c -0.65291,0.90177 -1.21922,1.6717 -1.25847,1.71095 -0.0392,0.0392 -3.26644,-2.24288 -7.17155,-5.071408 z"
     id="path3416"
     inkscape:connector-curvature="0" />
</svg>
