<svg width="24" height="24" viewBox="0 0 24 24" xmlns="http://www.w3.org/2000/svg"><g fill="none"><path d="M24 12c0-6.627-5.372-12-12-12s-12 5.373-12 12c0 6.628 5.372 12 12 12s12-5.372 12-12" fill="#7FD0E5"/><path d="M7.323 15.097c-1.249-2.134-1.641-4.995-1.641-6.972 0-1.253 2.861-1.072 6.391-1.072h4.822c.197-.034.399-.052.606-.052 1.933 0 3.5 1.567 3.5 3.5s-1.567 3.5-3.5 3.5l-.073-.001c-.155.378-.331.744-.531 1.091 3.046-.087 5.104-.181 5.104.082 0 .864-4.394 2.791-9.846 2.827l-.082.001h-.07300000000000001c-5.523 0-10-1.956-10-2.828 0-.269 2.157-.165 5.323-.076zm10.48-2.167c1.192-.146 2.114-1.162 2.114-2.393 0-.992-.599-1.845-1.456-2.215-.015 1.33-.183 3.017-.659 4.608z" fill="#fff"/></g></svg>