<?xml version="1.0" encoding="UTF-8" standalone="no"?>
<svg
   xmlns:dc="http://purl.org/dc/elements/1.1/"
   xmlns:cc="http://creativecommons.org/ns#"
   xmlns:rdf="http://www.w3.org/1999/02/22-rdf-syntax-ns#"
   xmlns:svg="http://www.w3.org/2000/svg"
   xmlns="http://www.w3.org/2000/svg"
   xmlns:sodipodi="http://sodipodi.sourceforge.net/DTD/sodipodi-0.dtd"
   xmlns:inkscape="http://www.inkscape.org/namespaces/inkscape"
   version="1.1"
   id="svg2"
   viewBox="0 0 160 160"
   height="160"
   width="160"
   inkscape:version="0.91 r13725"
   sodipodi:docname="poetry.svg">
  <sodipodi:namedview
     pagecolor="#ffffff"
     bordercolor="#666666"
     borderopacity="1"
     objecttolerance="10"
     gridtolerance="10"
     guidetolerance="10"
     inkscape:pageopacity="0"
     inkscape:pageshadow="2"
     inkscape:window-width="1317"
     inkscape:window-height="792"
     id="namedview23"
     showgrid="false"
     inkscape:zoom="2.085965"
     inkscape:cx="107.13547"
     inkscape:cy="53.627998"
     inkscape:window-x="54"
     inkscape:window-y="27"
     inkscape:window-maximized="0"
     inkscape:current-layer="svg2" />
  <metadata
     id="metadata20">
    <rdf:RDF>
      <cc:Work
         rdf:about="">
        <dc:format>image/svg+xml</dc:format>
        <dc:type
           rdf:resource="http://purl.org/dc/dcmitype/StillImage" />
        <dc:title />
      </cc:Work>
    </rdf:RDF>
  </metadata>
  <defs
     id="defs18">
    <linearGradient
       id="linearGradient3684">
      <stop
         id="stop3686"
         offset="0"
         style="stop-color:#000000;stop-opacity:1;" />
      <stop
         style="stop-color:#000000;stop-opacity:0.86666667;"
         offset="0.89795917"
         id="stop3692" />
      <stop
         id="stop3688"
         offset="1"
         style="stop-color:#000000;stop-opacity:0;" />
    </linearGradient>
  </defs>
  <g
     transform="matrix(1,0,0,-1,0.68025881,160.47939)"
     style="fill:#800080;fill-opacity:1"
     id="g4">
    <path
       style="fill:#800080;fill-opacity:1"
       id="path6"
       d="M 160,80 C 160,35.817 124.183,0 80,0 35.817,0 0,35.817 0,80 c 0,44.183 35.817,80 80,80 44.183,0 80,-35.817 80,-80"
       inkscape:connector-curvature="0" />
    <path
       style="fill:#800080;fill-opacity:1"
       id="path8"
       d="m 135.255,64.654 c 0,0 -2.991,-2.838 -15.901,-2.838 -10.599,0 -16.277,2.083 -16.277,2.838 0,0.757 -3.597,9.654 -1.893,27.825 0,0 0.814,4.164 -3.974,2.84 C 82.824,91.342 75.072,79.228 59.164,71.469 44.844,64.484 33.815,64.086 19.227,64.844 c 0,0 -0.893,-1.373 -2.78,-0.971 -3.156,0.671 -4.81,5.28 -2.523,6.551 2.016,1.12 3.789,-0.091 3.789,-0.091 0,0 22.713,-3.028 40.506,18.361 16.258,19.545 30.851,30.662 52.619,30.284 9.512,-0.165 19.352,-5.129 23.117,-13.98 3.807,-8.952 4.254,-32.23 1.3,-40.344"
       inkscape:connector-curvature="0" />
    <path
       style="fill:#800080;fill-opacity:1"
       id="path10"
       d="m 135.515,65.442 -0.003,-0.012 c -0.075,-0.243 -0.151,-0.472 -0.23,-0.694 l -0.067,-0.115 c -0.383,-0.318 -3.774,-2.805 -15.861,-2.805 -10.599,0 -16.277,2.083 -16.277,2.838 0,0.134 -0.115,0.533 -0.288,1.175 0.738,2.226 7.76,3.975 16.326,3.975 9.059,0 16.4,-1.955 16.4,-4.362"
       inkscape:connector-curvature="0" />
    <path
       style="fill:#800080;fill-opacity:1"
       id="path12"
       d="M 51.088,81.537 55.901,69.975 C 53.93,69.123 52.016,68.397 50.137,67.777 l -4.166,10.005 c 1.703,1.09 3.415,2.337 5.117,3.755"
       inkscape:connector-curvature="0" />
    <path
       style="fill:#800080;fill-opacity:1"
       id="path14"
       d="m 108.918,65.812 c 0,0.912 4.669,1.653 10.43,1.653 5.759,0 10.427,-0.741 10.427,-1.653 0,-0.915 -4.668,-1.657 -10.427,-1.657 -5.761,0 -10.43,0.742 -10.43,1.657"
       inkscape:connector-curvature="0" />
  </g>
  <path
     style="fill:#ffffff"
     d="m 56.014165,131.56004 c -7.47669,-3.83964 -13.33636,-7.43304 -18.37928,-11.27095 -4.145,-3.15455 -11.91618,-10.69489 -12.8587,-12.47672 -0.7917,-1.49671 -0.97759,-5.71385 -0.27111,-6.15047 0.24593,-0.152 0.59132,-0.85079 0.76753,-1.55288 0.17622,-0.702076 2.37244,-4.027825 4.88049,-7.39054 4.82892,-6.474443 7.96979,-12.48103 12.03829,-23.021997 2.13488,-5.531215 2.40264,-5.950932 6.15503,-9.648206 4.81224,-4.741552 8.4583,-7.215409 11.99164,-8.136344 1.47992,-0.385729 3.5959,-1.102604 4.70217,-1.593055 1.10627,-0.490451 2.18111,-0.856781 2.38854,-0.814067 0.20742,0.04271 0.37713,-0.275404 0.37713,-0.706929 0,-0.692925 -1.14907,-0.754502 -9.83502,-0.527047 -6.63968,0.173869 -10.23148,0.07691 -11.05528,-0.298443 -1.24526,-0.567376 -3.24651,-4.032736 -3.24651,-5.621642 0,-1.014044 0.80446,-2.697381 1.87783,-3.929398 0.69467,-0.797342 0.86184,-0.778887 2.57535,0.284305 3.8774,2.405839 7.28903,3.081302 15.66083,3.100659 4.81121,0.01112 8.17195,0.234161 8.78126,0.582769 0.79244,0.453392 1.45351,0.328384 3.35268,-0.633997 3.82937,-1.94049 6.70742,-2.080036 10.51697,-0.509927 0.56431,0.232581 1.02604,-0.244396 1.68718,-1.74292 1.07299,-2.431987 5.15411,-7.470535 7.27314,-8.97942 l 1.49011,-1.061054 4.191905,1.538888 c 2.30554,0.846388 9.05698,3.493908 15.00318,5.883378 10.01963,4.026366 14.08605,6.169575 14.07555,7.418513 -0.003,0.276567 -1.41659,2.003459 -3.1428,3.837536 -3.32097,3.528478 -6.56728,9.015561 -5.53703,9.358977 1.85771,0.619235 6.7354,4.32304 7.40923,5.626094 0.43581,0.842759 0.76929,1.591231 0.74106,1.663271 -0.0282,0.07204 0.0983,0.726898 0.28105,1.45524 0.1828,0.728342 0.11225,2.121438 -0.15677,3.095768 -0.34536,1.250793 -0.32011,1.940428 0.0859,2.346186 0.65448,0.654068 1.13323,16.337819 0.60604,19.853426 -0.3682,2.455292 -2.582,6.18115 -3.92616,6.60776 -0.49603,0.15744 -2.76422,1.69825 -5.04041,3.424026 -10.17258,7.71272 -14.98949,11.2872 -18.24256,13.53724 -1.92265,1.32984 -4.740295,3.32897 -6.261415,4.44251 -1.52112,1.11354 -3.33695,2.40145 -4.03518,2.86204 -0.69822,0.46058 -3.52676,2.43392 -6.28562,4.3852 -8.11735,5.74119 -14.43867,8.2692 -20.67727,8.2692 -2.88614,0 -3.66209,-0.27324 -9.95897,-3.50698 z m 17.70125,-0.29389 c 1.80874,-0.6808 4.5567,-1.95745 6.10659,-2.83699 4.66702,-2.64848 21.885795,-14.96246 35.190515,-25.16646 4.59708,-3.525726 9.11368,-6.770324 10.03689,-7.210238 2.46945,-1.17671 3.17399,-3.335541 3.16863,-9.709329 -0.01,-11.526842 -0.03,-11.859377 -0.68508,-11.204329 -0.33822,0.338228 -0.54674,1.406752 -0.46336,2.374497 0.17643,2.047816 -1.56948,6.029962 -2.97309,6.78115 -0.51499,0.275617 -1.28752,1.24117 -1.71674,2.145672 -1.44036,3.035345 -8.91731,6.569592 -11.78134,5.56888 -1.24352,-0.434487 -1.32584,-0.689744 -1.68516,-5.224749 -0.61909,-7.813795 -1.23695,-11.131801 -2.26416,-12.159018 -0.92428,-0.92428 -0.97101,-0.923941 -2.16845,0.01573 -0.6731,0.528202 -3.14722,1.824255 -5.498055,2.880119 -5.60264,2.516405 -9.36713,5.000032 -11.00433,7.260133 -1.3815,1.90711 -2.15088,4.562622 -4.37093,15.086276 -2.0221,9.585366 -5.82409,18.212266 -10.23461,23.222886 -2.15184,2.44462 -6.42513,4.93673 -8.46513,4.93673 -1.27482,0 -1.27501,0.38837 -0.002,3.69941 0.53196,1.38341 0.64433,1.42438 3.03672,1.10701 1.36637,-0.18125 3.96419,-0.88657 5.77292,-1.56738 z m -12.042,-1.37104 c -0.34806,-1.13408 -0.97537,-1.97625 -1.61793,-2.17207 -0.57721,-0.17591 -3.31229,-1.92911 -6.07797,-3.896 -2.76567,-1.96688 -7.40447,-5.18154 -10.30843,-7.14368 -10.06777,-6.80255 -11.7596,-8.02782 -14.36711,-10.40503 l -2.62051,-2.38906 -0.34508,1.37492 c -0.30779,1.22635 0.026,1.72206 3.08817,4.5868 5.78796,5.4147 10.35388,9.3485 12.98741,11.18936 3.69039,2.57964 19.33619,11.15264 19.72054,10.80573 0.0602,-0.0543 -0.14644,-0.93224 -0.45909,-1.95097 z m 6.43745,-5.4285 c 4.19263,-2.57116 8.95755,-9.9081 11.24044,-17.30778 1.06747,-3.4601 3.17213,-12.893372 2.91639,-13.071577 -2.42395,-1.689084 -4.90639,-3.271061 -5.13293,-3.271061 -0.57652,0 -16.13859,-7.670588 -17.44008,-8.596255 -0.7275,-0.517433 -3.10347,-1.692749 -5.27992,-2.611814 -2.17646,-0.919065 -5.52555,-2.724312 -7.44242,-4.011658 l -3.48521,-2.340631 -1.34193,3.123114 c -3.75439,8.737698 -6.4232,13.188687 -12.19027,20.330689 l -3.33772,4.133463 3.80009,3.31426 c 2.09005,1.82282 5.64387,4.54928 7.89738,6.05878 2.2535,1.50949 6.92581,4.70241 10.38291,7.09538 3.45709,2.39296 7.8696,5.34296 9.80557,6.55556 3.21751,2.01527 3.71439,2.1769 5.78278,1.8811 1.24456,-0.17798 2.96577,-0.75468 3.82492,-1.28157 z m -11.36768,-7.93591 c -1.52112,-1.06825 -3.89708,-2.56253 -5.27992,-3.32062 -8.28895,-4.54417 -15.02956,-8.93751 -19.1041,-12.45156 -0.32027,-0.27621 -0.24358,-0.58769 0.21435,-0.870706 0.48847,-0.30189 1.59563,0.130416 3.51575,1.372776 1.54151,0.9974 6.53641,3.98446 11.09978,6.63793 9.44888,5.49425 13.66781,8.47679 13.4654,9.51927 -0.24912,1.28306 -1.09394,1.09145 -3.91126,-0.88709 z m 10.55986,1.26592 c 0,-0.77984 1.58331,-2.34076 2.37434,-2.34076 0.9721,0 1.09348,1.39986 0.19212,2.21558 -1.07987,0.97727 -2.56646,1.04978 -2.56646,0.12518 z m -3.20657,-2.10921 c -0.39514,-1.02973 0.74956,-2.80595 1.69225,-2.62584 1.06832,0.20412 1.20397,1.62711 0.2464,2.58468 -1.02043,1.02043 -1.55848,1.03185 -1.93865,0.0411 z m -3.97477,-2.04916 c -0.46942,-0.46942 1.16326,-2.70804 1.97503,-2.70804 1.00425,0 1.41452,1.37857 0.67535,2.26923 -0.63057,0.75978 -2.0881,1.0011 -2.65038,0.43881 z m 7.98627,-1.11754 c -0.14308,-0.2315 0.0827,-0.91035 0.50168,-1.50855 1.33037,-1.89936 3.29207,-1.09187 2.21891,0.91336 -0.54454,1.01746 -2.23152,1.38652 -2.72059,0.59519 z m -11.14299,-1.1356 c -0.45563,-0.73723 0.77636,-2.96915 1.63894,-2.96915 1.12074,0 1.34467,1.47271 0.38515,2.53298 -1.01286,1.11919 -1.53272,1.23122 -2.02409,0.43617 z m 8.02073,-1.16988 c -0.37025,-0.96487 0.66675,-2.80497 1.58075,-2.80497 0.89567,0 0.98972,2.05997 0.13316,2.91653 -0.79979,0.79979 -1.37865,0.76211 -1.71391,-0.11156 z m 7.0972,-0.78905 c -0.28519,-0.46145 1.19085,-2.97987 1.75719,-2.99812 0.13828,-0.005 0.57295,0.1954 0.96594,0.44413 0.60826,0.38499 0.58784,0.64556 -0.13731,1.75228 -0.87156,1.33017 -2.03607,1.69122 -2.58582,0.80171 z m -19.06045,-0.42542 c -0.14307,-0.2315 0.0827,-0.91035 0.50169,-1.50855 1.33036,-1.89937 3.29207,-1.09187 2.2189,0.91335 -0.54453,1.01747 -2.23152,1.38653 -2.72059,0.5952 z m 8.21375,-0.87555 c -0.48644,-0.58612 -0.42755,-0.93434 0.29259,-1.73009 1.54533,-1.70758 3.31961,-0.97544 2.29152,0.94558 -0.70394,1.31532 -1.85385,1.66442 -2.58411,0.78451 z m -11.31113,-1.26575 c -0.35764,-0.57867 0.69718,-2.96915 1.31016,-2.96915 1.03281,0 1.4229,1.37363 0.68804,2.4228 -0.84831,1.21113 -1.48051,1.38399 -1.9982,0.54635 z m 18.9025,-0.29422 c 0.009,-0.50324 0.34907,-1.35537 0.75617,-1.89364 0.92122,-1.21807 1.90593,-0.44772 1.65895,1.29781 -0.21119,1.49268 -2.4404,2.04264 -2.41512,0.59583 z m -11.2242,-0.82027 c -0.34655,-0.90311 1.37646,-3.09129 2.08791,-2.65158 0.31452,0.19438 0.57185,0.74737 0.57185,1.22886 0,1.68798 -2.12233,2.82324 -2.65976,1.42272 z m 15.46877,-0.36824 c -0.4383,-0.70918 1.18245,-3.10818 1.93141,-2.85882 0.98713,0.32865 1.01948,2.01472 0.0522,2.72198 -1.0926,0.79893 -1.55475,0.83081 -1.98364,0.13684 z m -27.15391,-0.50285 c -0.4383,-0.70917 1.18245,-3.10818 1.93141,-2.85883 0.98712,0.32866 1.01948,2.01474 0.0522,2.72199 -1.0926,0.79893 -1.55474,0.83081 -1.98364,0.13684 z m 19.13076,0.0363 c -0.32622,-0.52782 1.11696,-3.0313 1.74746,-3.0313 1.05667,0 1.45856,1.3615 0.71518,2.42282 -0.80708,1.15225 -1.95177,1.4351 -2.46264,0.60849 z m -11.15714,-1.3132 c -0.36817,-0.95946 1.50099,-2.99617 2.29776,-2.50374 0.78832,0.48722 0.68448,1.58859 -0.23662,2.5097 -1.00514,1.00513 -1.67388,1.00319 -2.06114,-0.006 z m 15.92543,-0.99688 c 0,-1.37341 0.98122,-2.710446 1.76765,-2.40867 0.89924,0.34507 0.9773,1.75847 0.14319,2.59258 -0.85141,0.85142 -1.91084,0.74945 -1.91084,-0.18391 z m -27.13791,-0.59549 c 0.022,-1.20861 1.1063,-2.522236 1.86969,-2.265056 0.79893,0.269136 0.81361,1.753156 0.0251,2.541616 -0.88535,0.88537 -1.91323,0.73534 -1.89484,-0.27656 z m 18.83789,0.37228 c -0.17258,-0.27924 0.15464,-1.10322 0.72717,-1.83106 0.76112,-0.967606 0.89732,-1.496426 0.50666,-1.967146 -0.62062,-0.74779 0.37808,-2.733989 1.3747,-2.733989 1.16981,0 1.27254,1.117192 0.23214,2.524409 -0.67116,0.90779 -0.84593,1.49184 -0.48265,1.61293 0.97728,0.325756 0.0205,2.902566 -1.0778,2.902566 -0.53155,0 -1.10765,-0.22848 -1.28022,-0.50771 z m -10.93969,-1.12656 c -0.32868,-0.95992 1.11262,-2.869216 1.92933,-2.555816 0.39398,0.15119 0.71633,0.65798 0.71633,1.12621 0,1.638956 -2.1721,2.812666 -2.64566,1.429606 z m 15.21691,-0.71468 c 0,-1.181366 1.46435,-2.664956 2.31008,-2.340416 1.03039,0.3954 0.86466,2.055356 -0.26562,2.660266 -1.39378,0.74593 -2.04446,0.64413 -2.04446,-0.31985 z m -27.13792,-0.29102 c 0.0257,-1.010246 1.28168,-2.388536 2.17656,-2.388536 0.96113,0 1.1016,1.53322 0.22113,2.413676 -0.79287,0.79287 -2.41806,0.77583 -2.39769,-0.0251 z m 19.10831,0 c 0.0257,-1.010246 1.28167,-2.388536 2.17656,-2.388536 0.96113,0 1.10159,1.53322 0.22113,2.413676 -0.79287,0.79287 -2.41807,0.77583 -2.39769,-0.0251 z m 16.14307,-0.0439 c -0.42626,-0.513606 -0.27138,-0.941916 0.65548,-1.812656 1.86525,-1.752312 3.31573,-0.11717 1.50357,1.694986 -0.96596,0.96596 -1.43387,0.99146 -2.15905,0.11767 z m -27.22176,-0.869096 c 0,-1.14977 1.08882,-2.48119 2.02909,-2.48119 1.11701,0 1.34808,1.45019 0.38459,2.41368 -0.74754,0.747526 -2.41368,0.794136 -2.41368,0.0675 z m -11.06271,-1.6654 c 0,-1.339393 1.18585,-2.583188 1.98937,-2.086578 0.70826,0.437726 0.66434,1.935838 -0.0785,2.678718 -0.98034,0.98035 -1.91083,0.69201 -1.91083,-0.59214 z m 18.77123,0.39941 c -0.36817,-0.959445 1.50099,-2.996154 2.29776,-2.503723 0.78832,0.487211 0.68448,1.588583 -0.23662,2.509683 -1.00514,1.00514 -1.67388,1.0032 -2.06114,-0.006 z m 16.16319,-0.23167 c -0.17844,-0.28872 0.0568,-1.106854 0.52284,-1.818065 0.75284,-1.148993 0.93127,-1.209108 1.60098,-0.539402 0.59417,0.594178 0.63313,0.978989 0.18407,1.818077 -0.60684,1.13389 -1.77215,1.40624 -2.30789,0.53939 z m -27.07829,-0.752032 c -0.35986,-0.937785 0.68271,-2.745798 1.58334,-2.745798 1.08982,0 1.29493,1.487919 0.34916,2.532982 -1.076,1.188968 -1.53837,1.239878 -1.9325,0.212816 z m 7.29723,-0.904069 c -0.42626,-0.513611 -0.27138,-0.941924 0.65548,-1.812659 1.20957,-1.136331 2.29377,-1.05404 2.29377,0.174096 0,0.621785 -1.54608,2.311085 -2.11514,2.311085 -0.15178,0 -0.52713,-0.302635 -0.83411,-0.672522 z m 7.74083,0.19314 c -0.36347,-0.588109 1.2337,-2.537719 2.07897,-2.537719 0.96751,0 1.27028,0.893886 0.67776,2.001007 -0.56287,1.051741 -2.23699,1.377673 -2.75673,0.536712 z m 8.00809,-0.563544 c -0.45983,-0.744023 1.72616,-2.970121 2.59079,-2.63833 0.96816,0.371521 0.87643,1.354995 -0.21884,2.346194 -1.06122,0.960398 -1.89544,1.063141 -2.37195,0.292136 z m -26.76336,-0.578153 c -0.73081,-0.881964 1.08167,-3.131419 2.18269,-2.708919 1.04264,0.400098 0.7369,1.768041 -0.59203,2.648839 -0.85525,0.566853 -1.16117,0.578408 -1.59066,0.06008 z m 15.80747,-0.725557 c -0.52548,-0.525479 -0.36966,-1.337929 0.46613,-2.430441 0.75849,-0.99148 0.77954,-0.991978 1.48851,-0.03515 0.62991,0.850138 0.61639,1.08412 -0.10902,1.885688 -0.88623,0.979276 -1.31234,1.113154 -1.84562,0.579882 z m -8.38083,-0.866185 c 0,-0.384207 0.40557,-1.199433 0.90128,-1.811603 0.79888,-0.986572 0.97424,-1.025121 1.54344,-0.339273 0.48344,0.582501 0.50487,1.030295 0.0867,1.811603 -0.62291,1.163928 -2.53145,1.419717 -2.53145,0.339273 z m 16.0912,-0.305215 c 0,-1.071724 1.03967,-2.516167 1.81107,-2.516167 1.31913,0 0.68447,2.732624 -0.67966,2.926362 -0.62227,0.08838 -1.13141,-0.09621 -1.13141,-0.410195 z m -26.89606,-0.494372 c -0.43185,-0.698751 0.64586,-2.524645 1.49014,-2.524645 1.05466,0 1.38474,0.855756 0.77182,2.001007 -0.57547,1.075285 -1.75261,1.347789 -2.26196,0.523638 z m 15.08188,-0.508723 c -0.37917,-0.613508 1.28068,-2.98408 2.10464,-3.005823 1.06752,-0.02816 1.26713,1.004594 0.43856,2.269142 -0.83437,1.273418 -2.00238,1.611751 -2.5432,0.736681 z m -7.99775,-0.425422 c -0.14308,-0.231497 0.0827,-0.910345 0.50168,-1.50855 1.33037,-1.899361 3.29207,-1.091869 2.21891,0.913357 -0.54453,1.017462 -2.23152,1.386529 -2.72059,0.595193 z m 16.00921,-0.635522 c -0.18817,-0.304461 0.11905,-1.014752 0.68272,-1.578417 1.21454,-1.214544 2.77209,-0.885831 2.26822,0.478694 -0.57951,1.569335 -2.2711,2.199738 -2.95094,1.099723 z m -19.1066,-1.505775 c -0.35763,-0.57867 0.69718,-2.969155 1.31016,-2.969155 0.19597,0 0.64153,0.343668 0.99013,0.763709 0.5187,0.624988 0.47006,0.94467 -0.26779,1.759976 -1.021,1.12819 -1.54022,1.24199 -2.0325,0.44547 z m 7.83981,-0.329191 c 0.009,-0.483993 0.32312,-1.284913 0.69851,-1.779823 0.62722,-0.826927 0.74807,-0.834284 1.49156,-0.09079 0.61325,0.613251 0.68331,1.043973 0.2895,1.779823 -0.6592,1.231717 -2.50153,1.299174 -2.47957,0.09079 z m 8.02961,-0.532453 c 0,-1.285084 1.24473,-2.832761 1.93512,-2.406083 0.75495,0.46659 0.7417,1.946262 -0.0243,2.712253 -0.89437,0.894365 -1.91083,0.731497 -1.91083,-0.30617 z m -11.59207,-0.882336 c -0.4944,-0.595707 -0.43816,-0.93674 0.28648,-1.737458 1.20144,-1.327585 2.25429,-1.262245 2.25429,0.139898 0,1.54993 -1.69552,2.616023 -2.54077,1.59756 z m 7.82349,-0.717804 c -0.30259,-0.489595 1.20332,-2.974872 1.82132,-3.005822 0.17356,-0.0087 0.56311,0.282476 0.86567,0.647032 0.40565,0.488781 0.34831,0.95093 -0.21837,1.759976 -0.81069,1.157421 -1.95225,1.43433 -2.46862,0.598814 z m -11.30093,-1.890209 c 0.022,-1.2086 1.1063,-2.522231 1.86969,-2.265058 0.79893,0.269145 0.81361,1.753162 0.0251,2.541626 -0.88535,0.885353 -1.91323,0.735328 -1.89484,-0.276568 z m 8.19354,-0.423802 c -0.39095,-1.018805 0.43068,-2.467587 1.39942,-2.467587 1.16318,0 1.13866,2.126956 -0.0317,2.753337 -0.84693,0.453264 -1.10475,0.399399 -1.36767,-0.28575 z m -4.02096,-2.006614 c -0.36817,-0.959443 1.50099,-2.996152 2.29776,-2.503721 0.78832,0.487211 0.68448,1.588579 -0.23663,2.50968 -1.00514,1.005142 -1.67388,1.003206 -2.06113,-0.0059 z m -3.16688,-2.561217 c 0.009,-0.504268 0.31843,-1.315361 0.68807,-1.802421 0.61235,-0.806852 0.73125,-0.814279 1.33769,-0.08356 0.483,0.581986 0.52086,1.03185 0.13801,1.639839 -0.76071,1.208052 -2.18337,1.369889 -2.16377,0.246145 z m 41.1676,7.875575 c 0.089,-2.244492 3.81026,-8.038157 5.16293,-8.038157 0.21946,0 1.68593,-0.823228 3.25882,-1.829397 1.5729,-1.006168 4.91496,-2.791386 7.4268,-3.96715 l 4.567005,-2.137752 -1.50855,-0.592462 c -0.8297,-0.325854 -3.968075,-1.839494 -6.974145,-3.363644 -3.91339,-1.984178 -5.80559,-2.68585 -6.66277,-2.470711 -1.38998,0.348863 -1.55007,1.572148 -0.37558,2.869944 0.45188,0.499316 0.84787,1.761688 0.87999,2.805271 l 0.0584,1.897423 -2.51425,0.162826 c -3.43273,0.222308 -5.62454,-0.525143 -10.51492,-3.585785 -10.90762,-6.826542 -12.84191,-8.939134 -10.52686,-11.49724 1.18933,-1.314187 2.96938,-1.14043 6.0337,0.588968 2.57851,1.455219 5.3636,1.965484 5.90922,1.082649 0.40733,-0.659087 -2.05752,-2.722435 -6.68829,-5.598819 l -4.22159,-2.622224 -4.82971,1.918482 c -5.81616,2.310324 -7.37078,3.291764 -11.42843,7.21485 -2.81279,2.719513 -6.22397,8.097034 -6.22397,9.811734 0,0.320834 1.07485,1.148743 2.38854,1.839798 9.32346,4.904501 19.37895,10.126745 21.49685,11.16423 1.38284,0.677405 5.17307,2.535095 8.42274,4.128205 3.24967,1.59311 5.93105,3.144337 5.95861,3.447174 0.0813,0.893605 0.85082,-1.849775 0.90546,-3.228213 z M 112.72643,88.1297 c -0.42897,-2.643484 0.70764,-13.703809 1.58205,-15.394721 0.99786,-1.929644 5.62646,-5.617572 9.4928,-7.563578 2.84854,-1.433724 2.90484,-1.500272 1.72424,-2.038189 -1.0399,-0.473811 -1.748,-0.283919 -4.78657,1.283624 -3.96428,2.045103 -6.68385,4.488877 -7.93899,7.133899 -2.05397,4.328421 -2.43303,19.186515 -0.47027,18.433331 0.43234,-0.165901 0.56791,-0.799583 0.39674,-1.854366 z m 5.1946,-0.603229 c 2.37173,-1.389929 2.74251,-2.408744 1.1808,-3.244546 -2.51151,-1.344114 -3.22639,-5.767686 -1.50634,-9.320844 1.49451,-3.087252 4.91738,-4.225726 7.42471,-2.469521 1.06317,0.744672 1.14666,0.713388 1.67732,-0.628562 0.30716,-0.776732 0.6761,-2.379779 0.81987,-3.562328 0.2603,-2.140971 0.25586,-2.14798 -1.04546,-1.653221 -4.7485,1.805378 -9.06445,5.180443 -10.25178,8.016865 -0.78357,1.871878 -1.55557,14.140477 -0.88979,14.140477 0.22515,0 1.39096,-0.575245 2.59067,-1.27832 z m 5.75861,-6.264433 c 1.27188,-1.752154 1.53795,-3.90496 0.68619,-5.552086 -0.86701,-1.676599 -1.66048,-2.029669 -3.00638,-1.337732 -1.60909,0.827243 -2.22972,1.970254 -2.24684,4.137967 -0.0309,3.913113 2.58146,5.487185 4.56703,2.751851 z m -13.4523,-9.484899 c 0.21556,-1.347988 1.02526,-2.755387 2.5803,-4.484968 2.44471,-2.719105 2.64782,-3.127041 1.55692,-3.127041 -0.39008,0 -2.34204,-0.92524 -4.33766,-2.056089 -1.99562,-1.130849 -4.44842,-2.353098 -5.45066,-2.71611 C 102.60182,58.677795 82.281565,48.436953 78.009315,46.003945 l -2.61925,-1.491647 -2.00731,1.328369 c -3.38866,2.242515 -4.47889,4.726115 -2.53201,5.768056 0.86391,0.462352 1.1915,0.352157 1.99688,-0.67172 0.83487,-1.061365 1.21699,-1.176484 2.86364,-0.862705 2.50118,0.476616 4.85966,1.555246 7.93441,3.62874 2.61154,1.761116 2.90368,2.509153 2.12973,5.453182 -0.27089,1.030413 -0.0825,1.430328 0.97664,2.072959 1.23772,0.751006 1.4153,0.726306 3.12575,-0.434746 1.47646,-1.002211 2.19652,-1.17359 3.87452,-0.922145 3.71416,0.556564 9.552215,3.181467 11.943535,5.370046 0.73552,0.673159 0.86826,1.296344 0.63355,2.974385 -0.264,1.887466 -0.11629,2.32891 1.33236,3.981891 0.89611,1.022496 1.76927,1.787957 1.94037,1.701024 0.17109,-0.08693 0.45244,-1.042056 0.62521,-2.122495 z M 86.411355,71.01518 c 0,-0.380988 -0.33942,-0.974401 -0.75427,-1.318697 -0.94344,-0.782984 -0.9804,-3.521346 -0.0644,-4.774001 0.63083,-0.862724 0.44804,-1.099454 -2.13712,-2.767655 -2.73497,-1.764877 -2.84345,-1.791191 -3.33383,-0.808676 -1.08449,2.17287 -5.20384,2.312859 -8.96699,0.304728 -2.959,-1.57901 -3.85167,-1.820429 -3.85167,-1.04167 0,0.65487 5.03054,4.393688 9.80558,7.287754 5.71789,3.465505 9.30273,4.667121 9.30273,3.118217 z m 17.346905,-2.822748 c 0.33184,-1.045516 -0.0155,-2.015901 -0.7216,-2.015901 -0.22674,0 -1.68631,-0.767198 -3.243495,-1.704884 -3.38577,-2.038805 -5.92481,-2.612695 -7.91397,-1.788762 -1.47536,0.611116 -1.94903,1.475735 -0.81647,1.490364 0.3457,0.0045 2.89138,1.117217 5.65706,2.472781 5.654165,2.771324 6.584805,2.975792 7.038475,1.546402 z m 16.46977,-6.305326 c 1.90409,-0.977218 2.41211,-1.702637 1.25713,-1.795096 -0.34571,-0.02768 -2.21254,-0.0911 -4.14852,-0.140943 -3.18866,-0.0821 -4.11153,-0.377235 -9.80557,-3.135879 -3.4571,-1.674889 -9.453595,-4.491854 -13.325535,-6.259921 -7.27151,-3.320428 -9.30273,-4.730436 -9.30273,-6.457653 0,-1.405957 -3.04191,-2.246263 -4.8103,-1.328811 l -1.2634,0.655459 2.71725,1.803606 c 1.49449,0.991984 4.38848,2.577173 6.43109,3.522642 2.04261,0.94547 9.25776,4.424222 16.033665,7.730562 6.77591,3.306339 12.65926,6.131028 13.07411,6.277085 0.89309,0.314431 0.76231,0.350678 3.14281,-0.871051 z M 83.803615,57.735383 c 0.11974,-0.811989 -0.42758,-1.440938 -2.26283,-2.600332 -3.49319,-2.206782 -6.02664,-2.916477 -6.9861,-1.957016 -0.66561,0.665612 -0.45694,0.917428 1.84228,2.2232 1.42611,0.809912 3.41419,1.95621 4.41797,2.547329 2.16133,1.272799 2.77602,1.228953 2.98868,-0.213181 z m 34.287305,-0.189302 c 0,-1.088807 5.45047,-9.712366 7.21619,-11.417233 l 1.75411,-1.69365 -2.83625,-1.513507 c -1.55993,-0.832428 -4.20125,-2.027294 -5.8696,-2.655256 -1.66834,-0.627963 -6.81211,-2.635552 -11.4306,-4.46131 -4.61849,-1.825758 -8.809015,-3.31956 -9.312265,-3.31956 -1.93792,0 -4.64909,3.027949 -6.89819,7.704206 -1.21509,2.526376 -2.09681,4.775335 -1.9594,4.997687 0.13742,0.222351 1.19375,0.832876 2.34739,1.356722 1.15364,0.523846 6.73632,3.077053 12.405955,5.673794 5.66964,2.596741 10.87414,4.974143 11.56556,5.283117 1.67102,0.746725 3.0171,0.766797 3.0171,0.04499 z M 58.754595,45.762988 c 3.4571,-0.0939 7.15363,0.02878 8.21453,0.272619 1.58827,0.365054 2.09199,0.280244 2.8525,-0.480266 0.8436,-0.843593 0.85144,-0.951306 0.0905,-1.243293 -0.45819,-0.175826 -3.91263,-0.163362 -7.67652,0.0277 -7.23854,0.367438 -9.96813,-0.08793 -13.87314,-2.314384 -1.75763,-1.002118 -2.17916,-0.854178 -2.17916,0.764789 0,2.018713 3.06858,4.001575 5.27993,3.411791 0.55313,-0.147525 3.83423,-0.345054 7.29133,-0.438953 z"
     id="path3605"
     inkscape:connector-curvature="0" />
</svg>
