<?xml version="1.0" encoding="UTF-8" standalone="no"?>
<svg
   xmlns:dc="http://purl.org/dc/elements/1.1/"
   xmlns:cc="http://creativecommons.org/ns#"
   xmlns:rdf="http://www.w3.org/1999/02/22-rdf-syntax-ns#"
   xmlns:svg="http://www.w3.org/2000/svg"
   xmlns="http://www.w3.org/2000/svg"
   version="1.1"
   id="svg2"
   viewBox="0 0 160 160"
   height="160"
   width="160">
  <metadata
     id="metadata20">
    <rdf:RDF>
      <cc:Work
         rdf:about="">
        <dc:format>image/svg+xml</dc:format>
        <dc:type
           rdf:resource="http://purl.org/dc/dcmitype/StillImage" />
        <dc:title></dc:title>
      </cc:Work>
    </rdf:RDF>
  </metadata>
  <defs
     id="defs18">
    <linearGradient
       id="linearGradient3684">
      <stop
         id="stop3686"
         offset="0"
         style="stop-color:#000000;stop-opacity:1;" />
      <stop
         style="stop-color:#000000;stop-opacity:0.86666667;"
         offset="0.89795917"
         id="stop3692" />
      <stop
         id="stop3688"
         offset="1"
         style="stop-color:#000000;stop-opacity:0;" />
    </linearGradient>
  </defs>
  <path
     id="path3430"
     d="m 73.267992,158.48924 c -32.4949,-2.7065 -61.03774,-27.85816 -68.8417298,-60.66262 -1.72994,-7.27191 -1.98045,-10.58949 -1.59277,-21.09336 0.53848,-14.58975 2.00946,-20.6546 7.9065998,-32.59882 7.84907,-15.89771 19.67691,-27.75631 35.45549,-35.54771 12.38085,-6.11361 21.40946,-8.20619 35.47519,-8.22217 21.319748,-0.0242 39.572638,7.16728 55.006508,21.67215 24.45994,22.98763 31.42384,60.78852 16.86125,91.52483 -14.70067,31.02771 -44.81187,47.88105 -80.270538,44.9277 z m -22.18899,-40.42363 19.82042,-17.15377 4.90628,1.14537 c 8.90348,2.07852 19.65357,2.32334 29.164358,0.66417 20.1236,-3.51057 34.31093,-13.15749 41.07333,-27.92851 7.75746,-16.94453 -1.61239,-36.81841 -22.08808,-46.84981 -10.68422,-5.2344 -17.54978,-6.71328 -31.258468,-6.7333 -9.6159,-0.014 -13.49434,0.41271 -19.62151,2.15899 -15.67186,4.46657 -27.69351,13.44926 -33.3346,24.90794 -2.76894,5.62451 -3.12791,7.25784 -3.08887,14.05458 0.0551,9.5906 3.09553,16.55441 10.61932,24.32229 l 5.08027,5.2451 -3.18871,5.84034 c -8.82032,16.155 -19.81537,38.14124 -18.91897,37.83128 0.55815,-0.19299 9.934,-8.07009 20.83523,-17.50467 z"
     style="fill:#aa0000;fill-opacity:0" />
  <path
     id="path3432"
     d="m 73.267992,158.48924 c -32.4949,-2.7065 -61.03774,-27.85816 -68.8417298,-60.66262 -1.72994,-7.27191 -1.98045,-10.58949 -1.59277,-21.09336 0.53848,-14.58975 2.00946,-20.6546 7.9065998,-32.59882 7.84907,-15.89771 19.67691,-27.75631 35.45549,-35.54771 12.38085,-6.11361 21.40946,-8.20619 35.47519,-8.22217 21.319748,-0.0242 39.572638,7.16728 55.006508,21.67215 24.45994,22.98763 31.42384,60.78852 16.86125,91.52483 -14.70067,31.02771 -44.81187,47.88105 -80.270538,44.9277 z m -22.18899,-40.42363 19.82042,-17.15377 4.90628,1.14537 c 8.90348,2.07852 19.65357,2.32334 29.164358,0.66417 20.1236,-3.51057 34.31093,-13.15749 41.07333,-27.92851 7.75746,-16.94453 -1.61239,-36.81841 -22.08808,-46.84981 -10.68422,-5.2344 -17.54978,-6.71328 -31.258468,-6.7333 -9.6159,-0.014 -13.49434,0.41271 -19.62151,2.15899 -15.67186,4.46657 -27.69351,13.44926 -33.3346,24.90794 -2.76894,5.62451 -3.12791,7.25784 -3.08887,14.05458 0.0551,9.5906 3.09553,16.55441 10.61932,24.32229 l 5.08027,5.2451 -3.18871,5.84034 c -8.82032,16.155 -19.81537,38.14124 -18.91897,37.83128 0.55815,-0.19299 9.934,-8.07009 20.83523,-17.50467 z"
     style="fill:#aa0000;fill-opacity:0" />
  <g
     transform="matrix(1,0,0,-1,0.68025652,160)"
     style="fill:#808000;fill-opacity:1"
     id="g4">
    <path
       style="fill:#808000;fill-opacity:1"
       id="path6"
       d="M 160,80 C 160,35.817 124.183,0 80,0 35.817,0 0,35.817 0,80 c 0,44.183 35.817,80 80,80 44.183,0 80,-35.817 80,-80" />
    <path
       style="fill:#808000;fill-opacity:1"
       id="path8"
       d="m 135.255,64.654 c 0,0 -2.991,-2.838 -15.901,-2.838 -10.599,0 -16.277,2.083 -16.277,2.838 0,0.757 -3.597,9.654 -1.893,27.825 0,0 0.814,4.164 -3.974,2.84 C 82.824,91.342 75.072,79.228 59.164,71.469 44.844,64.484 33.815,64.086 19.227,64.844 c 0,0 -0.893,-1.373 -2.78,-0.971 -3.156,0.671 -4.81,5.28 -2.523,6.551 2.016,1.12 3.789,-0.091 3.789,-0.091 0,0 22.713,-3.028 40.506,18.361 16.258,19.545 30.851,30.662 52.619,30.284 9.512,-0.165 19.352,-5.129 23.117,-13.98 3.807,-8.952 4.254,-32.23 1.3,-40.344" />
    <path
       style="fill:#808000;fill-opacity:1"
       id="path10"
       d="m 135.515,65.442 -0.003,-0.012 c -0.075,-0.243 -0.151,-0.472 -0.23,-0.694 l -0.067,-0.115 c -0.383,-0.318 -3.774,-2.805 -15.861,-2.805 -10.599,0 -16.277,2.083 -16.277,2.838 0,0.134 -0.115,0.533 -0.288,1.175 0.738,2.226 7.76,3.975 16.326,3.975 9.059,0 16.4,-1.955 16.4,-4.362" />
    <path
       style="fill:#808000;fill-opacity:1"
       id="path12"
       d="M 51.088,81.537 55.901,69.975 C 53.93,69.123 52.016,68.397 50.137,67.777 l -4.166,10.005 c 1.703,1.09 3.415,2.337 5.117,3.755" />
    <path
       style="fill:#808000;fill-opacity:1"
       id="path14"
       d="m 108.918,65.812 c 0,0.912 4.669,1.653 10.43,1.653 5.759,0 10.427,-0.741 10.427,-1.653 0,-0.915 -4.668,-1.657 -10.427,-1.657 -5.761,0 -10.43,0.742 -10.43,1.657" />
  </g>
  <path
     id="path3500"
     d="m 47.321394,140.48402 c -9.01239,-1.86341 -17.37815,-8.78885 -20.4121,-16.89783 -1.80493,-4.82412 -1.95299,-7.39407 -1.95299,-33.89969 l 0,-28.67985 5.51303,-0.28754 5.51304,-0.28755 0.5217,-12.46425 c 0.60331,-14.41434 1.79165,-17.599 9.67878,-25.93848 19.80745,-20.9434504 58.683856,-15.3789604 70.692806,10.11846 2.15619,4.57804 2.53076,6.82196 2.84079,17.0185 l 0.35712,11.74517 5.7166,0 5.71658,0 -0.30214,29.48275 c -0.28285,27.60023 -0.43105,29.76137 -2.32103,33.84603 -2.93498,6.34317 -7.16289,10.69946 -13.49605,13.90582 l -5.57842,2.82427 -29.243056,0.17078 c -16.08368,0.094 -31.04378,-0.20154 -33.24466,-0.65659 z m 43.19572,-18.02253 c 0.26199,-0.4239 -0.53012,-5.92495 -1.76024,-12.22456 -1.76191,-9.02294 -1.97942,-11.60161 -1.02488,-12.15019 2.06027,-1.18404 3.63558,-6.27371 2.99637,-9.68098 -1.3635,-7.2681 -11.53614,-11.6057 -18.59932,-7.93073 -7.08016,3.6838 -9.22739,10.37942 -5.11318,15.94419 l 2.16975,2.93475 -1.98009,10.3496 c -1.08905,5.69228 -1.98009,11.06489 -1.98009,11.93914 0,1.39828 1.49276,1.58952 12.40767,1.58952 6.82422,0 12.62203,-0.34683 12.88401,-0.77074 z M 108.04563,49.38053 C 107.33834,36.22637 106.0383,32.6765 99.896094,27.12738 c -4.56613,-4.12523 -6.49819,-5.21571 -12.43059,-7.01601 -12.74074,-3.86643 -28.20847,1.01185 -35.2008,11.10178 -4.41684,6.37351 -5.35972,10.55958 -4.65062,20.64734 l 0.63619,9.05047 30.20767,0 30.207666,0 -0.61998,-11.53043 z"
     style="fill:#000000;fill-opacity:0" />
  <path
     id="path3502"
     d="m 47.321394,140.48402 c -9.01239,-1.86341 -17.37815,-8.78885 -20.4121,-16.89783 -1.80493,-4.82412 -1.95299,-7.39407 -1.95299,-33.89969 l 0,-28.67985 5.51303,-0.28754 5.51304,-0.28755 0.5217,-12.46425 c 0.60331,-14.41434 1.79165,-17.599 9.67878,-25.93848 19.80745,-20.9434504 58.683856,-15.3789604 70.692806,10.11846 2.15619,4.57804 2.53076,6.82196 2.84079,17.0185 l 0.35712,11.74517 5.7166,0 5.71658,0 -0.30214,29.48275 c -0.28285,27.60023 -0.43105,29.76137 -2.32103,33.84603 -2.93498,6.34317 -7.16289,10.69946 -13.49605,13.90582 l -5.57842,2.82427 -29.243056,0.17078 c -16.08368,0.094 -31.04378,-0.20154 -33.24466,-0.65659 z m 43.19572,-18.02253 c 0.26199,-0.4239 -0.53012,-5.92495 -1.76024,-12.22456 -1.76191,-9.02294 -1.97942,-11.60161 -1.02488,-12.15019 2.06027,-1.18404 3.63558,-6.27371 2.99637,-9.68098 -1.3635,-7.2681 -11.53614,-11.6057 -18.59932,-7.93073 -7.08016,3.6838 -9.22739,10.37942 -5.11318,15.94419 l 2.16975,2.93475 -1.98009,10.3496 c -1.08905,5.69228 -1.98009,11.06489 -1.98009,11.93914 0,1.39828 1.49276,1.58952 12.40767,1.58952 6.82422,0 12.62203,-0.34683 12.88401,-0.77074 z M 108.04563,49.38053 C 107.33834,36.22637 106.0383,32.6765 99.896094,27.12738 c -4.56613,-4.12523 -6.49819,-5.21571 -12.43059,-7.01601 -12.74074,-3.86643 -28.20847,1.01185 -35.2008,11.10178 -4.41684,6.37351 -5.35972,10.55958 -4.65062,20.64734 l 0.63619,9.05047 30.20767,0 30.207666,0 -0.61998,-11.53043 z"
     style="fill:#000000;fill-opacity:0" />
  <path
     id="path3504"
     d="m 47.321394,140.48402 c -9.01239,-1.86341 -17.37815,-8.78885 -20.4121,-16.89783 -1.80493,-4.82412 -1.95299,-7.39407 -1.95299,-33.89969 l 0,-28.67985 5.51303,-0.28754 5.51304,-0.28755 0.5217,-12.46425 c 0.60331,-14.41434 1.79165,-17.599 9.67878,-25.93848 19.80745,-20.9434504 58.683856,-15.3789604 70.692806,10.11846 2.15619,4.57804 2.53076,6.82196 2.84079,17.0185 l 0.35712,11.74517 5.7166,0 5.71658,0 -0.30214,29.48275 c -0.28285,27.60023 -0.43105,29.76137 -2.32103,33.84603 -2.93498,6.34317 -7.16289,10.69946 -13.49605,13.90582 l -5.57842,2.82427 -29.243056,0.17078 c -16.08368,0.094 -31.04378,-0.20154 -33.24466,-0.65659 z m 43.19572,-18.02253 c 0.26199,-0.4239 -0.53012,-5.92495 -1.76024,-12.22456 -1.76191,-9.02294 -1.97942,-11.60161 -1.02488,-12.15019 2.06027,-1.18404 3.63558,-6.27371 2.99637,-9.68098 -1.3635,-7.2681 -11.53614,-11.6057 -18.59932,-7.93073 -7.08016,3.6838 -9.22739,10.37942 -5.11318,15.94419 l 2.16975,2.93475 -1.98009,10.3496 c -1.08905,5.69228 -1.98009,11.06489 -1.98009,11.93914 0,1.39828 1.49276,1.58952 12.40767,1.58952 6.82422,0 12.62203,-0.34683 12.88401,-0.77074 z M 108.04563,49.38053 C 107.33834,36.22637 106.0383,32.6765 99.896094,27.12738 c -4.56613,-4.12523 -6.49819,-5.21571 -12.43059,-7.01601 -12.74074,-3.86643 -28.20847,1.01185 -35.2008,11.10178 -4.41684,6.37351 -5.35972,10.55958 -4.65062,20.64734 l 0.63619,9.05047 30.20767,0 30.207666,0 -0.61998,-11.53043 z"
     style="fill:#000000;fill-opacity:0" />
  <path
     id="path3506"
     d="m 36.941164,145.36961 c -9.91066,-1.85332 -18.37126,-8.52737 -21.53734,-16.98948 -1.80493,-4.82411 -1.95299,-7.39407 -1.95299,-33.89968 l 0,-28.67986 5.51304,-0.28754 5.51303,-0.28754 0.49986,-12.46426 c 0.46122,-11.50073 0.71749,-12.85999 3.31508,-17.58357 3.47777,-6.32415 11.32687,-13.63019 17.99975,-16.7544 22.0591,-10.3279504 49.67109,-1.76789 59.003716,18.29188 2.23752,4.80939 2.60336,6.97309 2.91567,17.24458 l 0.35712,11.74516 5.72728,0 5.72729,0 -0.31284,29.48276 -0.31283,29.48276 -2.7244,5.54821 c -2.89669,5.89909 -9.43935,11.69385 -15.97198,14.1462 -3.796986,1.42539 -57.024746,2.26421 -63.759456,1.00478 z m 42.07049,-18.11417 c 0.26199,-0.4239 -0.48457,-5.70954 -1.65903,-11.74585 l -2.13536,-10.97511 2.27752,-3.35508 c 4.01593,-5.91597 1.66483,-13.00912 -5.28733,-15.95166 -6.06512,-2.56709 -11.72697,-1.22972 -16.52197,3.9026 -3.03268,3.24603 -3.10418,8.12101 -0.17718,12.07999 l 2.17184,2.93758 -1.98009,10.3496 c -1.08905,5.69229 -1.98009,11.0649 -1.98009,11.93914 0,1.39829 1.49276,1.58953 12.40767,1.58953 6.82422,0 12.62203,-0.34683 12.88402,-0.77074 z m 17.57111,-72.99557 c -0.66232,-13.17277 -1.99105,-16.73624 -8.3993,-22.52571 -13.80262,-12.46983 -36.99334,-10.29746 -47.58987,4.45795 -4.23184,5.89273 -5.18511,10.29957 -4.46564,20.64399 l 0.61685,8.8688 30.2067,0 30.20671,0 -0.57545,-11.44503 z"
     style="fill:#000000;fill-opacity:0" />
  <path
     id="path4321"
     d="m 65.163873,136.80799 c -14.233445,-2.018 -24.669132,-5.88426 -30.574015,-11.32719 -5.481333,-5.05252 -5.37968,-11.26648 0.265388,-16.22292 2.470672,-2.16928 10.333146,-6.16498 13.885365,-7.05653 1.022892,-0.25673 2.029247,-0.74095 2.236346,-1.07604 0.207099,-0.33509 -0.442423,-2.656354 -1.443382,-5.158361 -1.000959,-2.502 -2.508748,-8.014108 -3.350642,-12.249119 -1.612979,-8.113832 -1.487448,-10.829971 0.65139,-14.094249 2.430107,-3.708813 11.691867,-7.975549 19.257445,-8.87158 1.935168,-0.229192 3.688494,-0.691788 3.896278,-1.02799 0.207785,-0.336203 -0.847249,-1.940289 -2.344519,-3.564636 -4.801916,-5.209463 -6.990583,-11.112257 -5.537428,-14.934343 0.418547,-1.100863 2.283514,-3.611409 4.144371,-5.57899 4.616957,-4.881751 5.676678,-7.556552 4.664842,-11.774353 -0.429983,-1.792375 -1.664427,-4.65064 -2.743208,-6.3517 -1.07878,-1.70106 -1.717968,-3.092837 -1.420417,-3.092837 1.468198,0 6.335534,5.208641 7.948949,8.506342 2.467754,5.043908 2.079655,8.342657 -1.656111,14.07653 -2.339441,3.590713 -2.795906,4.84978 -2.795906,7.711948 0,2.305092 0.411649,3.947915 1.262263,5.037479 0.694245,0.88927 2.248791,3.371091 3.454548,5.515159 2.177433,3.871895 2.213664,3.898332 5.347906,3.902302 8.078191,0.01023 19.871304,2.692802 26.335234,5.990458 2.95398,1.507007 6.99595,5.049657 8.13034,7.125968 0.61933,1.133574 1.0433,1.184122 4.34915,0.518534 8.78053,-1.767841 15.04307,3.098668 15.04307,11.689701 0,3.932583 -1.17599,6.668976 -4.03148,9.380759 -3.97082,3.770976 -12.85056,6.223168 -17.13129,4.730895 -1.77613,-0.619159 -2.17119,-0.540041 -2.75555,0.551851 -0.95531,1.785012 -0.99633,1.735222 2.19919,2.669832 6.23198,1.82268 12.52073,5.40076 15.69238,8.9284 2.76638,3.07689 3.12118,3.83062 3.12118,6.63064 0,5.69876 -5.06297,10.62359 -14.91525,14.50826 -13.16721,5.19172 -34.648442,7.25052 -51.186437,4.90578 z m 31.525424,-3.15594 c 22.291553,-2.99269 34.537633,-11.8026 28.781383,-20.7055 l -0.9573,-1.4806 -4.06294,1.75307 c -3.28573,1.41772 -4.19822,2.16294 -4.77008,3.89571 -0.80196,2.42994 -4.75774,6.48459 -7.83469,8.03049 -7.18436,3.60951 -24.779634,5.42521 -37.327143,3.85189 -14.635201,-1.8351 -26.03262,-7.65353 -26.03262,-13.28977 0,-2.5626 3.284928,-5.4215 7.706251,-6.70682 l 3.838908,-1.116 -1.411966,-1.98292 c -0.776581,-1.09061 -1.880134,-1.98292 -2.45234,-1.98292 -2.09825,0 -12.152665,5.26817 -14.317104,7.50167 -3.912224,4.03706 -3.781747,8.34286 0.371074,12.24565 3.396222,3.19174 5.089317,4.17253 10.681246,6.1875 12.802404,4.61316 30.965516,6.05693 47.787321,3.79855 z m -3.728814,-6.95033 c 10.418197,-1.59848 17.288137,-5.06293 17.288137,-8.71825 0,-1.10544 -0.30822,-1.25307 -1.82262,-0.87298 -6.46332,1.62219 -30.628875,2.26326 -35.974237,0.95433 -4.30076,-1.05313 -8.673055,-3.29215 -12.801666,-6.55563 -3.336442,-2.63731 -3.442693,-2.66913 -5.71774,-1.71255 -7.417126,3.11868 -7.063177,8.82053 0.794724,12.80243 3.044172,1.5426 11.547193,3.8918 16.538487,4.56921 4.74772,0.64437 16.036625,0.40159 21.694915,-0.46656 z m -1.016949,-15.73825 c 4.658987,-2.61754 8.237616,-7.50725 9.847776,-13.45566 1.69219,-6.251471 1.41906,-6.592698 -4.060796,-5.07318 -6.746995,1.870889 -18.475431,2.74617 -26.4543,1.974251 -7.733775,-0.748203 -13.646756,-2.513729 -18.298121,-5.463532 -1.773761,-1.124888 -3.373419,-1.896847 -3.554795,-1.715471 -0.615283,0.615281 1.84595,6.895329 4.392198,11.207071 2.7756,4.700121 8.354795,10.215371 12.444336,12.301691 4.126051,2.10496 7.205696,2.61619 14.836245,2.46284 6.563647,-0.13191 7.409356,-0.3064 10.847457,-2.23801 z M 123.19283,93.5292 c 5.60519,-2.956285 7.79952,-8.323241 5.5148,-13.488238 -1.58068,-3.57339 -4.5678,-5.274827 -9.26072,-5.274827 -3.23179,0 -3.3013,0.06187 -4.0904,3.64122 -0.40082,1.818126 -0.31486,1.917639 1.30516,1.511039 2.35194,-0.5903 5.66086,1.214459 6.20554,3.384643 0.99628,3.969499 -2.85344,7.235458 -6.81118,5.778353 -2.38895,-0.879532 -2.37038,-0.89421 -2.88528,2.278766 -0.28913,1.781708 -0.13096,2.701234 0.53747,3.124468 1.77012,1.120806 6.43992,0.6504 9.48461,-0.955424 z M 91.20879,89.940556 c 6.817744,-1.408244 12.79538,-4.220963 15.4805,-7.284204 1.8588,-2.120553 2.20339,-3.045385 2.20339,-5.913577 0,-4.019776 -1.17025,-6.553125 -4.20784,-9.10909 -4.06966,-3.424396 -11.806123,-5.802695 -22.031361,-6.772757 l -4.883274,-0.463273 0.402692,2.481501 c 0.309298,1.905979 0.06603,2.936868 -1.048928,4.444923 -0.798392,1.079883 -1.451621,2.083494 -1.451621,2.230248 0,0.146755 2.822034,0.441748 6.271186,0.655541 18.344746,1.137086 24.874326,9.640118 12.187031,15.870342 -3.749246,1.841098 -4.241166,1.906197 -14.390421,1.904326 -8.235525,-0.0014 -11.373344,-0.268543 -14.507006,-1.234516 -6.976114,-2.15044 -9.735986,-6.711699 -6.528382,-10.789507 1.840221,-2.339463 5.455937,-3.92362 11.142125,-4.881712 5.53025,-0.931817 5.928396,-1.529937 4.138402,-6.216972 -1.088057,-2.849035 -1.256573,-2.977049 -3.918914,-2.977049 -3.47772,0 -10.888719,1.807752 -14.146193,3.450656 -5.466422,2.756986 -8.614872,7.872377 -7.734308,12.566187 0.57581,3.069328 4.501006,7.378702 8.623844,9.467902 3.126817,1.584482 9.106404,3.237146 14.116873,3.901688 3.876275,0.514116 14.83038,-0.204555 20.282205,-1.330657 z"
     style="fill:#ffffff;fill-opacity:1" />
  <path
     id="path4323"
     d="m 75.130517,48.969473 c -1.56551,-2.506779 -0.923239,-5.24196 2.406238,-10.247239 3.028053,-4.552141 3.220238,-5.108272 3.218658,-9.313908 -9.25e-4,-2.459984 -0.27542,-5.387953 -0.609991,-6.506597 l -0.60831,-2.033899 1.553198,1.355932 c 3.467797,3.027365 5.108106,10.376514 3.357022,15.040611 -0.394098,1.049698 -2.092546,3.312697 -3.774327,5.028885 -1.681782,1.716189 -3.433671,4.213721 -3.893086,5.550071 -0.772066,2.245791 -0.89693,2.331043 -1.649402,1.126144 z"
     style="fill:#ffffff;fill-opacity:1" />
</svg>
